{"glyphs":{"0":{"ha":961,"x_min":40,"x_max":921,"o":"m 481 -22 q 709 38 610 -22 q 865 211 808 97 q 921 486 921 325 l 921 486 q 865 761 921 647 q 709 935 808 875 q 481 994 610 994 l 481 994 q 252 935 351 994 q 97 761 153 875 q 40 486 40 647 l 40 486 q 97 211 40 325 q 252 38 153 97 q 481 -22 351 -22 l 481 -22 m 481 240 q 424 263 449 240 q 384 339 399 285 q 369 486 369 393 l 369 486 q 384 634 369 581 q 424 710 399 688 q 481 732 449 732 l 481 732 q 538 710 513 732 q 577 634 563 688 q 592 486 592 581 l 592 486 q 577 339 592 393 q 538 263 563 285 q 481 240 513 240 l 481 240 "},"1":{"ha":581,"x_min":7,"x_max":501,"o":"m 501 0 l 501 972 l 7 972 l 7 725 l 314 725 l 174 858 l 174 0 l 501 0 "},"2":{"ha":844,"x_min":-18,"x_max":818,"o":"m 818 0 l 818 254 l 314 254 l 365 140 l 629 381 l 629 381 q 736 497 700 444 q 784 596 772 549 q 796 690 796 643 l 796 690 q 746 851 796 783 q 607 957 696 919 q 403 994 518 994 l 403 994 q 140 932 246 994 q -18 769 35 869 l 229 646 l 229 646 q 290 713 251 690 q 372 736 329 736 l 372 736 q 443 716 419 736 q 467 660 467 696 l 467 660 q 461 624 467 643 q 440 582 456 606 q 390 526 424 558 l 39 201 l 39 0 l 818 0 "},"3":{"ha":853,"x_min":-8,"x_max":819,"o":"m 375 -22 q 628 26 531 -22 q 773 151 726 75 q 819 311 819 228 l 819 311 q 724 522 819 440 q 444 604 628 604 l 358 604 l 515 515 l 767 771 l 767 972 l 42 972 l 42 725 l 526 725 l 497 835 l 246 579 l 246 378 l 375 378 l 375 378 q 464 360 438 378 q 490 311 490 343 l 490 311 q 455 255 490 274 q 364 236 419 236 l 364 236 q 234 253 303 236 q 103 307 165 271 l -8 65 l -8 65 q 172 0 69 22 q 375 -22 275 -22 l 375 -22 "},"4":{"ha":989,"x_min":32,"x_max":983,"o":"m 983 167 l 983 421 l 231 421 l 383 375 l 781 972 l 444 972 l 32 375 l 32 167 l 983 167 m 854 0 l 854 569 l 546 569 l 546 421 l 536 167 l 536 0 l 854 0 "},"5":{"ha":860,"x_min":7,"x_max":835,"o":"m 390 -22 q 644 27 546 -22 q 788 155 742 76 q 835 319 835 233 l 835 319 q 795 476 835 406 q 669 588 756 546 q 438 629 582 629 l 211 629 l 376 489 l 406 865 l 240 725 l 771 725 l 771 972 l 125 972 l 76 382 l 358 382 l 358 382 q 449 374 418 382 q 493 349 481 365 q 506 313 506 333 l 506 313 q 469 256 506 275 q 378 236 433 236 l 378 236 q 249 253 317 236 q 118 307 181 271 l 7 65 l 7 65 q 188 0 85 22 q 390 -22 290 -22 l 390 -22 "},"6":{"ha":918,"x_min":40,"x_max":901,"o":"m 507 -22 q 706 19 617 -22 q 849 138 796 61 q 901 318 901 214 l 901 318 q 855 483 901 414 q 733 591 808 553 q 568 629 657 629 l 568 629 q 449 612 500 629 q 360 562 397 594 q 294 482 322 529 l 369 428 l 369 428 q 369 469 369 449 q 369 510 369 489 l 369 510 q 428 681 369 622 q 586 740 488 740 l 586 740 q 676 730 632 740 q 763 689 719 719 l 881 918 l 881 918 q 745 974 825 954 q 579 994 665 994 l 579 994 q 298 931 419 994 q 108 747 176 867 q 40 456 40 626 l 40 456 q 99 191 40 297 q 263 31 158 85 q 507 -22 368 -22 l 507 -22 m 485 204 q 433 216 456 204 q 398 250 411 228 q 385 303 385 272 l 385 303 q 398 356 385 333 q 433 390 411 378 q 485 403 456 403 l 485 403 q 557 376 529 403 q 585 303 585 349 l 585 303 q 572 250 585 272 q 537 216 560 228 q 485 204 514 204 l 485 204 "},"7":{"ha":896,"x_min":29,"x_max":861,"o":"m 538 0 l 861 771 l 861 972 l 29 972 l 29 576 l 300 576 l 300 867 l 172 718 l 633 718 l 546 856 l 179 0 l 538 0 "},"8":{"ha":942,"x_min":35,"x_max":907,"o":"m 471 -22 q 698 16 600 -22 q 851 124 796 54 q 907 289 907 194 l 907 289 q 850 450 907 383 q 694 551 793 517 q 471 586 596 586 l 471 586 q 247 551 346 586 q 92 450 149 517 q 35 289 35 383 l 35 289 q 90 124 35 194 q 244 16 146 54 q 471 -22 342 -22 l 471 -22 m 471 199 q 394 226 424 199 q 364 300 364 253 l 364 300 q 394 374 364 347 q 471 401 424 401 l 471 401 q 548 374 518 401 q 578 300 578 347 l 578 300 q 548 226 578 253 q 471 199 518 199 l 471 199 m 471 607 q 415 629 438 607 q 393 690 393 651 l 393 690 q 415 752 393 731 q 471 774 438 774 l 471 774 q 526 752 504 774 q 549 690 549 731 l 549 690 q 526 629 549 651 q 471 607 504 607 l 471 607 m 471 428 q 676 460 586 428 q 819 555 767 493 q 872 704 872 617 l 872 704 q 821 858 872 793 q 679 958 769 922 q 471 994 589 994 l 471 994 q 263 958 353 994 q 121 858 172 922 q 69 704 69 793 l 69 704 q 122 555 69 617 q 266 460 175 493 q 471 428 357 428 l 471 428 "},"9":{"ha":918,"x_min":17,"x_max":878,"o":"m 339 -22 q 621 42 500 -22 q 810 226 742 106 q 878 517 878 346 l 878 517 q 819 782 878 676 q 655 941 760 888 q 411 994 550 994 l 411 994 q 212 953 301 994 q 69 835 122 911 q 17 654 17 758 l 17 654 q 63 490 17 560 q 185 381 110 419 q 350 343 261 343 l 350 343 q 469 360 418 343 q 559 410 521 378 q 624 490 597 443 l 549 544 l 549 544 q 549 503 549 524 q 549 463 549 483 l 549 463 q 490 291 549 350 q 332 232 431 232 l 332 232 q 242 242 286 232 q 156 283 199 253 l 38 54 l 38 54 q 173 -2 93 18 q 339 -22 253 -22 l 339 -22 m 433 569 q 362 597 390 569 q 333 669 333 624 l 333 669 q 347 722 333 700 q 382 756 360 744 q 433 768 404 768 l 433 768 q 485 756 463 768 q 521 722 508 744 q 533 669 533 700 l 533 669 q 521 617 533 639 q 485 582 508 594 q 433 569 463 569 l 433 569 "},"A":{"ha":1119,"x_min":-26,"x_max":1146,"o":"m 307 0 l 621 817 l 493 817 l 807 0 l 1146 0 l 721 972 l 399 972 l -26 0 l 307 0 m 840 169 l 757 406 l 310 406 l 226 169 l 840 169 "},"Á":{"ha":1119,"x_min":-26,"x_max":1146,"o":"m 307 0 l 621 817 l 493 817 l 807 0 l 1146 0 l 721 972 l 399 972 l -26 0 l 307 0 m 840 169 l 757 406 l 310 406 l 226 169 l 840 169 m 622 1051 l 896 1274 l 597 1274 l 414 1051 l 622 1051 "},"Ă":{"ha":1119,"x_min":-26,"x_max":1146,"o":"m 307 0 l 621 817 l 493 817 l 807 0 l 1146 0 l 721 972 l 399 972 l -26 0 l 307 0 m 840 169 l 757 406 l 310 406 l 226 169 l 840 169 m 560 1051 q 765 1115 685 1051 q 850 1288 844 1178 l 663 1288 l 663 1288 q 631 1226 660 1249 q 560 1203 603 1203 l 560 1203 q 488 1226 517 1203 q 457 1288 460 1249 l 269 1288 l 269 1288 q 355 1115 275 1178 q 560 1051 435 1051 l 560 1051 "},"Ắ":{"ha":1119,"x_min":-26,"x_max":1146,"o":"m 307 0 l 621 817 l 493 817 l 807 0 l 1146 0 l 721 972 l 399 972 l -26 0 l 307 0 m 840 169 l 757 406 l 310 406 l 226 169 l 840 169 m 560 1043 q 765 1096 685 1043 q 850 1238 844 1149 l 674 1238 l 674 1238 q 639 1195 669 1211 q 560 1179 608 1179 l 560 1179 q 481 1195 513 1179 q 446 1238 450 1211 l 269 1238 l 269 1238 q 356 1096 276 1149 q 560 1043 435 1043 l 560 1043 m 622 1285 l 854 1465 l 556 1465 l 414 1285 l 622 1285 "},"Ặ":{"ha":1119,"x_min":-26,"x_max":1146,"o":"m 307 0 l 621 817 l 493 817 l 807 0 l 1146 0 l 721 972 l 399 972 l -26 0 l 307 0 m 840 169 l 757 406 l 310 406 l 226 169 l 840 169 m 560 -365 q 674 -321 629 -365 q 718 -207 718 -276 l 718 -207 q 674 -93 718 -137 q 560 -49 629 -49 l 560 -49 q 446 -93 490 -49 q 401 -207 401 -137 l 401 -207 q 446 -321 401 -276 q 560 -365 490 -365 l 560 -365 m 560 1051 q 765 1115 685 1051 q 850 1288 844 1178 l 663 1288 l 663 1288 q 631 1226 660 1249 q 560 1203 603 1203 l 560 1203 q 488 1226 517 1203 q 457 1288 460 1249 l 269 1288 l 269 1288 q 355 1115 275 1178 q 560 1051 435 1051 l 560 1051 "},"Ằ":{"ha":1119,"x_min":-26,"x_max":1146,"o":"m 307 0 l 621 817 l 493 817 l 807 0 l 1146 0 l 721 972 l 399 972 l -26 0 l 307 0 m 840 169 l 757 406 l 310 406 l 226 169 l 840 169 m 560 1043 q 765 1096 685 1043 q 850 1238 844 1149 l 674 1238 l 674 1238 q 639 1195 669 1211 q 560 1179 608 1179 l 560 1179 q 481 1195 513 1179 q 446 1238 450 1211 l 269 1238 l 269 1238 q 356 1096 276 1149 q 560 1043 435 1043 l 560 1043 m 706 1285 l 564 1465 l 265 1465 l 497 1285 l 706 1285 "},"Ẳ":{"ha":1119,"x_min":-26,"x_max":1146,"o":"m 307 0 l 621 817 l 493 817 l 807 0 l 1146 0 l 721 972 l 399 972 l -26 0 l 307 0 m 840 169 l 757 406 l 310 406 l 226 169 l 840 169 m 560 1043 q 765 1096 685 1043 q 850 1238 844 1149 l 674 1238 l 674 1238 q 639 1195 669 1211 q 560 1179 608 1179 l 560 1179 q 481 1195 513 1179 q 446 1238 450 1211 l 269 1238 l 269 1238 q 356 1096 276 1149 q 560 1043 435 1043 l 560 1043 m 608 1243 q 685 1293 653 1260 q 718 1372 718 1326 l 718 1372 q 677 1462 718 1429 q 569 1494 636 1494 l 569 1494 q 495 1486 531 1494 q 432 1460 460 1478 l 479 1375 l 479 1375 q 543 1392 513 1392 l 543 1392 q 572 1382 561 1392 q 583 1357 583 1372 l 583 1357 q 574 1334 583 1347 q 536 1306 564 1321 l 608 1243 l 608 1243 "},"Ẵ":{"ha":1119,"x_min":-26,"x_max":1146,"o":"m 307 0 l 621 817 l 493 817 l 807 0 l 1146 0 l 721 972 l 399 972 l -26 0 l 307 0 m 840 169 l 757 406 l 310 406 l 226 169 l 840 169 m 560 1043 q 765 1096 685 1043 q 850 1238 844 1149 l 674 1238 l 674 1238 q 639 1195 669 1211 q 560 1179 608 1179 l 560 1179 q 481 1195 513 1179 q 446 1238 450 1211 l 269 1238 l 269 1238 q 356 1096 276 1149 q 560 1043 435 1043 l 560 1043 m 672 1297 q 808 1349 758 1297 q 857 1497 857 1401 l 708 1497 l 708 1497 q 691 1456 707 1474 q 650 1438 675 1438 l 650 1438 q 599 1456 624 1438 q 539 1492 574 1474 q 449 1510 504 1510 l 449 1510 q 313 1457 364 1510 q 263 1310 263 1404 l 415 1310 l 415 1310 q 434 1353 418 1336 q 474 1369 450 1369 l 474 1369 q 513 1358 494 1369 q 551 1333 531 1347 q 600 1308 571 1319 q 672 1297 629 1297 l 672 1297 "},"Ǎ":{"ha":1119,"x_min":-26,"x_max":1146,"o":"m 307 0 l 621 817 l 493 817 l 807 0 l 1146 0 l 721 972 l 399 972 l -26 0 l 307 0 m 840 169 l 757 406 l 310 406 l 226 169 l 840 169 m 693 1051 l 871 1274 l 676 1274 l 479 1093 l 640 1093 l 443 1274 l 249 1274 l 426 1051 l 693 1051 "},"Â":{"ha":1119,"x_min":-26,"x_max":1146,"o":"m 307 0 l 621 817 l 493 817 l 807 0 l 1146 0 l 721 972 l 399 972 l -26 0 l 307 0 m 840 169 l 757 406 l 310 406 l 226 169 l 840 169 m 443 1051 l 640 1232 l 479 1232 l 676 1051 l 871 1051 l 693 1274 l 426 1274 l 249 1051 l 443 1051 "},"Ấ":{"ha":1119,"x_min":-26,"x_max":1201,"o":"m 307 0 l 621 817 l 493 817 l 807 0 l 1146 0 l 721 972 l 399 972 l -26 0 l 307 0 m 840 169 l 757 406 l 310 406 l 226 169 l 840 169 m 443 1051 l 635 1190 l 485 1190 l 676 1051 l 871 1051 l 692 1232 l 428 1232 l 249 1051 l 443 1051 m 969 1197 l 1201 1378 l 903 1378 l 761 1197 l 969 1197 "},"Ậ":{"ha":1119,"x_min":-26,"x_max":1146,"o":"m 307 0 l 621 817 l 493 817 l 807 0 l 1146 0 l 721 972 l 399 972 l -26 0 l 307 0 m 840 169 l 757 406 l 310 406 l 226 169 l 840 169 m 560 -365 q 674 -321 629 -365 q 718 -207 718 -276 l 718 -207 q 674 -93 718 -137 q 560 -49 629 -49 l 560 -49 q 446 -93 490 -49 q 401 -207 401 -137 l 401 -207 q 446 -321 401 -276 q 560 -365 490 -365 l 560 -365 m 443 1051 l 640 1232 l 479 1232 l 676 1051 l 871 1051 l 693 1274 l 426 1274 l 249 1051 l 443 1051 "},"Ầ":{"ha":1119,"x_min":-26,"x_max":1146,"o":"m 307 0 l 621 817 l 493 817 l 807 0 l 1146 0 l 721 972 l 399 972 l -26 0 l 307 0 m 840 169 l 757 406 l 310 406 l 226 169 l 840 169 m 443 1051 l 635 1190 l 485 1190 l 676 1051 l 871 1051 l 692 1232 l 428 1232 l 249 1051 l 443 1051 m 1053 1197 l 911 1378 l 613 1378 l 844 1197 l 1053 1197 "},"Ẩ":{"ha":1119,"x_min":-26,"x_max":1146,"o":"m 307 0 l 621 817 l 493 817 l 807 0 l 1146 0 l 721 972 l 399 972 l -26 0 l 307 0 m 840 169 l 757 406 l 310 406 l 226 169 l 840 169 m 443 1051 l 635 1190 l 485 1190 l 676 1051 l 871 1051 l 692 1232 l 428 1232 l 249 1051 l 443 1051 m 858 1169 q 935 1219 903 1186 q 968 1299 968 1253 l 968 1299 q 927 1388 968 1356 q 819 1421 886 1421 l 819 1421 q 745 1413 781 1421 q 682 1386 710 1404 l 729 1301 l 729 1301 q 793 1318 763 1318 l 793 1318 q 822 1308 811 1318 q 833 1283 833 1299 l 833 1283 q 824 1260 833 1274 q 786 1232 814 1247 l 858 1169 l 858 1169 "},"Ẫ":{"ha":1119,"x_min":-26,"x_max":1146,"o":"m 307 0 l 621 817 l 493 817 l 807 0 l 1146 0 l 721 972 l 399 972 l -26 0 l 307 0 m 840 169 l 757 406 l 310 406 l 226 169 l 840 169 m 443 1051 l 635 1190 l 485 1190 l 676 1051 l 871 1051 l 692 1232 l 428 1232 l 249 1051 l 443 1051 m 672 1292 q 808 1344 758 1292 q 857 1492 857 1396 l 708 1492 l 708 1492 q 691 1450 707 1468 q 650 1432 675 1432 l 650 1432 q 599 1450 624 1432 q 539 1486 574 1468 q 449 1504 504 1504 l 449 1504 q 313 1451 364 1504 q 263 1304 263 1399 l 415 1304 l 415 1304 q 434 1347 418 1331 q 474 1364 450 1364 l 474 1364 q 513 1353 494 1364 q 551 1328 531 1342 q 600 1303 571 1314 q 672 1292 629 1292 l 672 1292 "},"Ȁ":{"ha":1119,"x_min":-26,"x_max":1146,"o":"m 307 0 l 621 817 l 493 817 l 807 0 l 1146 0 l 721 972 l 399 972 l -26 0 l 307 0 m 840 169 l 757 406 l 310 406 l 226 169 l 840 169 m 826 1051 l 754 1274 l 483 1274 l 618 1051 l 826 1051 m 501 1051 l 429 1274 l 158 1274 l 293 1051 l 501 1051 "},"Ä":{"ha":1119,"x_min":-26,"x_max":1146,"o":"m 307 0 l 621 817 l 493 817 l 807 0 l 1146 0 l 721 972 l 399 972 l -26 0 l 307 0 m 840 169 l 757 406 l 310 406 l 226 169 l 840 169 m 714 1040 q 803 1074 767 1040 q 839 1163 839 1107 l 839 1163 q 803 1252 839 1218 q 714 1286 767 1286 l 714 1286 q 625 1252 661 1286 q 589 1163 589 1218 l 589 1163 q 625 1074 589 1107 q 714 1040 661 1040 l 714 1040 m 406 1040 q 494 1074 458 1040 q 531 1163 531 1107 l 531 1163 q 494 1252 531 1218 q 406 1286 458 1286 l 406 1286 q 317 1252 353 1286 q 281 1163 281 1218 l 281 1163 q 317 1074 281 1107 q 406 1040 353 1040 l 406 1040 "},"Ǟ":{"ha":1119,"x_min":-26,"x_max":1146,"o":"m 307 0 l 621 817 l 493 817 l 807 0 l 1146 0 l 721 972 l 399 972 l -26 0 l 307 0 m 840 169 l 757 406 l 310 406 l 226 169 l 840 169 m 707 1040 q 791 1072 757 1040 q 825 1156 825 1104 l 825 1156 q 791 1240 825 1208 q 707 1272 757 1272 l 707 1272 q 623 1240 657 1272 q 589 1156 589 1208 l 589 1156 q 623 1072 589 1104 q 707 1040 657 1040 l 707 1040 m 413 1040 q 497 1072 463 1040 q 531 1156 531 1104 l 531 1156 q 497 1240 531 1208 q 413 1272 463 1272 l 413 1272 q 328 1240 363 1272 q 294 1156 294 1208 l 294 1156 q 328 1072 294 1104 q 413 1040 363 1040 l 413 1040 m 851 1338 l 851 1493 l 268 1493 l 268 1338 l 851 1338 "},"Ȧ":{"ha":1119,"x_min":-26,"x_max":1146,"o":"m 307 0 l 621 817 l 493 817 l 807 0 l 1146 0 l 721 972 l 399 972 l -26 0 l 307 0 m 840 169 l 757 406 l 310 406 l 226 169 l 840 169 m 560 1038 q 674 1082 629 1038 q 718 1196 718 1126 l 718 1196 q 674 1310 718 1265 q 560 1354 629 1354 l 560 1354 q 446 1310 490 1354 q 401 1196 401 1265 l 401 1196 q 446 1082 401 1126 q 560 1038 490 1038 l 560 1038 "},"Ạ":{"ha":1119,"x_min":-26,"x_max":1146,"o":"m 307 0 l 621 817 l 493 817 l 807 0 l 1146 0 l 721 972 l 399 972 l -26 0 l 307 0 m 840 169 l 757 406 l 310 406 l 226 169 l 840 169 m 560 -365 q 674 -321 629 -365 q 718 -207 718 -276 l 718 -207 q 674 -93 718 -137 q 560 -49 629 -49 l 560 -49 q 446 -93 490 -49 q 401 -207 401 -137 l 401 -207 q 446 -321 401 -276 q 560 -365 490 -365 l 560 -365 "},"Ǡ":{"ha":1119,"x_min":-26,"x_max":1146,"o":"m 307 0 l 621 817 l 493 817 l 807 0 l 1146 0 l 721 972 l 399 972 l -26 0 l 307 0 m 840 169 l 757 406 l 310 406 l 226 169 l 840 169 m 560 1038 q 649 1070 613 1038 q 685 1158 685 1103 l 685 1158 q 649 1248 685 1214 q 560 1282 613 1282 l 560 1282 q 471 1248 507 1282 q 435 1158 435 1214 l 435 1158 q 471 1070 435 1103 q 560 1038 507 1038 l 560 1038 m 851 1338 l 851 1493 l 268 1493 l 268 1338 l 851 1338 "},"À":{"ha":1119,"x_min":-26,"x_max":1146,"o":"m 307 0 l 621 817 l 493 817 l 807 0 l 1146 0 l 721 972 l 399 972 l -26 0 l 307 0 m 840 169 l 757 406 l 310 406 l 226 169 l 840 169 m 706 1051 l 522 1274 l 224 1274 l 497 1051 l 706 1051 "},"Ả":{"ha":1119,"x_min":-26,"x_max":1146,"o":"m 307 0 l 621 817 l 493 817 l 807 0 l 1146 0 l 721 972 l 399 972 l -26 0 l 307 0 m 840 169 l 757 406 l 310 406 l 226 169 l 840 169 m 564 1007 q 682 1094 646 1043 q 718 1196 718 1144 l 718 1196 q 692 1284 718 1243 q 621 1350 667 1325 q 515 1375 575 1375 l 515 1375 q 427 1360 474 1375 q 332 1314 381 1346 l 396 1197 l 396 1197 q 475 1225 436 1225 l 475 1225 q 517 1211 501 1225 q 533 1172 533 1197 l 533 1172 q 522 1135 533 1154 q 469 1097 510 1117 l 564 1007 l 564 1007 "},"Ȃ":{"ha":1119,"x_min":-26,"x_max":1146,"o":"m 307 0 l 621 817 l 493 817 l 807 0 l 1146 0 l 721 972 l 399 972 l -26 0 l 307 0 m 840 169 l 757 406 l 310 406 l 226 169 l 840 169 m 457 1051 l 457 1051 q 488 1113 460 1090 q 560 1136 517 1136 l 560 1136 q 631 1113 603 1136 q 663 1051 660 1090 l 850 1051 l 850 1051 q 765 1224 844 1161 q 560 1288 685 1288 l 560 1288 q 355 1224 435 1288 q 269 1051 275 1161 l 457 1051 "},"Ɑ":{"ha":1211,"x_min":40,"x_max":1132,"o":"m 533 -15 q 701 15 628 -15 q 824 106 774 44 q 901 261 875 167 q 926 483 926 356 l 926 483 q 899 710 926 614 q 821 868 872 806 q 696 961 769 931 q 529 992 622 992 l 529 992 q 338 957 426 992 q 182 856 249 922 q 78 697 115 790 q 40 488 40 604 l 40 488 q 78 279 40 372 q 182 120 115 186 q 338 19 249 54 q 533 -15 428 -15 l 533 -15 m 592 246 q 479 274 529 246 q 400 357 429 303 q 371 486 371 411 l 371 486 q 400 617 371 563 q 479 699 429 671 q 592 728 529 728 l 592 728 q 703 699 654 728 q 782 617 753 671 q 811 486 811 564 l 811 486 q 782 356 811 410 q 703 274 753 303 q 592 246 654 246 l 592 246 m 1132 0 l 1132 972 l 806 972 l 806 801 l 824 486 l 821 174 l 821 0 l 1132 0 "},"Ā":{"ha":1119,"x_min":-26,"x_max":1146,"o":"m 307 0 l 621 817 l 493 817 l 807 0 l 1146 0 l 721 972 l 399 972 l -26 0 l 307 0 m 840 169 l 757 406 l 310 406 l 226 169 l 840 169 m 851 1081 l 851 1244 l 268 1244 l 268 1081 l 851 1081 "},"Ą":{"ha":1119,"x_min":-26,"x_max":1181,"o":"m 307 0 l 621 817 l 493 817 l 807 0 l 1146 0 l 721 972 l 399 972 l -26 0 l 307 0 m 840 169 l 757 406 l 310 406 l 226 169 l 840 169 m 1024 -333 q 1112 -324 1068 -333 q 1181 -301 1156 -315 l 1143 -172 l 1143 -172 q 1106 -185 1128 -179 q 1061 -192 1085 -192 l 1061 -192 q 1005 -175 1022 -192 q 988 -135 988 -158 l 988 -135 q 1002 -92 988 -112 q 1051 -49 1017 -71 q 1146 0 1086 -26 l 1036 68 l 1036 68 q 910 11 963 46 q 831 -67 858 -24 q 804 -162 804 -111 l 804 -162 q 862 -287 804 -240 q 1024 -333 919 -333 l 1024 -333 "},"Å":{"ha":1119,"x_min":-26,"x_max":1146,"o":"m 307 0 l 621 817 l 493 817 l 807 0 l 1146 0 l 721 972 l 399 972 l -26 0 l 307 0 m 840 169 l 757 406 l 310 406 l 226 169 l 840 169 m 560 1021 q 659 1046 615 1021 q 728 1113 703 1071 q 754 1207 754 1156 l 754 1207 q 728 1301 754 1260 q 659 1368 703 1343 q 560 1393 615 1393 l 560 1393 q 461 1368 506 1393 q 391 1301 417 1343 q 365 1207 365 1260 l 365 1207 q 391 1113 365 1156 q 461 1046 417 1071 q 560 1021 506 1021 l 560 1021 m 560 1132 q 507 1153 529 1132 q 485 1207 485 1174 l 485 1207 q 507 1261 485 1240 q 560 1282 529 1282 l 560 1282 q 613 1261 592 1282 q 635 1207 635 1240 l 635 1207 q 613 1153 635 1174 q 560 1132 592 1132 l 560 1132 "},"Ǻ":{"ha":1119,"x_min":-26,"x_max":1146,"o":"m 307 0 l 621 817 l 493 817 l 807 0 l 1146 0 l 721 972 l 399 972 l -26 0 l 307 0 m 840 169 l 757 406 l 310 406 l 226 169 l 840 169 m 560 1019 q 659 1044 615 1019 q 728 1112 703 1069 q 754 1206 754 1154 l 754 1206 q 728 1300 754 1258 q 659 1367 703 1342 q 560 1392 615 1392 l 560 1392 q 461 1367 506 1392 q 391 1300 417 1342 q 365 1206 365 1258 l 365 1206 q 391 1112 365 1154 q 461 1044 417 1069 q 560 1019 506 1019 l 560 1019 m 560 1131 q 507 1151 529 1131 q 485 1206 485 1172 l 485 1206 q 507 1260 485 1239 q 560 1281 529 1281 l 560 1281 q 613 1260 592 1281 q 635 1206 635 1239 l 635 1206 q 613 1151 635 1172 q 560 1131 592 1131 l 560 1131 m 904 1404 l 753 1517 l 564 1318 l 706 1275 l 904 1404 "},"Ḁ":{"ha":1119,"x_min":-26,"x_max":1146,"o":"m 307 0 l 621 817 l 493 817 l 807 0 l 1146 0 l 721 972 l 399 972 l -26 0 l 307 0 m 840 169 l 757 406 l 310 406 l 226 169 l 840 169 m 560 -407 q 659 -382 615 -407 q 728 -315 703 -357 q 754 -221 754 -272 l 754 -221 q 728 -126 754 -168 q 659 -60 703 -85 q 560 -35 615 -35 l 560 -35 q 461 -60 506 -35 q 391 -126 417 -85 q 365 -221 365 -168 l 365 -221 q 391 -315 365 -272 q 461 -382 417 -357 q 560 -407 506 -407 l 560 -407 m 560 -296 q 507 -275 529 -296 q 485 -221 485 -254 l 485 -221 q 507 -167 485 -187 q 560 -146 529 -146 l 560 -146 q 613 -167 592 -146 q 635 -221 635 -187 l 635 -221 q 613 -275 635 -254 q 560 -296 592 -296 l 560 -296 "},"Ⱥ":{"ha":1078,"x_min":-26,"x_max":1104,"o":"m 256 0 l 592 839 l 482 839 l 818 0 l 1104 0 l 675 972 l 403 972 l -26 0 l 256 0 m 825 190 l 754 390 l 281 390 l 208 190 l 825 190 m 578 -97 l 1044 1069 l 892 1069 l 425 -97 l 578 -97 "},"Ã":{"ha":1119,"x_min":-26,"x_max":1146,"o":"m 307 0 l 621 817 l 493 817 l 807 0 l 1146 0 l 721 972 l 399 972 l -26 0 l 307 0 m 840 169 l 757 406 l 310 406 l 226 169 l 840 169 m 672 1038 q 812 1103 761 1038 q 864 1274 863 1168 l 715 1274 l 715 1274 q 697 1227 714 1244 q 653 1210 681 1210 l 653 1210 q 615 1222 635 1210 q 570 1251 594 1235 q 516 1279 546 1267 q 447 1292 486 1292 l 447 1292 q 308 1226 358 1292 q 256 1051 258 1161 l 404 1051 l 404 1051 q 424 1101 407 1083 q 467 1119 440 1119 l 467 1119 q 506 1107 486 1119 q 549 1078 525 1094 q 603 1050 574 1063 q 672 1038 633 1038 l 672 1038 "},"Ɐ":{"ha":1119,"x_min":-26,"x_max":1146,"o":"m 813 972 l 499 156 l 626 156 l 313 972 l -26 972 l 399 0 l 721 0 l 1146 972 l 813 972 m 279 803 l 363 567 l 810 567 l 893 803 l 279 803 "},"Æ":{"ha":1554,"x_min":-26,"x_max":1507,"o":"m 307 0 l 732 856 l 535 725 l 811 725 l 811 972 l 486 972 l -26 0 l 307 0 m 811 169 l 811 406 l 304 406 l 304 169 l 811 169 m 1507 0 l 1507 247 l 1021 247 l 1021 725 l 1489 725 l 1489 972 l 699 972 l 699 0 l 1507 0 m 1432 375 l 1432 611 l 999 611 l 999 375 l 1432 375 "},"Ǽ":{"ha":1554,"x_min":-26,"x_max":1507,"o":"m 307 0 l 732 856 l 535 725 l 811 725 l 811 972 l 486 972 l -26 0 l 307 0 m 811 169 l 811 406 l 304 406 l 304 169 l 811 169 m 1507 0 l 1507 247 l 1021 247 l 1021 725 l 1489 725 l 1489 972 l 699 972 l 699 0 l 1507 0 m 1432 375 l 1432 611 l 999 611 l 999 375 l 1432 375 m 1019 1051 l 1293 1274 l 994 1274 l 811 1051 l 1019 1051 "},"Ǣ":{"ha":1554,"x_min":-26,"x_max":1507,"o":"m 307 0 l 732 856 l 535 725 l 811 725 l 811 972 l 486 972 l -26 0 l 307 0 m 811 169 l 811 406 l 304 406 l 304 169 l 811 169 m 1507 0 l 1507 247 l 1021 247 l 1021 725 l 1489 725 l 1489 972 l 699 972 l 699 0 l 1507 0 m 1432 375 l 1432 611 l 999 611 l 999 375 l 1432 375 m 1249 1081 l 1249 1244 l 665 1244 l 665 1081 l 1249 1081 "},"B":{"ha":1074,"x_min":79,"x_max":1038,"o":"m 626 0 l 626 0 q 933 71 828 0 q 1038 268 1038 142 l 1038 268 q 992 413 1038 353 q 865 506 947 474 q 668 538 782 538 l 640 463 l 640 463 q 832 496 754 463 q 951 587 910 529 q 992 718 992 644 l 992 718 q 896 901 992 829 q 599 972 800 972 l 79 972 l 79 0 l 626 0 m 401 743 l 554 743 l 554 743 q 635 725 610 743 q 661 671 661 707 l 661 671 q 635 617 661 636 q 554 599 610 599 l 379 599 l 379 382 l 599 382 l 599 382 q 680 363 653 382 q 707 306 707 343 l 707 306 q 680 249 707 268 q 599 229 653 229 l 401 229 l 401 743 "},"Ḃ":{"ha":1074,"x_min":79,"x_max":1038,"o":"m 626 0 l 626 0 q 933 71 828 0 q 1038 268 1038 142 l 1038 268 q 992 413 1038 353 q 865 506 947 474 q 668 538 782 538 l 640 463 l 640 463 q 832 496 754 463 q 951 587 910 529 q 992 718 992 644 l 992 718 q 896 901 992 829 q 599 972 800 972 l 79 972 l 79 0 l 626 0 m 401 743 l 554 743 l 554 743 q 635 725 610 743 q 661 671 661 707 l 661 671 q 635 617 661 636 q 554 599 610 599 l 379 599 l 379 382 l 599 382 l 599 382 q 680 363 653 382 q 707 306 707 343 l 707 306 q 680 249 707 268 q 599 229 653 229 l 401 229 l 401 743 m 531 1038 q 644 1082 600 1038 q 689 1196 689 1126 l 689 1196 q 644 1310 689 1265 q 531 1354 600 1354 l 531 1354 q 417 1310 461 1354 q 372 1196 372 1265 l 372 1196 q 417 1082 372 1126 q 531 1038 461 1038 l 531 1038 "},"Ḅ":{"ha":1074,"x_min":79,"x_max":1038,"o":"m 626 0 l 626 0 q 933 71 828 0 q 1038 268 1038 142 l 1038 268 q 992 413 1038 353 q 865 506 947 474 q 668 538 782 538 l 640 463 l 640 463 q 832 496 754 463 q 951 587 910 529 q 992 718 992 644 l 992 718 q 896 901 992 829 q 599 972 800 972 l 79 972 l 79 0 l 626 0 m 401 743 l 554 743 l 554 743 q 635 725 610 743 q 661 671 661 707 l 661 671 q 635 617 661 636 q 554 599 610 599 l 379 599 l 379 382 l 599 382 l 599 382 q 680 363 653 382 q 707 306 707 343 l 707 306 q 680 249 707 268 q 599 229 653 229 l 401 229 l 401 743 m 531 -365 q 644 -321 600 -365 q 689 -207 689 -276 l 689 -207 q 644 -93 689 -137 q 531 -49 600 -49 l 531 -49 q 417 -93 461 -49 q 372 -207 372 -137 l 372 -207 q 417 -321 372 -276 q 531 -365 461 -365 l 531 -365 "},"Ꞵ":{"ha":1074,"x_min":79,"x_max":1038,"o":"m 401 -269 l 401 743 l 554 743 l 554 743 q 635 725 610 743 q 661 671 661 707 l 661 671 q 635 617 661 636 q 554 599 610 599 l 383 599 l 383 382 l 599 382 l 599 382 q 680 363 653 382 q 707 306 707 343 l 707 306 q 680 249 707 268 q 599 229 653 229 l 383 229 l 383 0 l 626 0 l 626 0 q 933 71 828 0 q 1038 268 1038 142 l 1038 268 q 992 413 1038 353 q 865 506 947 474 q 668 538 782 538 l 640 463 l 640 463 q 832 496 754 463 q 951 587 910 529 q 992 718 992 644 l 992 718 q 896 901 992 829 q 599 972 800 972 l 79 972 l 79 -269 l 401 -269 "},"Ɓ":{"ha":1410,"x_min":8,"x_max":1374,"o":"m 329 546 l 329 546 q 301 611 308 581 q 300 666 294 642 q 324 704 306 690 q 374 718 343 718 l 422 718 l 422 972 l 379 972 l 379 972 q 192 938 268 972 q 74 847 117 904 q 20 720 32 790 q 24 577 8 650 q 82 440 40 504 l 329 546 m 963 0 l 963 0 q 1269 71 1164 0 q 1374 268 1374 142 l 1374 268 q 1328 413 1374 353 q 1201 506 1283 474 q 1004 538 1118 538 l 976 463 l 976 463 q 1168 496 1090 463 q 1287 587 1246 529 q 1328 718 1328 644 l 1328 718 q 1232 901 1328 829 q 935 972 1136 972 l 415 972 l 415 0 l 963 0 m 738 743 l 890 743 l 890 743 q 972 725 946 743 q 997 671 997 707 l 997 671 q 972 617 997 636 q 890 599 946 599 l 715 599 l 715 382 l 935 382 l 935 382 q 1016 363 989 382 q 1043 306 1043 343 l 1043 306 q 1016 249 1043 268 q 935 229 989 229 l 738 229 l 738 743 "},"Ḇ":{"ha":1074,"x_min":79,"x_max":1038,"o":"m 626 0 l 626 0 q 933 71 828 0 q 1038 268 1038 142 l 1038 268 q 992 413 1038 353 q 865 506 947 474 q 668 538 782 538 l 640 463 l 640 463 q 832 496 754 463 q 951 587 910 529 q 992 718 992 644 l 992 718 q 896 901 992 829 q 599 972 800 972 l 79 972 l 79 0 l 626 0 m 401 743 l 554 743 l 554 743 q 635 725 610 743 q 661 671 661 707 l 661 671 q 635 617 661 636 q 554 599 610 599 l 379 599 l 379 382 l 599 382 l 599 382 q 680 363 653 382 q 707 306 707 343 l 707 306 q 680 249 707 268 q 599 229 653 229 l 401 229 l 401 743 m 822 -268 l 822 -104 l 239 -104 l 239 -268 l 822 -268 "},"Ƀ":{"ha":1099,"x_min":7,"x_max":1063,"o":"m 651 0 l 651 0 q 958 71 853 0 q 1063 268 1063 142 l 1063 268 q 1017 413 1063 353 q 890 507 972 474 q 693 542 807 540 l 665 472 l 665 472 q 857 499 779 468 q 976 587 935 529 q 1017 718 1017 644 l 1017 718 q 921 901 1017 829 q 624 972 825 972 l 104 972 l 104 0 l 651 0 m 232 232 l 292 253 l 558 253 l 558 378 l 292 378 l 232 399 l 7 399 l 7 232 l 232 232 m 426 743 l 579 743 l 579 743 q 660 725 635 743 q 686 671 686 707 l 686 671 q 660 617 686 636 q 579 599 635 599 l 404 599 l 404 408 l 624 408 l 624 408 q 705 383 678 408 q 732 314 732 358 l 732 314 q 705 248 732 274 q 624 222 678 222 l 426 222 l 426 743 "},"Ƃ":{"ha":1074,"x_min":79,"x_max":1038,"o":"m 626 0 l 626 0 q 933 76 829 0 q 1038 301 1038 153 l 1038 301 q 938 526 1038 453 q 668 599 838 599 l 379 599 l 379 382 l 599 382 l 599 382 q 680 363 653 382 q 707 306 707 343 l 707 306 q 680 249 707 268 q 599 229 653 229 l 401 229 l 401 743 l 947 743 l 947 972 l 79 972 l 79 0 l 626 0 "},"C":{"ha":1024,"x_min":40,"x_max":1018,"o":"m 582 -22 q 835 28 725 -22 q 1018 172 946 79 l 811 357 l 811 357 q 716 273 768 303 q 599 243 664 243 l 599 243 q 506 260 547 243 q 434 308 464 276 q 388 385 404 340 q 371 486 371 431 l 371 486 q 388 587 371 542 q 434 664 404 632 q 506 713 464 696 q 599 729 547 729 l 599 729 q 716 699 664 729 q 811 615 768 669 l 1018 800 l 1018 800 q 835 944 946 894 q 582 994 725 994 l 582 994 q 366 958 465 994 q 194 853 267 921 q 81 692 121 785 q 40 486 40 599 l 40 486 q 81 281 40 374 q 194 119 121 188 q 366 15 267 51 q 582 -22 465 -22 l 582 -22 "},"Ć":{"ha":1024,"x_min":40,"x_max":1018,"o":"m 582 -22 q 835 28 725 -22 q 1018 172 946 79 l 811 357 l 811 357 q 716 273 768 303 q 599 243 664 243 l 599 243 q 506 260 547 243 q 434 308 464 276 q 388 385 404 340 q 371 486 371 431 l 371 486 q 388 587 371 542 q 434 664 404 632 q 506 713 464 696 q 599 729 547 729 l 599 729 q 716 699 664 729 q 811 615 768 669 l 1018 800 l 1018 800 q 835 944 946 894 q 582 994 725 994 l 582 994 q 366 958 465 994 q 194 853 267 921 q 81 692 121 785 q 40 486 40 599 l 40 486 q 81 281 40 374 q 194 119 121 188 q 366 15 267 51 q 582 -22 465 -22 l 582 -22 m 639 1051 l 913 1274 l 614 1274 l 431 1051 l 639 1051 "},"Ꞓ":{"ha":1096,"x_min":14,"x_max":1090,"o":"m 654 -22 q 908 28 797 -22 q 1090 172 1018 79 l 883 357 l 883 357 q 788 273 840 303 q 671 243 736 243 l 671 243 q 578 260 619 243 q 506 308 536 276 q 460 385 476 340 q 443 486 443 431 l 443 486 q 460 587 443 542 q 506 664 476 632 q 578 713 536 696 q 671 729 619 729 l 671 729 q 788 699 736 729 q 883 615 840 669 l 1090 800 l 1090 800 q 908 944 1018 894 q 654 994 797 994 l 654 994 q 438 958 538 994 q 266 853 339 921 q 153 692 193 785 q 113 486 113 599 l 113 486 q 153 281 113 374 q 266 119 193 188 q 438 15 339 51 q 654 -22 538 -22 l 654 -22 m 617 399 l 617 588 l 14 588 l 14 399 l 617 399 "},"Č":{"ha":1024,"x_min":40,"x_max":1018,"o":"m 582 -22 q 835 28 725 -22 q 1018 172 946 79 l 811 357 l 811 357 q 716 273 768 303 q 599 243 664 243 l 599 243 q 506 260 547 243 q 434 308 464 276 q 388 385 404 340 q 371 486 371 431 l 371 486 q 388 587 371 542 q 434 664 404 632 q 506 713 464 696 q 599 729 547 729 l 599 729 q 716 699 664 729 q 811 615 768 669 l 1018 800 l 1018 800 q 835 944 946 894 q 582 994 725 994 l 582 994 q 366 958 465 994 q 194 853 267 921 q 81 692 121 785 q 40 486 40 599 l 40 486 q 81 281 40 374 q 194 119 121 188 q 366 15 267 51 q 582 -22 465 -22 l 582 -22 m 710 1051 l 888 1274 l 693 1274 l 496 1093 l 657 1093 l 460 1274 l 265 1274 l 443 1051 l 710 1051 "},"Ç":{"ha":1024,"x_min":40,"x_max":1018,"o":"m 582 -22 q 835 28 725 -22 q 1018 172 946 79 l 811 357 l 811 357 q 716 273 768 303 q 599 243 664 243 l 599 243 q 506 260 547 243 q 434 308 464 276 q 388 385 404 340 q 371 486 371 431 l 371 486 q 388 587 371 542 q 434 664 404 632 q 506 713 464 696 q 599 729 547 729 l 599 729 q 716 699 664 729 q 811 615 768 669 l 1018 800 l 1018 800 q 835 944 946 894 q 582 994 725 994 l 582 994 q 366 958 465 994 q 194 853 267 921 q 81 692 121 785 q 40 486 40 599 l 40 486 q 81 281 40 374 q 194 119 121 188 q 366 15 267 51 q 582 -22 465 -22 l 582 -22 m 519 -333 q 691 -293 626 -333 q 756 -183 756 -253 l 756 -183 q 729 -114 756 -147 q 638 -72 703 -81 l 657 14 l 496 14 l 458 -144 l 515 -144 l 515 -144 q 559 -152 546 -144 q 572 -172 572 -160 l 572 -172 q 557 -196 572 -186 q 506 -206 542 -206 l 506 -206 q 459 -200 481 -206 q 422 -189 438 -194 l 383 -304 l 383 -304 q 446 -325 407 -317 q 519 -333 485 -333 l 519 -333 "},"Ḉ":{"ha":1024,"x_min":40,"x_max":1018,"o":"m 582 -22 q 835 28 725 -22 q 1018 172 946 79 l 811 357 l 811 357 q 716 273 768 303 q 599 243 664 243 l 599 243 q 506 260 547 243 q 434 308 464 276 q 388 385 404 340 q 371 486 371 431 l 371 486 q 388 587 371 542 q 434 664 404 632 q 506 713 464 696 q 599 729 547 729 l 599 729 q 716 699 664 729 q 811 615 768 669 l 1018 800 l 1018 800 q 835 944 946 894 q 582 994 725 994 l 582 994 q 366 958 465 994 q 194 853 267 921 q 81 692 121 785 q 40 486 40 599 l 40 486 q 81 281 40 374 q 194 119 121 188 q 366 15 267 51 q 582 -22 465 -22 l 582 -22 m 519 -333 q 691 -293 626 -333 q 756 -183 756 -253 l 756 -183 q 729 -114 756 -147 q 638 -72 703 -81 l 657 14 l 496 14 l 458 -144 l 515 -144 l 515 -144 q 559 -152 546 -144 q 572 -172 572 -160 l 572 -172 q 557 -196 572 -186 q 506 -206 542 -206 l 506 -206 q 459 -200 481 -206 q 422 -189 438 -194 l 383 -304 l 383 -304 q 446 -325 407 -317 q 519 -333 485 -333 l 519 -333 m 639 1051 l 913 1274 l 614 1274 l 431 1051 l 639 1051 "},"Ĉ":{"ha":1024,"x_min":40,"x_max":1018,"o":"m 582 -22 q 835 28 725 -22 q 1018 172 946 79 l 811 357 l 811 357 q 716 273 768 303 q 599 243 664 243 l 599 243 q 506 260 547 243 q 434 308 464 276 q 388 385 404 340 q 371 486 371 431 l 371 486 q 388 587 371 542 q 434 664 404 632 q 506 713 464 696 q 599 729 547 729 l 599 729 q 716 699 664 729 q 811 615 768 669 l 1018 800 l 1018 800 q 835 944 946 894 q 582 994 725 994 l 582 994 q 366 958 465 994 q 194 853 267 921 q 81 692 121 785 q 40 486 40 599 l 40 486 q 81 281 40 374 q 194 119 121 188 q 366 15 267 51 q 582 -22 465 -22 l 582 -22 m 460 1051 l 657 1232 l 496 1232 l 693 1051 l 888 1051 l 710 1274 l 443 1274 l 265 1051 l 460 1051 "},"Ċ":{"ha":1024,"x_min":40,"x_max":1018,"o":"m 582 -22 q 835 28 725 -22 q 1018 172 946 79 l 811 357 l 811 357 q 716 273 768 303 q 599 243 664 243 l 599 243 q 506 260 547 243 q 434 308 464 276 q 388 385 404 340 q 371 486 371 431 l 371 486 q 388 587 371 542 q 434 664 404 632 q 506 713 464 696 q 599 729 547 729 l 599 729 q 716 699 664 729 q 811 615 768 669 l 1018 800 l 1018 800 q 835 944 946 894 q 582 994 725 994 l 582 994 q 366 958 465 994 q 194 853 267 921 q 81 692 121 785 q 40 486 40 599 l 40 486 q 81 281 40 374 q 194 119 121 188 q 366 15 267 51 q 582 -22 465 -22 l 582 -22 m 576 1038 q 690 1082 646 1038 q 735 1196 735 1126 l 735 1196 q 690 1310 735 1265 q 576 1354 646 1354 l 576 1354 q 463 1310 507 1354 q 418 1196 418 1265 l 418 1196 q 463 1082 418 1126 q 576 1038 507 1038 l 576 1038 "},"Ꭓ":{"ha":976,"x_min":-139,"x_max":1115,"o":"m 960 36 l 960 36 q 913 -1 936 7 q 870 4 890 -8 q 833 46 850 17 l 626 414 l 529 560 l 418 789 l 418 789 q 304 938 371 888 q 163 994 238 988 q 10 967 88 1000 q -139 868 -68 935 l 17 668 l 17 668 q 64 701 42 694 q 106 698 86 708 q 143 658 126 688 l 350 290 l 456 144 l 568 -107 l 568 -107 q 673 -242 608 -196 q 815 -292 738 -287 q 970 -265 892 -297 q 1115 -164 1049 -232 l 960 36 m 314 -269 l 554 274 l 636 258 l 1033 972 l 667 972 l 451 457 l 361 481 l -60 -269 l 314 -269 "},"Ƈ":{"ha":1086,"x_min":39,"x_max":1176,"o":"m 1017 942 l 1017 942 q 1032 986 1017 971 q 1070 1004 1047 1001 q 1117 997 1093 1007 l 1176 1201 l 1176 1201 q 1031 1233 1106 1231 q 894 1207 957 1235 q 792 1119 831 1179 q 753 965 753 1060 l 753 800 l 1017 800 l 1017 942 m 581 -22 q 834 28 724 -22 q 1017 172 944 79 l 810 357 l 810 357 q 715 273 767 303 q 597 243 663 243 l 597 243 q 504 260 546 243 q 433 308 463 276 q 386 385 403 340 q 369 486 369 431 l 369 486 q 386 587 369 542 q 433 664 403 632 q 504 713 463 696 q 597 729 546 729 l 597 729 q 715 699 663 729 q 810 615 767 669 l 1017 800 l 1017 800 q 834 944 944 894 q 581 994 724 994 l 581 994 q 365 958 464 994 q 192 853 265 921 q 79 692 119 785 q 39 486 39 599 l 39 486 q 79 281 39 374 q 192 119 119 188 q 365 15 265 51 q 581 -22 464 -22 l 581 -22 "},"Ȼ":{"ha":1024,"x_min":40,"x_max":1018,"o":"m 394 -97 l 944 1069 l 786 1069 l 236 -97 l 394 -97 m 582 -22 q 835 28 725 -22 q 1018 172 946 79 l 811 357 l 811 357 q 716 273 768 303 q 599 243 664 243 l 599 243 q 506 260 547 243 q 434 308 464 276 q 388 385 404 340 q 371 486 371 431 l 371 486 q 388 587 371 542 q 434 664 404 632 q 506 713 464 696 q 599 729 547 729 l 599 729 q 716 699 664 729 q 811 615 768 669 l 1018 800 l 1018 800 q 835 944 946 894 q 582 994 725 994 l 582 994 q 366 958 465 994 q 194 853 267 921 q 81 692 121 785 q 40 486 40 599 l 40 486 q 81 281 40 374 q 194 119 121 188 q 366 15 267 51 q 582 -22 465 -22 l 582 -22 "},"D":{"ha":1147,"x_min":79,"x_max":1107,"o":"m 558 0 l 558 0 q 844 59 721 0 q 1038 227 968 118 q 1107 486 1107 336 l 1107 486 q 1038 746 1107 638 q 844 913 968 854 q 558 972 721 972 l 79 972 l 79 0 l 558 0 m 407 717 l 544 717 l 544 717 q 666 690 614 717 q 747 613 718 664 q 776 486 776 561 l 776 486 q 747 360 776 413 q 666 282 718 308 q 544 256 614 256 l 407 256 l 407 717 "},"Ǳ":{"ha":2094,"x_min":79,"x_max":2078,"o":"m 558 0 l 558 0 q 844 59 721 0 q 1038 227 968 118 q 1107 486 1107 336 l 1107 486 q 1038 746 1107 638 q 844 913 968 854 q 558 972 721 972 l 79 972 l 79 0 l 558 0 m 407 717 l 544 717 l 544 717 q 666 690 614 717 q 747 613 718 664 q 776 486 776 561 l 776 486 q 747 360 776 413 q 666 282 718 308 q 544 256 614 256 l 407 256 l 407 717 m 2078 0 l 2078 254 l 1474 254 l 1514 140 l 2056 771 l 2056 972 l 1199 972 l 1199 718 l 1767 718 l 1726 832 l 1185 201 l 1185 0 l 2078 0 "},"Ǆ":{"ha":2094,"x_min":79,"x_max":2078,"o":"m 558 0 l 558 0 q 844 59 721 0 q 1038 227 968 118 q 1107 486 1107 336 l 1107 486 q 1038 746 1107 638 q 844 913 968 854 q 558 972 721 972 l 79 972 l 79 0 l 558 0 m 407 717 l 544 717 l 544 717 q 666 690 614 717 q 747 613 718 664 q 776 486 776 561 l 776 486 q 747 360 776 413 q 666 282 718 308 q 544 256 614 256 l 407 256 l 407 717 m 2078 0 l 2078 254 l 1474 254 l 1514 140 l 2056 771 l 2056 972 l 1199 972 l 1199 718 l 1767 718 l 1726 832 l 1185 201 l 1185 0 l 2078 0 m 1765 1051 l 1943 1274 l 1749 1274 l 1551 1093 l 1713 1093 l 1515 1274 l 1321 1274 l 1499 1051 l 1765 1051 "},"Ď":{"ha":1147,"x_min":79,"x_max":1107,"o":"m 558 0 l 558 0 q 844 59 721 0 q 1038 227 968 118 q 1107 486 1107 336 l 1107 486 q 1038 746 1107 638 q 844 913 968 854 q 558 972 721 972 l 79 972 l 79 0 l 558 0 m 407 717 l 544 717 l 544 717 q 666 690 614 717 q 747 613 718 664 q 776 486 776 561 l 776 486 q 747 360 776 413 q 666 282 718 308 q 544 256 614 256 l 407 256 l 407 717 m 632 1051 l 810 1274 l 615 1274 l 418 1093 l 579 1093 l 382 1274 l 188 1274 l 365 1051 l 632 1051 "},"Ḑ":{"ha":1147,"x_min":79,"x_max":1107,"o":"m 558 0 l 558 0 q 844 59 721 0 q 1038 227 968 118 q 1107 486 1107 336 l 1107 486 q 1038 746 1107 638 q 844 913 968 854 q 558 972 721 972 l 79 972 l 79 0 l 558 0 m 407 717 l 544 717 l 544 717 q 666 690 614 717 q 747 613 718 664 q 776 486 776 561 l 776 486 q 747 360 776 413 q 666 282 718 308 q 544 256 614 256 l 407 256 l 407 717 m 538 -375 l 592 -285 l 592 -285 q 620 -220 614 -247 q 626 -174 626 -193 l 626 -174 q 593 -98 626 -126 q 501 -69 560 -69 l 501 -69 q 410 -98 443 -69 q 376 -174 376 -126 l 376 -174 q 408 -248 376 -221 q 501 -275 439 -275 l 467 -174 l 400 -375 l 538 -375 "},"Ḓ":{"ha":1147,"x_min":79,"x_max":1107,"o":"m 558 0 l 558 0 q 844 59 721 0 q 1038 227 968 118 q 1107 486 1107 336 l 1107 486 q 1038 746 1107 638 q 844 913 968 854 q 558 972 721 972 l 79 972 l 79 0 l 558 0 m 407 717 l 544 717 l 544 717 q 666 690 614 717 q 747 613 718 664 q 776 486 776 561 l 776 486 q 747 360 776 413 q 666 282 718 308 q 544 256 614 256 l 407 256 l 407 717 m 385 -299 l 582 -118 l 421 -118 l 618 -299 l 813 -299 l 635 -76 l 368 -76 l 190 -299 l 385 -299 "},"Đ":{"ha":1175,"x_min":-12,"x_max":1135,"o":"m 586 0 l 586 0 q 872 59 749 0 q 1065 227 996 118 q 1135 486 1135 336 l 1135 486 q 1065 746 1135 638 q 872 913 996 854 q 586 972 749 972 l 107 972 l 107 0 l 586 0 m 435 717 l 572 717 l 572 717 q 694 690 642 717 q 775 613 746 664 q 804 486 804 561 l 804 486 q 775 360 804 413 q 694 282 746 308 q 572 256 642 256 l 435 256 l 435 717 m 640 399 l 640 588 l -12 588 l -12 399 l 640 399 "},"Ḋ":{"ha":1147,"x_min":79,"x_max":1107,"o":"m 558 0 l 558 0 q 844 59 721 0 q 1038 227 968 118 q 1107 486 1107 336 l 1107 486 q 1038 746 1107 638 q 844 913 968 854 q 558 972 721 972 l 79 972 l 79 0 l 558 0 m 407 717 l 544 717 l 544 717 q 666 690 614 717 q 747 613 718 664 q 776 486 776 561 l 776 486 q 747 360 776 413 q 666 282 718 308 q 544 256 614 256 l 407 256 l 407 717 m 499 1038 q 613 1082 568 1038 q 657 1196 657 1126 l 657 1196 q 613 1310 657 1265 q 499 1354 568 1354 l 499 1354 q 385 1310 429 1354 q 340 1196 340 1265 l 340 1196 q 385 1082 340 1126 q 499 1038 429 1038 l 499 1038 "},"Ḍ":{"ha":1147,"x_min":79,"x_max":1107,"o":"m 558 0 l 558 0 q 844 59 721 0 q 1038 227 968 118 q 1107 486 1107 336 l 1107 486 q 1038 746 1107 638 q 844 913 968 854 q 558 972 721 972 l 79 972 l 79 0 l 558 0 m 407 717 l 544 717 l 544 717 q 666 690 614 717 q 747 613 718 664 q 776 486 776 561 l 776 486 q 747 360 776 413 q 666 282 718 308 q 544 256 614 256 l 407 256 l 407 717 m 501 -365 q 615 -321 571 -365 q 660 -207 660 -276 l 660 -207 q 615 -93 660 -137 q 501 -49 571 -49 l 501 -49 q 388 -93 432 -49 q 343 -207 343 -137 l 343 -207 q 388 -321 343 -276 q 501 -365 432 -365 l 501 -365 "},"Ɗ":{"ha":1483,"x_min":8,"x_max":1443,"o":"m 329 546 l 329 546 q 301 611 308 581 q 300 666 294 642 q 324 704 306 690 q 374 718 343 718 l 422 718 l 422 972 l 379 972 l 379 972 q 192 938 268 972 q 74 847 117 904 q 20 720 32 790 q 24 577 8 650 q 82 440 40 504 l 329 546 m 894 0 l 894 0 q 1181 59 1057 0 q 1374 227 1304 118 q 1443 486 1443 336 l 1443 486 q 1374 746 1443 638 q 1181 913 1304 854 q 894 972 1057 972 l 415 972 l 415 0 l 894 0 m 743 717 l 881 717 l 881 717 q 1002 690 950 717 q 1083 613 1054 664 q 1113 486 1113 561 l 1113 486 q 1083 360 1113 413 q 1002 282 1054 308 q 881 256 950 256 l 743 256 l 743 717 "},"Ḏ":{"ha":1147,"x_min":79,"x_max":1107,"o":"m 558 0 l 558 0 q 844 59 721 0 q 1038 227 968 118 q 1107 486 1107 336 l 1107 486 q 1038 746 1107 638 q 844 913 968 854 q 558 972 721 972 l 79 972 l 79 0 l 558 0 m 407 717 l 544 717 l 544 717 q 666 690 614 717 q 747 613 718 664 q 776 486 776 561 l 776 486 q 747 360 776 413 q 666 282 718 308 q 544 256 614 256 l 407 256 l 407 717 m 793 -268 l 793 -104 l 210 -104 l 210 -268 l 793 -268 "},"Ɖ":{"ha":1147,"x_min":-40,"x_max":1107,"o":"m 558 0 l 558 0 q 844 59 721 0 q 1038 227 968 118 q 1107 486 1107 336 l 1107 486 q 1038 746 1107 638 q 844 913 968 854 q 558 972 721 972 l 79 972 l 79 0 l 558 0 m 407 717 l 544 717 l 544 717 q 666 690 614 717 q 747 613 718 664 q 776 486 776 561 l 776 486 q 747 360 776 413 q 666 282 718 308 q 544 256 614 256 l 407 256 l 407 717 m 613 399 l 613 588 l -40 588 l -40 399 l 613 399 "},"Ƌ":{"ha":1060,"x_min":22,"x_max":981,"o":"m 981 0 l 981 972 l 136 972 l 136 743 l 658 743 l 658 604 l 388 604 l 388 604 q 116 523 210 604 q 22 303 22 442 l 22 303 q 129 78 22 156 q 429 0 236 0 l 981 0 m 457 229 q 380 252 406 229 q 354 310 354 275 l 354 310 q 380 367 354 344 q 457 389 406 389 l 658 389 l 658 229 l 457 229 l 457 229 "},"ǲ":{"ha":1939,"x_min":79,"x_max":1914,"o":"m 558 0 l 558 0 q 844 59 721 0 q 1038 227 968 118 q 1107 486 1107 336 l 1107 486 q 1038 746 1107 638 q 844 913 968 854 q 558 972 721 972 l 79 972 l 79 0 l 558 0 m 407 717 l 544 717 l 544 717 q 666 690 614 717 q 747 613 718 664 q 776 486 776 561 l 776 486 q 747 360 776 413 q 666 282 718 308 q 544 256 614 256 l 407 256 l 407 717 m 1914 0 l 1914 229 l 1443 229 l 1494 129 l 1899 579 l 1899 760 l 1200 760 l 1200 531 l 1644 531 l 1593 631 l 1189 181 l 1189 0 l 1914 0 "},"ǅ":{"ha":1939,"x_min":79,"x_max":1914,"o":"m 558 0 l 558 0 q 844 59 721 0 q 1038 227 968 118 q 1107 486 1107 336 l 1107 486 q 1038 746 1107 638 q 844 913 968 854 q 558 972 721 972 l 79 972 l 79 0 l 558 0 m 407 717 l 544 717 l 544 717 q 666 690 614 717 q 747 613 718 664 q 776 486 776 561 l 776 486 q 747 360 776 413 q 666 282 718 308 q 544 256 614 256 l 407 256 l 407 717 m 1914 0 l 1914 229 l 1443 229 l 1494 129 l 1899 579 l 1899 760 l 1200 760 l 1200 531 l 1644 531 l 1593 631 l 1189 181 l 1189 0 l 1914 0 m 1683 843 l 1861 1065 l 1667 1065 l 1469 885 l 1631 885 l 1433 1065 l 1239 1065 l 1417 843 l 1683 843 "},"Ð":{"ha":1175,"x_min":-12,"x_max":1135,"o":"m 586 0 l 586 0 q 872 59 749 0 q 1065 227 996 118 q 1135 486 1135 336 l 1135 486 q 1065 746 1135 638 q 872 913 996 854 q 586 972 749 972 l 107 972 l 107 0 l 586 0 m 435 717 l 572 717 l 572 717 q 694 690 642 717 q 775 613 746 664 q 804 486 804 561 l 804 486 q 775 360 804 413 q 694 282 746 308 q 572 256 642 256 l 435 256 l 435 717 m 640 399 l 640 588 l -12 588 l -12 399 l 640 399 "},"E":{"ha":935,"x_min":79,"x_max":888,"o":"m 888 0 l 888 247 l 401 247 l 401 725 l 869 725 l 869 972 l 79 972 l 79 0 l 888 0 m 813 375 l 813 611 l 379 611 l 379 375 l 813 375 "},"É":{"ha":935,"x_min":79,"x_max":888,"o":"m 888 0 l 888 247 l 401 247 l 401 725 l 869 725 l 869 972 l 79 972 l 79 0 l 888 0 m 813 375 l 813 611 l 379 611 l 379 375 l 813 375 m 538 1051 l 811 1274 l 513 1274 l 329 1051 l 538 1051 "},"Ĕ":{"ha":935,"x_min":79,"x_max":888,"o":"m 888 0 l 888 247 l 401 247 l 401 725 l 869 725 l 869 972 l 79 972 l 79 0 l 888 0 m 813 375 l 813 611 l 379 611 l 379 375 l 813 375 m 475 1051 q 680 1115 600 1051 q 765 1288 760 1178 l 578 1288 l 578 1288 q 547 1226 575 1249 q 475 1203 518 1203 l 475 1203 q 403 1226 432 1203 q 372 1288 375 1249 l 185 1288 l 185 1288 q 270 1115 190 1178 q 475 1051 350 1051 l 475 1051 "},"Ě":{"ha":935,"x_min":79,"x_max":888,"o":"m 888 0 l 888 247 l 401 247 l 401 725 l 869 725 l 869 972 l 79 972 l 79 0 l 888 0 m 813 375 l 813 611 l 379 611 l 379 375 l 813 375 m 608 1051 l 786 1274 l 592 1274 l 394 1093 l 556 1093 l 358 1274 l 164 1274 l 342 1051 l 608 1051 "},"Ȩ":{"ha":935,"x_min":79,"x_max":888,"o":"m 888 0 l 888 247 l 401 247 l 401 725 l 869 725 l 869 972 l 79 972 l 79 0 l 888 0 m 813 375 l 813 611 l 379 611 l 379 375 l 813 375 m 418 -333 q 590 -293 525 -333 q 654 -183 654 -253 l 654 -183 q 628 -114 654 -147 q 536 -72 601 -81 l 556 14 l 394 14 l 357 -144 l 414 -144 l 414 -144 q 458 -152 444 -144 q 471 -172 471 -160 l 471 -172 q 456 -196 471 -186 q 404 -206 440 -206 l 404 -206 q 358 -200 379 -206 q 321 -189 336 -194 l 282 -304 l 282 -304 q 344 -325 306 -317 q 418 -333 383 -333 l 418 -333 "},"Ḝ":{"ha":935,"x_min":79,"x_max":888,"o":"m 888 0 l 888 247 l 401 247 l 401 725 l 869 725 l 869 972 l 79 972 l 79 0 l 888 0 m 813 375 l 813 611 l 379 611 l 379 375 l 813 375 m 418 -333 q 590 -293 525 -333 q 654 -183 654 -253 l 654 -183 q 628 -114 654 -147 q 536 -72 601 -81 l 556 14 l 394 14 l 357 -144 l 414 -144 l 414 -144 q 458 -152 444 -144 q 471 -172 471 -160 l 471 -172 q 456 -196 471 -186 q 404 -206 440 -206 l 404 -206 q 358 -200 379 -206 q 321 -189 336 -194 l 282 -304 l 282 -304 q 344 -325 306 -317 q 418 -333 383 -333 l 418 -333 m 475 1051 q 680 1115 600 1051 q 765 1288 760 1178 l 578 1288 l 578 1288 q 547 1226 575 1249 q 475 1203 518 1203 l 475 1203 q 403 1226 432 1203 q 372 1288 375 1249 l 185 1288 l 185 1288 q 270 1115 190 1178 q 475 1051 350 1051 l 475 1051 "},"Ê":{"ha":935,"x_min":79,"x_max":888,"o":"m 888 0 l 888 247 l 401 247 l 401 725 l 869 725 l 869 972 l 79 972 l 79 0 l 888 0 m 813 375 l 813 611 l 379 611 l 379 375 l 813 375 m 358 1051 l 556 1232 l 394 1232 l 592 1051 l 786 1051 l 608 1274 l 342 1274 l 164 1051 l 358 1051 "},"Ế":{"ha":935,"x_min":79,"x_max":1117,"o":"m 888 0 l 888 247 l 401 247 l 401 725 l 869 725 l 869 972 l 79 972 l 79 0 l 888 0 m 813 375 l 813 611 l 379 611 l 379 375 l 813 375 m 358 1051 l 550 1190 l 400 1190 l 592 1051 l 786 1051 l 607 1232 l 343 1232 l 164 1051 l 358 1051 m 885 1197 l 1117 1378 l 818 1378 l 676 1197 l 885 1197 "},"Ḙ":{"ha":935,"x_min":79,"x_max":888,"o":"m 888 0 l 888 247 l 401 247 l 401 725 l 869 725 l 869 972 l 79 972 l 79 0 l 888 0 m 813 375 l 813 611 l 379 611 l 379 375 l 813 375 m 358 -299 l 556 -118 l 394 -118 l 592 -299 l 786 -299 l 608 -76 l 342 -76 l 164 -299 l 358 -299 "},"Ệ":{"ha":935,"x_min":79,"x_max":888,"o":"m 888 0 l 888 247 l 401 247 l 401 725 l 869 725 l 869 972 l 79 972 l 79 0 l 888 0 m 813 375 l 813 611 l 379 611 l 379 375 l 813 375 m 475 -365 q 589 -321 544 -365 q 633 -207 633 -276 l 633 -207 q 589 -93 633 -137 q 475 -49 544 -49 l 475 -49 q 361 -93 406 -49 q 317 -207 317 -137 l 317 -207 q 361 -321 317 -276 q 475 -365 406 -365 l 475 -365 m 358 1051 l 556 1232 l 394 1232 l 592 1051 l 786 1051 l 608 1274 l 342 1274 l 164 1051 l 358 1051 "},"Ề":{"ha":935,"x_min":79,"x_max":968,"o":"m 888 0 l 888 247 l 401 247 l 401 725 l 869 725 l 869 972 l 79 972 l 79 0 l 888 0 m 813 375 l 813 611 l 379 611 l 379 375 l 813 375 m 358 1051 l 550 1190 l 400 1190 l 592 1051 l 786 1051 l 607 1232 l 343 1232 l 164 1051 l 358 1051 m 968 1197 l 826 1378 l 528 1378 l 760 1197 l 968 1197 "},"Ể":{"ha":935,"x_min":79,"x_max":888,"o":"m 888 0 l 888 247 l 401 247 l 401 725 l 869 725 l 869 972 l 79 972 l 79 0 l 888 0 m 813 375 l 813 611 l 379 611 l 379 375 l 813 375 m 358 1051 l 550 1190 l 400 1190 l 592 1051 l 786 1051 l 607 1232 l 343 1232 l 164 1051 l 358 1051 m 774 1169 q 851 1219 818 1186 q 883 1299 883 1253 l 883 1299 q 842 1388 883 1356 q 735 1421 801 1421 l 735 1421 q 660 1413 696 1421 q 597 1386 625 1404 l 644 1301 l 644 1301 q 708 1318 678 1318 l 708 1318 q 738 1308 726 1318 q 749 1283 749 1299 l 749 1283 q 739 1260 749 1274 q 701 1232 729 1247 l 774 1169 l 774 1169 "},"Ễ":{"ha":935,"x_min":79,"x_max":888,"o":"m 888 0 l 888 247 l 401 247 l 401 725 l 869 725 l 869 972 l 79 972 l 79 0 l 888 0 m 813 375 l 813 611 l 379 611 l 379 375 l 813 375 m 358 1051 l 550 1190 l 400 1190 l 592 1051 l 786 1051 l 607 1232 l 343 1232 l 164 1051 l 358 1051 m 588 1292 q 723 1344 674 1292 q 772 1492 772 1396 l 624 1492 l 624 1492 q 606 1450 622 1468 q 565 1432 590 1432 l 565 1432 q 514 1450 539 1432 q 454 1486 489 1468 q 364 1504 419 1504 l 364 1504 q 228 1451 279 1504 q 178 1304 178 1399 l 331 1304 l 331 1304 q 349 1347 333 1331 q 389 1364 365 1364 l 389 1364 q 428 1353 410 1364 q 466 1328 446 1342 q 515 1303 486 1314 q 588 1292 544 1292 l 588 1292 "},"Ȅ":{"ha":935,"x_min":74,"x_max":888,"o":"m 888 0 l 888 247 l 401 247 l 401 725 l 869 725 l 869 972 l 79 972 l 79 0 l 888 0 m 813 375 l 813 611 l 379 611 l 379 375 l 813 375 m 742 1051 l 669 1274 l 399 1274 l 533 1051 l 742 1051 m 417 1051 l 344 1274 l 74 1274 l 208 1051 l 417 1051 "},"Ë":{"ha":935,"x_min":79,"x_max":888,"o":"m 888 0 l 888 247 l 401 247 l 401 725 l 869 725 l 869 972 l 79 972 l 79 0 l 888 0 m 813 375 l 813 611 l 379 611 l 379 375 l 813 375 m 629 1040 q 718 1074 682 1040 q 754 1163 754 1107 l 754 1163 q 718 1252 754 1218 q 629 1286 682 1286 l 629 1286 q 540 1252 576 1286 q 504 1163 504 1218 l 504 1163 q 540 1074 504 1107 q 629 1040 576 1040 l 629 1040 m 321 1040 q 410 1074 374 1040 q 446 1163 446 1107 l 446 1163 q 410 1252 446 1218 q 321 1286 374 1286 l 321 1286 q 232 1252 268 1286 q 196 1163 196 1218 l 196 1163 q 232 1074 196 1107 q 321 1040 268 1040 l 321 1040 "},"Ė":{"ha":935,"x_min":79,"x_max":888,"o":"m 888 0 l 888 247 l 401 247 l 401 725 l 869 725 l 869 972 l 79 972 l 79 0 l 888 0 m 813 375 l 813 611 l 379 611 l 379 375 l 813 375 m 475 1038 q 589 1082 544 1038 q 633 1196 633 1126 l 633 1196 q 589 1310 633 1265 q 475 1354 544 1354 l 475 1354 q 361 1310 406 1354 q 317 1196 317 1265 l 317 1196 q 361 1082 317 1126 q 475 1038 406 1038 l 475 1038 "},"Ẹ":{"ha":935,"x_min":79,"x_max":888,"o":"m 888 0 l 888 247 l 401 247 l 401 725 l 869 725 l 869 972 l 79 972 l 79 0 l 888 0 m 813 375 l 813 611 l 379 611 l 379 375 l 813 375 m 475 -365 q 589 -321 544 -365 q 633 -207 633 -276 l 633 -207 q 589 -93 633 -137 q 475 -49 544 -49 l 475 -49 q 361 -93 406 -49 q 317 -207 317 -137 l 317 -207 q 361 -321 317 -276 q 475 -365 406 -365 l 475 -365 "},"È":{"ha":935,"x_min":79,"x_max":888,"o":"m 888 0 l 888 247 l 401 247 l 401 725 l 869 725 l 869 972 l 79 972 l 79 0 l 888 0 m 813 375 l 813 611 l 379 611 l 379 375 l 813 375 m 621 1051 l 438 1274 l 139 1274 l 413 1051 l 621 1051 "},"Ẻ":{"ha":935,"x_min":79,"x_max":888,"o":"m 888 0 l 888 247 l 401 247 l 401 725 l 869 725 l 869 972 l 79 972 l 79 0 l 888 0 m 813 375 l 813 611 l 379 611 l 379 375 l 813 375 m 479 1007 q 597 1094 561 1043 q 633 1196 633 1144 l 633 1196 q 608 1284 633 1243 q 536 1350 582 1325 q 431 1375 490 1375 l 431 1375 q 342 1360 389 1375 q 247 1314 296 1346 l 311 1197 l 311 1197 q 390 1225 351 1225 l 390 1225 q 433 1211 417 1225 q 449 1172 449 1197 l 449 1172 q 437 1135 449 1154 q 385 1097 425 1117 l 479 1007 l 479 1007 "},"Ȇ":{"ha":935,"x_min":79,"x_max":888,"o":"m 888 0 l 888 247 l 401 247 l 401 725 l 869 725 l 869 972 l 79 972 l 79 0 l 888 0 m 813 375 l 813 611 l 379 611 l 379 375 l 813 375 m 372 1051 l 372 1051 q 403 1113 375 1090 q 475 1136 432 1136 l 475 1136 q 547 1113 518 1136 q 578 1051 575 1090 l 765 1051 l 765 1051 q 680 1224 760 1161 q 475 1288 600 1288 l 475 1288 q 270 1224 350 1288 q 185 1051 190 1161 l 372 1051 "},"Ē":{"ha":935,"x_min":79,"x_max":888,"o":"m 888 0 l 888 247 l 401 247 l 401 725 l 869 725 l 869 972 l 79 972 l 79 0 l 888 0 m 813 375 l 813 611 l 379 611 l 379 375 l 813 375 m 767 1081 l 767 1244 l 183 1244 l 183 1081 l 767 1081 "},"Ḗ":{"ha":935,"x_min":79,"x_max":888,"o":"m 888 0 l 888 247 l 401 247 l 401 725 l 869 725 l 869 972 l 79 972 l 79 0 l 888 0 m 813 375 l 813 611 l 379 611 l 379 375 l 813 375 m 767 1064 l 767 1219 l 183 1219 l 183 1064 l 767 1064 m 511 1313 l 743 1493 l 444 1493 l 303 1313 l 511 1313 "},"Ḕ":{"ha":935,"x_min":79,"x_max":888,"o":"m 888 0 l 888 247 l 401 247 l 401 725 l 869 725 l 869 972 l 79 972 l 79 0 l 888 0 m 813 375 l 813 611 l 379 611 l 379 375 l 813 375 m 767 1064 l 767 1219 l 183 1219 l 183 1064 l 767 1064 m 649 1313 l 507 1493 l 208 1493 l 440 1313 l 649 1313 "},"Ę":{"ha":935,"x_min":79,"x_max":922,"o":"m 888 0 l 888 247 l 401 247 l 401 725 l 869 725 l 869 972 l 79 972 l 79 0 l 888 0 m 813 375 l 813 611 l 379 611 l 379 375 l 813 375 m 765 -333 q 853 -324 810 -333 q 922 -301 897 -315 l 885 -172 l 885 -172 q 848 -185 869 -179 q 803 -192 826 -192 l 803 -192 q 747 -175 764 -192 q 729 -135 729 -158 l 729 -135 q 744 -92 729 -112 q 793 -49 758 -71 q 888 0 828 -26 l 778 68 l 778 68 q 652 11 704 46 q 573 -67 600 -24 q 546 -162 546 -111 l 546 -162 q 603 -287 546 -240 q 765 -333 661 -333 l 765 -333 "},"Ɛ":{"ha":935,"x_min":28,"x_max":949,"o":"m 536 -22 q 766 1 661 -22 q 949 64 871 24 l 853 301 l 853 301 q 700 246 781 264 q 538 228 619 228 l 538 228 q 401 249 444 228 q 358 308 358 271 l 358 308 q 369 343 358 328 q 405 367 381 358 q 467 376 429 376 l 743 376 l 743 613 l 489 613 l 489 613 q 418 629 438 613 q 399 668 399 646 l 399 668 q 418 713 399 696 q 472 737 438 729 q 546 744 506 744 l 546 744 q 651 735 596 744 q 753 712 706 726 q 832 679 801 697 l 921 918 l 921 918 q 752 976 851 956 q 549 996 653 996 l 549 996 q 373 980 458 996 q 219 930 288 964 q 109 844 150 896 q 68 719 68 792 l 68 719 q 100 601 68 660 q 197 505 132 543 q 360 467 261 467 l 353 522 l 353 522 q 177 492 250 522 q 66 408 104 463 q 28 281 28 354 l 28 281 q 88 122 28 190 q 261 15 147 53 q 536 -22 375 -22 l 536 -22 "},"Ǝ":{"ha":935,"x_min":47,"x_max":856,"o":"m 856 972 l 65 972 l 65 725 l 533 725 l 533 247 l 47 247 l 47 0 l 856 0 l 856 972 m 556 611 l 122 611 l 122 375 l 556 375 l 556 611 "},"Ɜ":{"ha":935,"x_min":-14,"x_max":907,"o":"m 399 -22 q 674 15 561 -22 q 847 122 788 53 q 907 281 907 190 l 907 281 q 869 408 907 354 q 758 492 831 463 q 582 522 685 522 l 575 467 l 575 467 q 738 505 674 467 q 835 601 803 543 q 867 719 867 660 l 867 719 q 826 844 867 792 q 716 930 785 896 q 562 980 647 964 q 386 996 476 996 l 386 996 q 183 976 282 996 q 14 918 83 956 l 103 679 l 103 679 q 181 712 133 697 q 284 735 229 726 q 389 744 339 744 l 389 744 q 464 737 431 744 q 517 713 497 729 q 536 668 536 696 l 536 668 q 517 629 536 646 q 446 613 497 613 l 192 613 l 192 376 l 468 376 l 468 376 q 531 367 507 376 q 565 343 554 358 q 576 308 576 328 l 576 308 q 534 249 576 271 q 397 228 492 228 l 397 228 q 235 246 315 228 q 82 301 156 264 l -14 64 l -14 64 q 169 1 64 24 q 399 -22 274 -22 l 399 -22 "},"Ʃ":{"ha":774,"x_min":-64,"x_max":833,"o":"m 196 -22 q 340 -1 274 -22 q 453 62 406 19 q 528 171 501 104 q 553 329 554 238 l 547 656 l 547 656 q 560 705 547 688 q 592 729 572 722 q 631 736 611 736 l 631 736 q 682 726 654 736 q 740 694 710 717 l 833 911 l 833 911 q 719 974 786 953 q 574 994 651 994 l 574 994 q 389 958 471 994 q 261 843 307 921 q 217 643 215 765 l 222 317 l 222 317 q 197 253 224 269 q 139 236 169 236 l 139 236 q 88 246 115 236 q 29 278 61 256 l -64 61 l -64 61 q 51 -1 -17 19 q 196 -22 119 -22 l 196 -22 "},"Ɇ":{"ha":935,"x_min":79,"x_max":939,"o":"m 389 -97 l 939 1069 l 781 1069 l 231 -97 l 389 -97 m 888 0 l 888 247 l 401 247 l 401 725 l 869 725 l 869 972 l 79 972 l 79 0 l 888 0 m 813 375 l 813 611 l 379 611 l 379 375 l 813 375 "},"Ẽ":{"ha":935,"x_min":79,"x_max":888,"o":"m 888 0 l 888 247 l 401 247 l 401 725 l 869 725 l 869 972 l 79 972 l 79 0 l 888 0 m 813 375 l 813 611 l 379 611 l 379 375 l 813 375 m 588 1038 q 727 1103 676 1038 q 779 1274 778 1168 l 631 1274 l 631 1274 q 613 1227 629 1244 q 568 1210 596 1210 l 568 1210 q 530 1222 550 1210 q 485 1251 510 1235 q 431 1279 461 1267 q 363 1292 401 1292 l 363 1292 q 224 1226 274 1292 q 171 1051 174 1161 l 319 1051 l 319 1051 q 339 1101 322 1083 q 382 1119 356 1119 l 382 1119 q 421 1107 401 1119 q 465 1078 440 1094 q 519 1050 489 1063 q 588 1038 549 1038 l 588 1038 "},"Ḛ":{"ha":935,"x_min":79,"x_max":888,"o":"m 888 0 l 888 247 l 401 247 l 401 725 l 869 725 l 869 972 l 79 972 l 79 0 l 888 0 m 813 375 l 813 611 l 379 611 l 379 375 l 813 375 m 588 -315 q 727 -250 676 -315 q 779 -79 778 -185 l 631 -79 l 631 -79 q 613 -126 629 -108 q 568 -143 596 -143 l 568 -143 q 530 -131 550 -143 q 485 -102 510 -118 q 431 -74 461 -86 q 363 -61 401 -61 l 363 -61 q 224 -126 274 -61 q 171 -301 174 -192 l 319 -301 l 319 -301 q 339 -251 322 -269 q 382 -233 356 -233 l 382 -233 q 421 -246 401 -233 q 465 -274 440 -258 q 519 -303 489 -290 q 588 -315 549 -315 l 588 -315 "},"Ə":{"ha":1136,"x_min":40,"x_max":1096,"o":"m 568 -22 q 778 15 682 -22 q 946 119 875 51 q 1056 280 1017 186 q 1096 486 1096 374 l 1096 486 q 1056 692 1096 599 q 941 853 1015 785 q 765 958 867 921 q 540 994 663 994 l 540 994 q 368 970 453 994 q 213 905 283 946 q 96 814 142 864 l 289 615 l 289 615 q 363 677 319 651 q 453 716 407 703 q 538 729 500 729 l 538 729 q 631 713 589 729 q 702 665 672 696 q 749 592 732 635 q 765 500 765 550 l 765 431 l 765 431 q 753 342 765 381 q 715 275 740 303 q 653 233 690 247 q 568 218 617 218 l 568 218 q 483 233 519 218 q 421 275 446 247 q 383 342 396 303 q 371 431 371 381 l 265 372 l 800 372 l 800 553 l 40 553 l 40 500 l 40 500 q 78 285 40 382 q 187 120 117 189 q 354 15 257 51 q 568 -22 451 -22 l 568 -22 "},"Ʒ":{"ha":913,"x_min":14,"x_max":882,"o":"m 417 -22 q 684 26 582 -22 q 834 151 786 75 q 882 313 882 228 l 882 313 q 838 463 882 397 q 706 567 793 529 q 490 604 618 604 l 404 604 l 561 515 l 826 771 l 826 972 l 63 972 l 63 722 l 586 722 l 557 835 l 271 579 l 271 378 l 422 378 l 422 378 q 521 360 490 378 q 551 311 551 343 l 551 311 q 512 255 551 274 q 404 236 472 236 l 404 236 q 265 253 340 236 q 119 307 189 271 l 14 65 l 14 65 q 206 0 97 22 q 417 -22 314 -22 l 417 -22 "},"Ǯ":{"ha":913,"x_min":14,"x_max":882,"o":"m 417 -22 q 684 26 582 -22 q 834 151 786 75 q 882 313 882 228 l 882 313 q 838 463 882 397 q 706 567 793 529 q 490 604 618 604 l 404 604 l 561 515 l 826 771 l 826 972 l 63 972 l 63 722 l 586 722 l 557 835 l 271 579 l 271 378 l 422 378 l 422 378 q 521 360 490 378 q 551 311 551 343 l 551 311 q 512 255 551 274 q 404 236 472 236 l 404 236 q 265 253 340 236 q 119 307 189 271 l 14 65 l 14 65 q 206 0 97 22 q 417 -22 314 -22 l 417 -22 m 574 1051 l 751 1274 l 557 1274 l 360 1093 l 521 1093 l 324 1274 l 129 1274 l 307 1051 l 574 1051 "},"Ƹ":{"ha":900,"x_min":31,"x_max":886,"o":"m 492 -22 q 701 0 594 -22 q 886 65 807 22 l 781 307 l 781 307 q 642 253 715 271 q 503 236 568 236 l 503 236 q 401 255 440 236 q 361 311 361 274 l 361 311 q 392 360 361 343 q 490 378 422 378 l 626 378 l 626 579 l 356 835 l 326 725 l 840 725 l 840 972 l 86 972 l 86 771 l 357 515 l 508 604 l 422 604 l 422 604 q 207 567 294 604 q 75 463 119 529 q 31 313 31 397 l 31 313 q 78 151 31 228 q 228 26 126 75 q 492 -22 329 -22 l 492 -22 "},"F":{"ha":894,"x_min":79,"x_max":869,"o":"m 407 0 l 407 725 l 869 725 l 869 972 l 79 972 l 79 0 l 407 0 m 813 311 l 813 558 l 385 558 l 385 311 l 813 311 "},"Ḟ":{"ha":894,"x_min":79,"x_max":869,"o":"m 407 0 l 407 725 l 869 725 l 869 972 l 79 972 l 79 0 l 407 0 m 813 311 l 813 558 l 385 558 l 385 311 l 813 311 m 469 1038 q 583 1082 539 1038 q 628 1196 628 1126 l 628 1196 q 583 1310 628 1265 q 469 1354 539 1354 l 469 1354 q 356 1310 400 1354 q 311 1196 311 1265 l 311 1196 q 356 1082 311 1126 q 469 1038 400 1038 l 469 1038 "},"Ƒ":{"ha":938,"x_min":-103,"x_max":900,"o":"m -103 -246 q 82 -287 -12 -283 q 257 -258 176 -290 q 388 -154 338 -225 q 438 28 438 -83 l 438 725 l 900 725 l 900 972 l 110 972 l 110 32 l 110 32 q 91 -24 110 -4 q 41 -44 72 -43 q -28 -28 10 -44 l -103 -246 l -103 -246 m 843 311 l 843 558 l 415 558 l 415 311 l 843 311 "},"G":{"ha":1068,"x_min":40,"x_max":1035,"o":"m 583 -22 q 804 10 690 -22 q 1007 101 918 42 l 824 326 l 824 326 q 711 262 764 281 q 603 243 658 243 l 603 243 q 508 260 550 243 q 435 310 465 278 q 388 387 404 342 q 371 486 371 432 l 371 486 q 388 588 371 543 q 435 664 404 632 q 509 713 465 696 q 607 729 553 729 l 607 729 q 726 702 672 729 q 825 622 779 675 l 1035 807 l 1035 807 q 848 946 961 897 q 590 994 735 994 l 590 994 q 369 958 469 994 q 194 853 268 921 q 81 692 121 785 q 40 486 40 599 l 40 486 q 81 281 40 374 q 194 119 121 188 q 366 15 267 51 q 583 -22 465 -22 l 583 -22 m 1007 513 l 722 513 l 722 143 l 1007 101 l 1007 513 "},"Ǵ":{"ha":1068,"x_min":40,"x_max":1035,"o":"m 583 -22 q 804 10 690 -22 q 1007 101 918 42 l 824 326 l 824 326 q 711 262 764 281 q 603 243 658 243 l 603 243 q 508 260 550 243 q 435 310 465 278 q 388 387 404 342 q 371 486 371 432 l 371 486 q 388 588 371 543 q 435 664 404 632 q 509 713 465 696 q 607 729 553 729 l 607 729 q 726 702 672 729 q 825 622 779 675 l 1035 807 l 1035 807 q 848 946 961 897 q 590 994 735 994 l 590 994 q 369 958 469 994 q 194 853 268 921 q 81 692 121 785 q 40 486 40 599 l 40 486 q 81 281 40 374 q 194 119 121 188 q 366 15 267 51 q 583 -22 465 -22 l 583 -22 m 1007 513 l 722 513 l 722 143 l 1007 101 l 1007 513 m 651 1051 l 925 1274 l 626 1274 l 443 1051 l 651 1051 "},"Ğ":{"ha":1068,"x_min":40,"x_max":1035,"o":"m 583 -22 q 804 10 690 -22 q 1007 101 918 42 l 824 326 l 824 326 q 711 262 764 281 q 603 243 658 243 l 603 243 q 508 260 550 243 q 435 310 465 278 q 388 387 404 342 q 371 486 371 432 l 371 486 q 388 588 371 543 q 435 664 404 632 q 509 713 465 696 q 607 729 553 729 l 607 729 q 726 702 672 729 q 825 622 779 675 l 1035 807 l 1035 807 q 848 946 961 897 q 590 994 735 994 l 590 994 q 369 958 469 994 q 194 853 268 921 q 81 692 121 785 q 40 486 40 599 l 40 486 q 81 281 40 374 q 194 119 121 188 q 366 15 267 51 q 583 -22 465 -22 l 583 -22 m 1007 513 l 722 513 l 722 143 l 1007 101 l 1007 513 m 589 1051 q 794 1115 714 1051 q 879 1288 874 1178 l 692 1288 l 692 1288 q 660 1226 689 1249 q 589 1203 632 1203 l 589 1203 q 517 1226 546 1203 q 486 1288 489 1249 l 299 1288 l 299 1288 q 384 1115 304 1178 q 589 1051 464 1051 l 589 1051 "},"Ǧ":{"ha":1068,"x_min":40,"x_max":1035,"o":"m 583 -22 q 804 10 690 -22 q 1007 101 918 42 l 824 326 l 824 326 q 711 262 764 281 q 603 243 658 243 l 603 243 q 508 260 550 243 q 435 310 465 278 q 388 387 404 342 q 371 486 371 432 l 371 486 q 388 588 371 543 q 435 664 404 632 q 509 713 465 696 q 607 729 553 729 l 607 729 q 726 702 672 729 q 825 622 779 675 l 1035 807 l 1035 807 q 848 946 961 897 q 590 994 735 994 l 590 994 q 369 958 469 994 q 194 853 268 921 q 81 692 121 785 q 40 486 40 599 l 40 486 q 81 281 40 374 q 194 119 121 188 q 366 15 267 51 q 583 -22 465 -22 l 583 -22 m 1007 513 l 722 513 l 722 143 l 1007 101 l 1007 513 m 722 1051 l 900 1274 l 706 1274 l 508 1093 l 669 1093 l 472 1274 l 278 1274 l 456 1051 l 722 1051 "},"Ĝ":{"ha":1068,"x_min":40,"x_max":1035,"o":"m 583 -22 q 804 10 690 -22 q 1007 101 918 42 l 824 326 l 824 326 q 711 262 764 281 q 603 243 658 243 l 603 243 q 508 260 550 243 q 435 310 465 278 q 388 387 404 342 q 371 486 371 432 l 371 486 q 388 588 371 543 q 435 664 404 632 q 509 713 465 696 q 607 729 553 729 l 607 729 q 726 702 672 729 q 825 622 779 675 l 1035 807 l 1035 807 q 848 946 961 897 q 590 994 735 994 l 590 994 q 369 958 469 994 q 194 853 268 921 q 81 692 121 785 q 40 486 40 599 l 40 486 q 81 281 40 374 q 194 119 121 188 q 366 15 267 51 q 583 -22 465 -22 l 583 -22 m 1007 513 l 722 513 l 722 143 l 1007 101 l 1007 513 m 472 1051 l 669 1232 l 508 1232 l 706 1051 l 900 1051 l 722 1274 l 456 1274 l 278 1051 l 472 1051 "},"Ģ":{"ha":1068,"x_min":40,"x_max":1035,"o":"m 583 -22 q 804 10 690 -22 q 1007 101 918 42 l 824 326 l 824 326 q 711 262 764 281 q 603 243 658 243 l 603 243 q 508 260 550 243 q 435 310 465 278 q 388 387 404 342 q 371 486 371 432 l 371 486 q 388 588 371 543 q 435 664 404 632 q 509 713 465 696 q 607 729 553 729 l 607 729 q 726 702 672 729 q 825 622 779 675 l 1035 807 l 1035 807 q 848 946 961 897 q 590 994 735 994 l 590 994 q 369 958 469 994 q 194 853 268 921 q 81 692 121 785 q 40 486 40 599 l 40 486 q 81 281 40 374 q 194 119 121 188 q 366 15 267 51 q 583 -22 465 -22 l 583 -22 m 1007 513 l 722 513 l 722 143 l 1007 101 l 1007 513 m 606 -375 l 660 -285 l 660 -285 q 688 -220 682 -247 q 694 -174 694 -193 l 694 -174 q 661 -98 694 -126 q 569 -69 628 -69 l 569 -69 q 478 -98 511 -69 q 444 -174 444 -126 l 444 -174 q 476 -248 444 -221 q 569 -275 507 -275 l 535 -174 l 468 -375 l 606 -375 "},"Ġ":{"ha":1068,"x_min":40,"x_max":1035,"o":"m 583 -22 q 804 10 690 -22 q 1007 101 918 42 l 824 326 l 824 326 q 711 262 764 281 q 603 243 658 243 l 603 243 q 508 260 550 243 q 435 310 465 278 q 388 387 404 342 q 371 486 371 432 l 371 486 q 388 588 371 543 q 435 664 404 632 q 509 713 465 696 q 607 729 553 729 l 607 729 q 726 702 672 729 q 825 622 779 675 l 1035 807 l 1035 807 q 848 946 961 897 q 590 994 735 994 l 590 994 q 369 958 469 994 q 194 853 268 921 q 81 692 121 785 q 40 486 40 599 l 40 486 q 81 281 40 374 q 194 119 121 188 q 366 15 267 51 q 583 -22 465 -22 l 583 -22 m 1007 513 l 722 513 l 722 143 l 1007 101 l 1007 513 m 589 1038 q 703 1082 658 1038 q 747 1196 747 1126 l 747 1196 q 703 1310 747 1265 q 589 1354 658 1354 l 589 1354 q 475 1310 519 1354 q 431 1196 431 1265 l 431 1196 q 475 1082 431 1126 q 589 1038 519 1038 l 589 1038 "},"Ɠ":{"ha":1104,"x_min":40,"x_max":1194,"o":"m 583 -22 q 804 10 690 -22 q 1007 101 918 42 l 824 326 l 824 326 q 711 262 764 281 q 603 243 658 243 l 603 243 q 508 260 550 243 q 435 310 465 278 q 388 387 404 342 q 371 486 371 432 l 371 486 q 388 588 371 543 q 435 664 404 632 q 509 713 465 696 q 607 729 553 729 l 607 729 q 726 702 672 729 q 825 622 779 675 l 1035 807 l 1035 807 q 848 946 961 897 q 590 994 735 994 l 590 994 q 369 958 469 994 q 194 853 268 921 q 81 692 121 785 q 40 486 40 599 l 40 486 q 81 281 40 374 q 194 119 121 188 q 366 15 267 51 q 583 -22 465 -22 l 583 -22 m 1007 513 l 722 513 l 722 143 l 1007 101 l 1007 513 m 1035 807 l 1035 942 l 1035 942 q 1050 986 1035 971 q 1088 1004 1065 1001 q 1135 997 1111 1007 l 1194 1201 l 1194 1201 q 1049 1233 1124 1231 q 912 1207 975 1235 q 810 1119 849 1179 q 771 965 771 1060 l 771 822 l 1035 807 "},"Ɂ":{"ha":965,"x_min":11,"x_max":936,"o":"m 665 0 l 665 221 l 665 221 q 685 295 665 264 q 735 353 704 326 q 801 406 767 379 q 866 465 835 432 q 917 544 897 499 q 936 656 936 590 l 936 656 q 898 809 936 744 q 794 915 860 874 q 649 975 729 956 q 482 994 568 994 l 482 994 q 287 969 382 994 q 119 892 192 943 q 11 768 46 842 l 258 644 l 258 644 q 315 699 283 678 q 384 731 347 721 q 456 742 421 742 l 456 742 q 531 729 496 742 q 586 692 565 717 q 607 635 607 668 l 607 635 q 588 579 607 603 q 538 536 568 556 q 472 494 507 517 q 407 441 438 472 q 357 364 376 410 q 338 251 338 318 l 338 0 l 665 0 "},"Ḡ":{"ha":1068,"x_min":40,"x_max":1035,"o":"m 583 -22 q 804 10 690 -22 q 1007 101 918 42 l 824 326 l 824 326 q 711 262 764 281 q 603 243 658 243 l 603 243 q 508 260 550 243 q 435 310 465 278 q 388 387 404 342 q 371 486 371 432 l 371 486 q 388 588 371 543 q 435 664 404 632 q 509 713 465 696 q 607 729 553 729 l 607 729 q 726 702 672 729 q 825 622 779 675 l 1035 807 l 1035 807 q 848 946 961 897 q 590 994 735 994 l 590 994 q 369 958 469 994 q 194 853 268 921 q 81 692 121 785 q 40 486 40 599 l 40 486 q 81 281 40 374 q 194 119 121 188 q 366 15 267 51 q 583 -22 465 -22 l 583 -22 m 1007 513 l 722 513 l 722 143 l 1007 101 l 1007 513 m 881 1081 l 881 1244 l 297 1244 l 297 1081 l 881 1081 "},"Ǥ":{"ha":1128,"x_min":40,"x_max":1104,"o":"m 583 -22 q 804 10 690 -22 q 1007 101 918 42 l 824 326 l 824 326 q 711 262 764 281 q 603 243 658 243 l 603 243 q 508 260 550 243 q 435 310 465 278 q 388 387 404 342 q 371 486 371 432 l 371 486 q 388 588 371 543 q 435 664 404 632 q 509 713 465 696 q 607 729 553 729 l 607 729 q 726 702 672 729 q 825 622 779 675 l 1035 807 l 1035 807 q 848 946 961 897 q 590 994 735 994 l 590 994 q 369 958 469 994 q 194 853 268 921 q 81 692 121 785 q 40 486 40 599 l 40 486 q 81 281 40 374 q 194 119 121 188 q 366 15 267 51 q 583 -22 465 -22 l 583 -22 m 1104 294 l 1104 483 l 576 483 l 576 294 l 1104 294 m 1007 526 l 722 526 l 722 143 l 1007 101 l 1007 526 "},"Ȝ":{"ha":944,"x_min":-6,"x_max":901,"o":"m 7 -161 q 376 -124 211 -154 q 658 -41 540 -94 q 838 90 775 13 q 901 271 901 168 l 901 271 q 855 424 901 360 q 726 512 808 488 q 536 507 644 536 l 551 444 l 551 444 q 712 505 640 465 q 826 602 783 544 q 869 733 869 660 l 869 733 q 829 860 869 801 q 707 956 789 919 q 499 993 625 993 l 499 993 q 309 972 403 993 q 135 921 215 951 q -3 861 54 890 l 93 619 l 93 619 q 235 672 165 649 q 364 707 306 694 q 457 719 422 719 l 457 719 q 502 713 485 719 q 528 693 519 706 q 538 663 538 681 l 538 663 q 526 628 538 643 q 490 604 514 614 q 429 586 467 594 l 219 538 l 240 286 l 456 336 l 456 336 q 515 340 492 344 q 550 320 539 335 q 561 285 561 306 l 561 285 q 517 212 561 242 q 395 163 474 182 q 214 131 317 143 q -6 107 111 118 l 7 -161 l 7 -161 "},"H":{"ha":1117,"x_min":79,"x_max":1038,"o":"m 1038 0 l 1038 972 l 710 972 l 710 0 l 1038 0 m 407 0 l 407 972 l 79 972 l 79 0 l 407 0 m 732 358 l 732 628 l 385 628 l 385 358 l 732 358 "},"Ħ":{"ha":1172,"x_min":10,"x_max":1163,"o":"m 1065 0 l 1065 972 l 738 972 l 738 0 l 1065 0 m 435 0 l 435 972 l 107 972 l 107 0 l 435 0 m 760 344 l 760 600 l 413 600 l 413 344 l 760 344 m 1163 690 l 1163 879 l 10 879 l 10 690 l 1163 690 "},"Ḫ":{"ha":1117,"x_min":79,"x_max":1038,"o":"m 1038 0 l 1038 972 l 710 972 l 710 0 l 1038 0 m 407 0 l 407 972 l 79 972 l 79 0 l 407 0 m 732 358 l 732 628 l 385 628 l 385 358 l 732 358 m 558 -296 q 763 -233 683 -296 q 849 -60 843 -169 l 661 -60 l 661 -60 q 630 -122 658 -99 q 558 -144 601 -144 l 558 -144 q 487 -122 515 -144 q 456 -60 458 -99 l 268 -60 l 268 -60 q 353 -233 274 -169 q 558 -296 433 -296 l 558 -296 "},"Ȟ":{"ha":1117,"x_min":79,"x_max":1038,"o":"m 1038 0 l 1038 972 l 710 972 l 710 0 l 1038 0 m 407 0 l 407 972 l 79 972 l 79 0 l 407 0 m 732 358 l 732 628 l 385 628 l 385 358 l 732 358 m 692 1051 l 869 1274 l 675 1274 l 478 1093 l 639 1093 l 442 1274 l 247 1274 l 425 1051 l 692 1051 "},"Ḩ":{"ha":1117,"x_min":58,"x_max":1038,"o":"m 1038 0 l 1038 972 l 710 972 l 710 0 l 1038 0 m 194 -333 q 366 -293 301 -333 q 431 -183 431 -253 l 431 -183 q 404 -114 431 -147 q 313 -72 378 -81 l 332 14 l 171 14 l 133 -144 l 190 -144 l 190 -144 q 234 -152 221 -144 q 247 -172 247 -160 l 247 -172 q 232 -196 247 -186 q 181 -206 217 -206 l 181 -206 q 134 -200 156 -206 q 97 -189 113 -194 l 58 -304 l 58 -304 q 121 -325 82 -317 q 194 -333 160 -333 l 194 -333 m 407 0 l 407 972 l 79 972 l 79 0 l 407 0 m 732 358 l 732 628 l 385 628 l 385 358 l 732 358 "},"Ĥ":{"ha":1117,"x_min":79,"x_max":1038,"o":"m 1038 0 l 1038 972 l 710 972 l 710 0 l 1038 0 m 407 0 l 407 972 l 79 972 l 79 0 l 407 0 m 732 358 l 732 628 l 385 628 l 385 358 l 732 358 m 442 1051 l 639 1232 l 478 1232 l 675 1051 l 869 1051 l 692 1274 l 425 1274 l 247 1051 l 442 1051 "},"Ḧ":{"ha":1117,"x_min":79,"x_max":1038,"o":"m 1038 0 l 1038 972 l 710 972 l 710 0 l 1038 0 m 407 0 l 407 972 l 79 972 l 79 0 l 407 0 m 732 358 l 732 628 l 385 628 l 385 358 l 732 358 m 713 1040 q 801 1074 765 1040 q 838 1163 838 1107 l 838 1163 q 801 1252 838 1218 q 713 1286 765 1286 l 713 1286 q 624 1252 660 1286 q 588 1163 588 1218 l 588 1163 q 624 1074 588 1107 q 713 1040 660 1040 l 713 1040 m 404 1040 q 493 1074 457 1040 q 529 1163 529 1107 l 529 1163 q 493 1252 529 1218 q 404 1286 457 1286 l 404 1286 q 315 1252 351 1286 q 279 1163 279 1218 l 279 1163 q 315 1074 279 1107 q 404 1040 351 1040 l 404 1040 "},"Ḣ":{"ha":1117,"x_min":79,"x_max":1038,"o":"m 1038 0 l 1038 972 l 710 972 l 710 0 l 1038 0 m 407 0 l 407 972 l 79 972 l 79 0 l 407 0 m 732 358 l 732 628 l 385 628 l 385 358 l 732 358 m 558 1038 q 672 1082 628 1038 q 717 1196 717 1126 l 717 1196 q 672 1310 717 1265 q 558 1354 628 1354 l 558 1354 q 444 1310 489 1354 q 400 1196 400 1265 l 400 1196 q 444 1082 400 1126 q 558 1038 489 1038 l 558 1038 "},"Ḥ":{"ha":1117,"x_min":79,"x_max":1038,"o":"m 1038 0 l 1038 972 l 710 972 l 710 0 l 1038 0 m 407 0 l 407 972 l 79 972 l 79 0 l 407 0 m 732 358 l 732 628 l 385 628 l 385 358 l 732 358 m 558 -365 q 672 -321 628 -365 q 717 -207 717 -276 l 717 -207 q 672 -93 717 -137 q 558 -49 628 -49 l 558 -49 q 444 -93 489 -49 q 400 -207 400 -137 l 400 -207 q 444 -321 400 -276 q 558 -365 489 -365 l 558 -365 "},"Ꜧ":{"ha":1124,"x_min":79,"x_max":1038,"o":"m 499 -246 q 682 -287 588 -283 q 857 -258 776 -290 q 988 -153 938 -225 q 1038 31 1038 -82 l 1038 972 l 710 972 l 710 31 l 710 31 q 699 -14 710 4 q 669 -39 688 -32 q 626 -43 650 -46 q 574 -28 601 -40 l 499 -246 l 499 -246 m 407 0 l 407 972 l 79 972 l 79 0 l 407 0 m 742 363 l 742 626 l 386 626 l 386 363 l 742 363 "},"Ɦ":{"ha":1453,"x_min":8,"x_max":1374,"o":"m 329 546 l 329 546 q 301 611 308 581 q 300 666 294 642 q 324 704 306 690 q 374 718 343 718 l 422 718 l 422 972 l 379 972 l 379 972 q 192 938 268 972 q 74 847 117 904 q 20 720 32 790 q 24 577 8 650 q 82 440 40 504 l 329 546 m 1374 0 l 1374 972 l 1046 972 l 1046 0 l 1374 0 m 743 0 l 743 972 l 415 972 l 415 0 l 743 0 m 1068 358 l 1068 628 l 721 628 l 721 358 l 1068 358 "},"Ɥ":{"ha":1063,"x_min":31,"x_max":983,"o":"m 656 972 l 656 704 l 656 704 q 611 562 656 607 q 503 517 567 517 l 503 517 q 398 559 438 517 q 358 693 358 601 l 358 972 l 31 972 l 31 683 l 31 683 q 126 363 31 475 q 393 251 221 251 l 393 251 q 591 308 510 251 q 715 464 672 364 l 665 525 l 665 0 l 983 0 l 983 972 l 656 972 "},"I":{"ha":486,"x_min":79,"x_max":407,"o":"m 407 0 l 407 972 l 79 972 l 79 0 l 407 0 "},"Ĳ":{"ha":1013,"x_min":43,"x_max":942,"o":"m 456 -22 q 711 33 601 -22 q 881 193 821 88 q 942 451 942 299 l 942 972 l 614 972 l 614 433 l 614 433 q 572 285 614 332 q 440 239 531 239 l 440 239 q 306 262 379 239 q 163 328 232 285 l 43 96 l 43 96 q 225 10 119 42 q 456 -22 331 -22 l 456 -22 m 399 467 l 399 972 l 71 972 l 71 467 l 399 467 "},"Í":{"ha":486,"x_min":79,"x_max":579,"o":"m 407 0 l 407 972 l 79 972 l 79 0 l 407 0 m 306 1051 l 579 1274 l 281 1274 l 97 1051 l 306 1051 "},"Ĭ":{"ha":486,"x_min":-47,"x_max":533,"o":"m 407 0 l 407 972 l 79 972 l 79 0 l 407 0 m 243 1051 q 448 1115 368 1051 q 533 1288 528 1178 l 346 1288 l 346 1288 q 315 1226 343 1249 q 243 1203 286 1203 l 243 1203 q 172 1226 200 1203 q 140 1288 143 1249 l -47 1288 l -47 1288 q 38 1115 -42 1178 q 243 1051 118 1051 l 243 1051 "},"Ǐ":{"ha":486,"x_min":-68,"x_max":554,"o":"m 407 0 l 407 972 l 79 972 l 79 0 l 407 0 m 376 1051 l 554 1274 l 360 1274 l 163 1093 l 324 1093 l 126 1274 l -68 1274 l 110 1051 l 376 1051 "},"Î":{"ha":486,"x_min":-68,"x_max":554,"o":"m 407 0 l 407 972 l 79 972 l 79 0 l 407 0 m 126 1051 l 324 1232 l 163 1232 l 360 1051 l 554 1051 l 376 1274 l 110 1274 l -68 1051 l 126 1051 "},"Ȉ":{"ha":486,"x_min":-158,"x_max":510,"o":"m 407 0 l 407 972 l 79 972 l 79 0 l 407 0 m 510 1051 l 438 1274 l 167 1274 l 301 1051 l 510 1051 m 185 1051 l 113 1274 l -158 1274 l -24 1051 l 185 1051 "},"Ï":{"ha":486,"x_min":-36,"x_max":522,"o":"m 407 0 l 407 972 l 79 972 l 79 0 l 407 0 m 397 1040 q 486 1074 450 1040 q 522 1163 522 1107 l 522 1163 q 486 1252 522 1218 q 397 1286 450 1286 l 397 1286 q 308 1252 344 1286 q 272 1163 272 1218 l 272 1163 q 308 1074 272 1107 q 397 1040 344 1040 l 397 1040 m 89 1040 q 178 1074 142 1040 q 214 1163 214 1107 l 214 1163 q 178 1252 214 1218 q 89 1286 142 1286 l 89 1286 q 0 1252 36 1286 q -36 1163 -36 1218 l -36 1163 q 0 1074 -36 1107 q 89 1040 36 1040 l 89 1040 "},"Ḯ":{"ha":486,"x_min":-22,"x_max":538,"o":"m 407 0 l 407 972 l 79 972 l 79 0 l 407 0 m 390 1040 q 474 1072 440 1040 q 508 1156 508 1104 l 508 1156 q 474 1240 508 1208 q 390 1272 440 1272 l 390 1272 q 306 1240 340 1272 q 272 1156 272 1208 l 272 1156 q 306 1072 272 1104 q 390 1040 340 1040 l 390 1040 m 96 1040 q 180 1072 146 1040 q 214 1156 214 1104 l 214 1156 q 180 1240 214 1208 q 96 1272 146 1272 l 96 1272 q 12 1240 46 1272 q -22 1156 -22 1208 l -22 1156 q 12 1072 -22 1104 q 96 1040 46 1040 l 96 1040 m 306 1306 l 538 1486 l 239 1486 l 97 1306 l 306 1306 "},"İ":{"ha":486,"x_min":79,"x_max":407,"o":"m 407 0 l 407 972 l 79 972 l 79 0 l 407 0 m 243 1038 q 357 1082 313 1038 q 401 1196 401 1126 l 401 1196 q 357 1310 401 1265 q 243 1354 313 1354 l 243 1354 q 129 1310 174 1354 q 85 1196 85 1265 l 85 1196 q 129 1082 85 1126 q 243 1038 174 1038 l 243 1038 "},"Ị":{"ha":486,"x_min":79,"x_max":407,"o":"m 407 0 l 407 972 l 79 972 l 79 0 l 407 0 m 243 -365 q 357 -321 313 -365 q 401 -207 401 -276 l 401 -207 q 357 -93 401 -137 q 243 -49 313 -49 l 243 -49 q 129 -93 174 -49 q 85 -207 85 -137 l 85 -207 q 129 -321 85 -276 q 243 -365 174 -365 l 243 -365 "},"Ì":{"ha":486,"x_min":-93,"x_max":407,"o":"m 407 0 l 407 972 l 79 972 l 79 0 l 407 0 m 389 1051 l 206 1274 l -93 1274 l 181 1051 l 389 1051 "},"Ỉ":{"ha":486,"x_min":15,"x_max":407,"o":"m 407 0 l 407 972 l 79 972 l 79 0 l 407 0 m 247 1007 q 365 1094 329 1043 q 401 1196 401 1144 l 401 1196 q 376 1284 401 1243 q 304 1350 350 1325 q 199 1375 258 1375 l 199 1375 q 110 1360 157 1375 q 15 1314 64 1346 l 79 1197 l 79 1197 q 158 1225 119 1225 l 158 1225 q 201 1211 185 1225 q 217 1172 217 1197 l 217 1172 q 205 1135 217 1154 q 153 1097 193 1117 l 247 1007 l 247 1007 "},"Ȋ":{"ha":486,"x_min":-47,"x_max":533,"o":"m 407 0 l 407 972 l 79 972 l 79 0 l 407 0 m 140 1051 l 140 1051 q 172 1113 143 1090 q 243 1136 200 1136 l 243 1136 q 315 1113 286 1136 q 346 1051 343 1090 l 533 1051 l 533 1051 q 448 1224 528 1161 q 243 1288 368 1288 l 243 1288 q 38 1224 118 1288 q -47 1051 -42 1161 l 140 1051 "},"Ī":{"ha":486,"x_min":7,"x_max":479,"o":"m 407 0 l 407 972 l 79 972 l 79 0 l 407 0 m 479 1081 l 479 1244 l 7 1244 l 7 1081 l 479 1081 "},"Į":{"ha":486,"x_min":79,"x_max":442,"o":"m 407 0 l 407 972 l 79 972 l 79 0 l 407 0 m 324 -333 q 442 -301 394 -333 l 406 -176 l 406 -176 q 361 -192 386 -192 l 361 -192 q 324 -175 339 -192 q 308 -132 308 -158 l 308 -132 q 330 -65 308 -96 q 407 0 351 -35 l 324 71 l 324 71 q 177 -22 231 39 q 124 -160 124 -82 l 124 -160 q 178 -286 124 -239 q 324 -333 233 -333 l 324 -333 "},"Ɩ":{"ha":585,"x_min":69,"x_max":600,"o":"m 389 -21 q 494 -11 440 -21 q 600 17 549 -1 l 547 257 l 547 257 q 508 242 526 247 q 474 236 490 236 l 474 236 q 419 258 440 236 q 397 328 397 281 l 397 972 l 69 972 l 69 288 l 69 288 q 114 108 69 176 q 231 10 158 40 q 389 -21 304 -21 l 389 -21 l 389 -21 "},"Ɨ":{"ha":542,"x_min":10,"x_max":532,"o":"m 435 0 l 435 972 l 107 972 l 107 0 l 435 0 m 532 399 l 532 588 l 10 588 l 10 399 l 532 399 "},"Ĩ":{"ha":486,"x_min":-33,"x_max":519,"o":"m 407 0 l 407 972 l 79 972 l 79 0 l 407 0 m 344 1038 q 474 1103 431 1038 q 519 1274 518 1168 l 371 1274 l 371 1274 q 359 1227 369 1244 q 325 1210 349 1210 l 325 1210 q 288 1222 304 1210 q 253 1251 271 1235 q 208 1279 235 1267 q 142 1292 182 1292 l 142 1292 q 13 1226 56 1292 q -33 1051 -31 1161 l 115 1051 l 115 1051 q 128 1101 118 1083 q 161 1119 138 1119 l 161 1119 q 199 1107 182 1119 q 233 1078 215 1094 q 278 1050 251 1063 q 344 1038 304 1038 l 344 1038 "},"Ḭ":{"ha":511,"x_min":-22,"x_max":531,"o":"m 407 0 l 407 972 l 79 972 l 79 0 l 407 0 m 356 -315 q 485 -250 442 -315 q 531 -79 529 -185 l 382 -79 l 382 -79 q 370 -126 381 -108 q 336 -143 360 -143 l 336 -143 q 299 -131 315 -143 q 264 -102 282 -118 q 219 -74 246 -86 q 153 -61 193 -61 l 153 -61 q 24 -126 67 -61 q -22 -301 -19 -192 l 126 -301 l 126 -301 q 139 -251 129 -269 q 172 -233 149 -233 l 172 -233 q 210 -246 193 -233 q 244 -274 226 -258 q 289 -303 263 -290 q 356 -315 315 -315 l 356 -315 "},"J":{"ha":797,"x_min":-33,"x_max":726,"o":"m 325 -22 q 624 76 521 -22 q 726 375 726 175 l 726 972 l 72 972 l 72 725 l 403 725 l 403 356 l 403 356 q 297 235 403 235 l 297 235 q 219 259 257 235 q 143 331 182 283 l -33 122 l -33 122 q 119 15 28 51 q 325 -22 211 -22 l 325 -22 "},"Ĵ":{"ha":797,"x_min":-33,"x_max":726,"o":"m 325 -22 q 624 76 521 -22 q 726 375 726 175 l 726 972 l 72 972 l 72 725 l 403 725 l 403 356 l 403 356 q 297 235 403 235 l 297 235 q 219 259 257 235 q 143 331 182 283 l -33 122 l -33 122 q 119 15 28 51 q 325 -22 211 -22 l 325 -22 m 283 1051 l 481 1232 l 319 1232 l 517 1051 l 711 1051 l 533 1274 l 267 1274 l 89 1051 l 283 1051 "},"Ʝ":{"ha":825,"x_min":21,"x_max":825,"o":"m 336 -22 q 531 15 443 -22 q 673 127 619 51 q 726 319 726 203 l 726 972 l 72 972 l 72 725 l 403 725 l 403 254 l 403 254 q 393 208 403 226 q 366 180 383 189 q 325 171 349 171 l 325 171 q 293 176 307 171 q 272 192 279 182 q 265 214 265 201 l 265 214 q 273 238 265 226 q 299 258 281 250 q 347 265 317 265 l 825 265 l 825 444 l 319 444 l 319 444 q 149 410 215 444 q 52 324 83 376 q 21 213 21 271 l 21 213 q 53 100 21 154 q 156 12 86 46 q 336 -22 226 -22 l 336 -22 "},"Ɉ":{"ha":801,"x_min":-33,"x_max":824,"o":"m 325 -22 q 624 76 521 -22 q 726 375 726 175 l 726 972 l 72 972 l 72 725 l 403 725 l 403 356 l 403 356 q 297 235 403 235 l 297 235 q 219 259 257 235 q 143 331 182 283 l -33 122 l -33 122 q 119 15 28 51 q 325 -22 211 -22 l 325 -22 m 824 399 l 824 588 l 257 588 l 257 399 l 824 399 "},"K":{"ha":1063,"x_min":79,"x_max":1097,"o":"m 485 333 l 667 519 l 1078 972 l 721 972 l 354 568 l 372 208 l 485 333 m 401 0 l 401 972 l 79 972 l 79 0 l 401 0 m 1097 0 l 644 603 l 432 378 l 718 0 l 1097 0 "},"Ḱ":{"ha":1063,"x_min":79,"x_max":1097,"o":"m 485 333 l 667 519 l 1078 972 l 721 972 l 354 568 l 372 208 l 485 333 m 401 0 l 401 972 l 79 972 l 79 0 l 401 0 m 1097 0 l 644 603 l 432 378 l 718 0 l 1097 0 m 596 1051 l 869 1274 l 571 1274 l 388 1051 l 596 1051 "},"Ǩ":{"ha":1063,"x_min":79,"x_max":1097,"o":"m 485 333 l 667 519 l 1078 972 l 721 972 l 354 568 l 372 208 l 485 333 m 401 0 l 401 972 l 79 972 l 79 0 l 401 0 m 1097 0 l 644 603 l 432 378 l 718 0 l 1097 0 m 667 1051 l 844 1274 l 650 1274 l 453 1093 l 614 1093 l 417 1274 l 222 1274 l 400 1051 l 667 1051 "},"Ķ":{"ha":1063,"x_min":79,"x_max":1097,"o":"m 485 333 l 667 519 l 1078 972 l 721 972 l 354 568 l 372 208 l 485 333 m 401 0 l 401 972 l 79 972 l 79 0 l 401 0 m 1097 0 l 644 603 l 432 378 l 718 0 l 1097 0 m 569 -375 l 624 -285 l 624 -285 q 652 -220 646 -247 q 658 -174 658 -193 l 658 -174 q 625 -98 658 -126 q 533 -69 592 -69 l 533 -69 q 442 -98 475 -69 q 408 -174 408 -126 l 408 -174 q 440 -248 408 -221 q 533 -275 471 -275 l 499 -174 l 432 -375 l 569 -375 "},"Ḳ":{"ha":1063,"x_min":79,"x_max":1097,"o":"m 485 333 l 667 519 l 1078 972 l 721 972 l 354 568 l 372 208 l 485 333 m 401 0 l 401 972 l 79 972 l 79 0 l 401 0 m 1097 0 l 644 603 l 432 378 l 718 0 l 1097 0 m 533 -365 q 647 -321 603 -365 q 692 -207 692 -276 l 692 -207 q 647 -93 692 -137 q 533 -49 603 -49 l 533 -49 q 419 -93 464 -49 q 375 -207 375 -137 l 375 -207 q 419 -321 375 -276 q 533 -365 464 -365 l 533 -365 "},"Ƙ":{"ha":1069,"x_min":79,"x_max":1114,"o":"m 864 744 l 864 744 q 919 778 892 772 q 976 754 947 783 l 1114 956 l 1114 956 q 988 1036 1060 1014 q 832 1030 917 1058 q 651 903 747 1001 l 332 574 l 353 215 l 864 744 m 401 0 l 401 972 l 79 972 l 79 0 l 401 0 m 1097 0 l 644 603 l 432 378 l 718 0 l 1097 0 "},"Ḵ":{"ha":1063,"x_min":79,"x_max":1097,"o":"m 485 333 l 667 519 l 1078 972 l 721 972 l 354 568 l 372 208 l 485 333 m 401 0 l 401 972 l 79 972 l 79 0 l 401 0 m 1097 0 l 644 603 l 432 378 l 718 0 l 1097 0 m 825 -268 l 825 -104 l 242 -104 l 242 -268 l 825 -268 "},"Ꝁ":{"ha":1063,"x_min":15,"x_max":1131,"o":"m 1111 972 l 761 972 l 388 513 l 388 128 l 1111 972 m 435 0 l 435 972 l 113 972 l 113 0 l 435 0 m 1131 0 l 678 603 l 471 378 l 751 0 l 1131 0 m 560 753 l 560 906 l 15 906 l 15 753 l 560 753 "},"L":{"ha":857,"x_min":79,"x_max":846,"o":"m 846 0 l 846 254 l 407 254 l 407 972 l 79 972 l 79 0 l 846 0 "},"Ǉ":{"ha":1689,"x_min":79,"x_max":1618,"o":"m 846 0 l 846 254 l 407 254 l 407 972 l 79 972 l 79 0 l 846 0 m 1217 -22 q 1515 76 1413 -22 q 1618 375 1618 175 l 1618 972 l 964 972 l 964 725 l 1294 725 l 1294 356 l 1294 356 q 1189 235 1294 235 l 1189 235 q 1111 259 1149 235 q 1035 331 1074 283 l 858 122 l 858 122 q 1011 15 919 51 q 1217 -22 1103 -22 l 1217 -22 "},"Ĺ":{"ha":857,"x_min":79,"x_max":846,"o":"m 846 0 l 846 254 l 407 254 l 407 972 l 79 972 l 79 0 l 846 0 m 306 1051 l 579 1274 l 281 1274 l 97 1051 l 306 1051 "},"Ƚ":{"ha":872,"x_min":-3,"x_max":861,"o":"m 861 0 l 861 254 l 422 254 l 422 972 l 94 972 l 94 0 l 861 0 m 568 399 l 568 588 l -3 588 l -3 399 l 568 399 "},"Ɬ":{"ha":1042,"x_min":-33,"x_max":1031,"o":"m 1031 0 l 1031 254 l 592 254 l 592 972 l 264 972 l 264 0 l 1031 0 m 828 426 l 825 625 l 226 625 l 226 625 q 163 642 183 625 q 143 679 143 658 l 143 679 q 156 710 143 697 q 188 722 169 722 l 188 722 q 235 700 211 722 q 264 625 258 678 l 367 625 l 367 625 q 348 756 367 700 q 288 842 329 811 q 179 874 247 874 l 179 874 q 61 841 108 874 q -10 758 14 808 q -33 654 -33 708 l -33 654 q -6 545 -33 597 q 78 460 21 493 q 226 426 136 426 l 828 426 "},"Ľ":{"ha":857,"x_min":79,"x_max":846,"o":"m 846 0 l 846 254 l 407 254 l 407 972 l 79 972 l 79 0 l 846 0 m 765 750 l 807 1042 l 588 1042 l 588 750 l 765 750 "},"Ḽ":{"ha":857,"x_min":79,"x_max":846,"o":"m 846 0 l 846 254 l 407 254 l 407 972 l 79 972 l 79 0 l 846 0 m 346 -299 l 543 -118 l 382 -118 l 579 -299 l 774 -299 l 596 -76 l 329 -76 l 151 -299 l 346 -299 "},"Ļ":{"ha":857,"x_min":79,"x_max":846,"o":"m 846 0 l 846 254 l 407 254 l 407 972 l 79 972 l 79 0 l 846 0 m 499 -375 l 553 -285 l 553 -285 q 581 -220 575 -247 q 588 -174 588 -193 l 588 -174 q 554 -98 588 -126 q 463 -69 521 -69 l 463 -69 q 371 -98 404 -69 q 338 -174 338 -126 l 338 -174 q 369 -248 338 -221 q 463 -275 400 -275 l 428 -174 l 361 -375 l 499 -375 "},"Ŀ":{"ha":857,"x_min":79,"x_max":846,"o":"m 846 0 l 846 254 l 407 254 l 407 972 l 79 972 l 79 0 l 846 0 m 686 446 q 800 490 756 446 q 844 604 844 535 l 844 604 q 800 718 844 674 q 686 763 756 763 l 686 763 q 572 718 617 763 q 528 604 528 674 l 528 604 q 572 490 528 535 q 686 446 617 446 l 686 446 "},"Ḷ":{"ha":857,"x_min":79,"x_max":846,"o":"m 846 0 l 846 254 l 407 254 l 407 972 l 79 972 l 79 0 l 846 0 m 463 -365 q 576 -321 532 -365 q 621 -207 621 -276 l 621 -207 q 576 -93 621 -137 q 463 -49 532 -49 l 463 -49 q 349 -93 393 -49 q 304 -207 304 -137 l 304 -207 q 349 -321 304 -276 q 463 -365 393 -365 l 463 -365 "},"Ḹ":{"ha":857,"x_min":-49,"x_max":846,"o":"m 846 0 l 846 254 l 407 254 l 407 972 l 79 972 l 79 0 l 846 0 m 463 -365 q 576 -321 532 -365 q 621 -207 621 -276 l 621 -207 q 576 -93 621 -137 q 463 -49 532 -49 l 463 -49 q 349 -93 393 -49 q 304 -207 304 -137 l 304 -207 q 349 -321 304 -276 q 463 -365 393 -365 l 463 -365 m 535 1081 l 535 1244 l -49 1244 l -49 1081 l 535 1081 "},"Ⱡ":{"ha":914,"x_min":39,"x_max":903,"o":"m 903 0 l 903 254 l 464 254 l 464 972 l 136 972 l 136 0 l 903 0 m 610 342 l 610 531 l 39 531 l 39 342 l 610 342 m 610 565 l 610 754 l 39 754 l 39 565 l 610 565 "},"ǈ":{"ha":1321,"x_min":79,"x_max":1283,"o":"m 846 0 l 846 254 l 407 254 l 407 972 l 79 972 l 79 0 l 846 0 m 919 -283 q 1164 -196 1076 -283 q 1251 39 1251 -108 l 1251 760 l 938 760 l 938 42 l 938 42 q 919 -25 938 -4 q 872 -46 900 -46 l 872 -46 q 801 -28 835 -46 l 726 -246 l 726 -246 q 813 -274 763 -264 q 919 -283 864 -283 l 919 -283 m 1094 821 q 1232 867 1181 821 q 1283 986 1283 914 l 1283 986 q 1232 1097 1283 1054 q 1094 1140 1181 1140 l 1094 1140 q 957 1094 1008 1140 q 906 981 906 1049 l 906 981 q 957 867 906 913 q 1094 821 1008 821 l 1094 821 "},"Ḻ":{"ha":857,"x_min":79,"x_max":846,"o":"m 846 0 l 846 254 l 407 254 l 407 972 l 79 972 l 79 0 l 846 0 m 754 -268 l 754 -104 l 171 -104 l 171 -268 l 754 -268 "},"Ɫ":{"ha":985,"x_min":-21,"x_max":974,"o":"m 974 0 l 974 254 l 535 254 l 535 972 l 207 972 l 207 0 l 974 0 m 575 436 q 717 502 668 436 q 768 672 767 568 l 619 672 l 619 672 q 602 625 618 642 q 560 608 586 608 l 560 608 q 489 621 536 608 q 384 649 442 633 q 270 678 326 665 q 172 690 214 690 l 172 690 q 31 624 79 690 q -21 450 -18 557 l 128 450 l 128 450 q 146 500 131 482 q 188 518 161 518 l 188 518 q 258 506 211 518 q 363 477 306 493 q 477 449 421 461 q 575 436 533 436 l 575 436 "},"Ł":{"ha":885,"x_min":-50,"x_max":874,"o":"m 874 0 l 874 254 l 435 254 l 435 972 l 107 972 l 107 0 l 874 0 m 665 707 l 568 846 l -50 388 l 47 249 l 665 707 "},"M":{"ha":1325,"x_min":79,"x_max":1246,"o":"m 378 0 l 378 522 l 319 522 l 589 88 l 733 88 l 992 522 l 944 522 l 947 0 l 1246 0 l 1243 972 l 974 972 l 596 338 l 738 338 l 349 972 l 79 972 l 79 0 l 378 0 "},"Ḿ":{"ha":1325,"x_min":79,"x_max":1246,"o":"m 378 0 l 378 522 l 319 522 l 589 88 l 733 88 l 992 522 l 944 522 l 947 0 l 1246 0 l 1243 972 l 974 972 l 596 338 l 738 338 l 349 972 l 79 972 l 79 0 l 378 0 m 724 1051 l 997 1274 l 699 1274 l 515 1051 l 724 1051 "},"Ṁ":{"ha":1325,"x_min":79,"x_max":1246,"o":"m 378 0 l 378 522 l 319 522 l 589 88 l 733 88 l 992 522 l 944 522 l 947 0 l 1246 0 l 1243 972 l 974 972 l 596 338 l 738 338 l 349 972 l 79 972 l 79 0 l 378 0 m 661 1038 q 775 1082 731 1038 q 819 1196 819 1126 l 819 1196 q 775 1310 819 1265 q 661 1354 731 1354 l 661 1354 q 547 1310 592 1354 q 503 1196 503 1265 l 503 1196 q 547 1082 503 1126 q 661 1038 592 1038 l 661 1038 "},"Ṃ":{"ha":1325,"x_min":79,"x_max":1246,"o":"m 378 0 l 378 522 l 319 522 l 589 88 l 733 88 l 992 522 l 944 522 l 947 0 l 1246 0 l 1243 972 l 974 972 l 596 338 l 738 338 l 349 972 l 79 972 l 79 0 l 378 0 m 661 -365 q 775 -321 731 -365 q 819 -207 819 -276 l 819 -207 q 775 -93 819 -137 q 661 -49 731 -49 l 661 -49 q 547 -93 592 -49 q 503 -207 503 -137 l 503 -207 q 547 -321 503 -276 q 661 -365 592 -365 l 661 -365 "},"Ɱ":{"ha":1338,"x_min":92,"x_max":1258,"o":"m 749 -246 q 881 -285 811 -276 q 1019 -278 951 -293 q 1140 -225 1086 -264 q 1226 -123 1194 -186 q 1258 31 1258 -60 l 1256 972 l 986 972 l 608 338 l 750 338 l 361 972 l 92 972 l 92 0 l 390 0 l 390 522 l 332 522 l 601 88 l 746 88 l 1004 522 l 960 522 l 960 31 l 960 31 q 949 -14 960 4 q 919 -39 938 -32 q 876 -43 900 -46 q 824 -28 851 -40 l 749 -246 l 749 -246 "},"Ɯ":{"ha":1683,"x_min":71,"x_max":1604,"o":"m 1276 972 l 1276 403 l 1276 403 q 1260 313 1276 349 q 1213 260 1243 278 q 1142 243 1182 243 l 1142 243 q 1047 281 1082 243 q 1013 392 1013 318 l 1013 972 l 685 972 l 685 403 l 685 403 q 644 283 685 322 q 539 243 604 243 l 539 243 q 437 281 475 243 q 399 392 399 318 l 399 972 l 71 972 l 71 382 l 71 382 q 169 81 71 185 q 439 -22 267 -22 l 439 -22 q 656 32 563 -22 q 796 196 750 86 l 696 207 l 696 207 q 815 35 732 93 q 1019 -22 897 -22 l 1019 -22 q 1219 32 1139 -22 q 1335 188 1300 86 l 1288 244 l 1288 0 l 1604 0 l 1604 972 l 1276 972 "},"N":{"ha":1117,"x_min":79,"x_max":1038,"o":"m 399 0 l 399 592 l 274 592 l 768 0 l 1038 0 l 1038 972 l 718 972 l 718 381 l 843 381 l 349 972 l 79 972 l 79 0 l 399 0 "},"Ǌ":{"ha":1914,"x_min":79,"x_max":1843,"o":"m 399 0 l 399 592 l 274 592 l 768 0 l 1038 0 l 1038 972 l 718 972 l 718 381 l 843 381 l 349 972 l 79 972 l 79 0 l 399 0 m 1442 -22 q 1740 76 1638 -22 q 1843 375 1843 175 l 1843 972 l 1189 972 l 1189 725 l 1519 725 l 1519 356 l 1519 356 q 1414 235 1519 235 l 1414 235 q 1336 259 1374 235 q 1260 331 1299 283 l 1083 122 l 1083 122 q 1236 15 1144 51 q 1442 -22 1328 -22 l 1442 -22 "},"Ń":{"ha":1117,"x_min":79,"x_max":1038,"o":"m 399 0 l 399 592 l 274 592 l 768 0 l 1038 0 l 1038 972 l 718 972 l 718 381 l 843 381 l 349 972 l 79 972 l 79 0 l 399 0 m 621 1051 l 894 1274 l 596 1274 l 413 1051 l 621 1051 "},"Ň":{"ha":1117,"x_min":79,"x_max":1038,"o":"m 399 0 l 399 592 l 274 592 l 768 0 l 1038 0 l 1038 972 l 718 972 l 718 381 l 843 381 l 349 972 l 79 972 l 79 0 l 399 0 m 692 1051 l 869 1274 l 675 1274 l 478 1093 l 639 1093 l 442 1274 l 247 1274 l 425 1051 l 692 1051 "},"Ṋ":{"ha":1117,"x_min":79,"x_max":1038,"o":"m 399 0 l 399 592 l 274 592 l 768 0 l 1038 0 l 1038 972 l 718 972 l 718 381 l 843 381 l 349 972 l 79 972 l 79 0 l 399 0 m 440 -293 l 638 -112 l 476 -112 l 674 -293 l 868 -293 l 690 -71 l 424 -71 l 246 -293 l 440 -293 "},"Ņ":{"ha":1117,"x_min":79,"x_max":1038,"o":"m 399 0 l 399 592 l 274 592 l 768 0 l 1038 0 l 1038 972 l 718 972 l 718 381 l 843 381 l 349 972 l 79 972 l 79 0 l 399 0 m 594 -375 l 649 -285 l 649 -285 q 677 -220 671 -247 q 683 -174 683 -193 l 683 -174 q 650 -98 683 -126 q 558 -69 617 -69 l 558 -69 q 467 -98 500 -69 q 433 -174 433 -126 l 433 -174 q 465 -248 433 -221 q 558 -275 496 -275 l 524 -174 l 457 -375 l 594 -375 "},"Ṅ":{"ha":1117,"x_min":79,"x_max":1038,"o":"m 399 0 l 399 592 l 274 592 l 768 0 l 1038 0 l 1038 972 l 718 972 l 718 381 l 843 381 l 349 972 l 79 972 l 79 0 l 399 0 m 558 1038 q 672 1082 628 1038 q 717 1196 717 1126 l 717 1196 q 672 1310 717 1265 q 558 1354 628 1354 l 558 1354 q 444 1310 489 1354 q 400 1196 400 1265 l 400 1196 q 444 1082 400 1126 q 558 1038 489 1038 l 558 1038 "},"Ṇ":{"ha":1117,"x_min":79,"x_max":1038,"o":"m 399 0 l 399 592 l 274 592 l 768 0 l 1038 0 l 1038 972 l 718 972 l 718 381 l 843 381 l 349 972 l 79 972 l 79 0 l 399 0 m 558 -365 q 672 -321 628 -365 q 717 -207 717 -276 l 717 -207 q 672 -93 717 -137 q 558 -49 628 -49 l 558 -49 q 444 -93 489 -49 q 400 -207 400 -137 l 400 -207 q 444 -321 400 -276 q 558 -365 489 -365 l 558 -365 "},"Ǹ":{"ha":1117,"x_min":79,"x_max":1038,"o":"m 399 0 l 399 592 l 274 592 l 768 0 l 1038 0 l 1038 972 l 718 972 l 718 381 l 843 381 l 349 972 l 79 972 l 79 0 l 399 0 m 704 1051 l 521 1274 l 222 1274 l 496 1051 l 704 1051 "},"Ɲ":{"ha":1114,"x_min":-103,"x_max":1043,"o":"m -103 -250 q 74 -287 -17 -285 q 244 -256 165 -289 q 370 -151 322 -222 q 418 31 418 -79 l 418 542 l 418 542 q 463 684 418 639 q 571 729 507 729 l 571 729 q 676 687 636 729 q 715 553 715 644 l 715 0 l 1043 0 l 1043 563 l 1043 563 q 948 883 1043 771 q 681 994 853 994 l 681 994 q 483 938 564 994 q 358 782 401 882 l 408 721 l 408 972 l 90 972 l 90 31 l 90 31 q 74 -22 90 -3 q 31 -43 58 -40 q -29 -35 4 -46 l -103 -250 l -103 -250 "},"ǋ":{"ha":1608,"x_min":79,"x_max":1571,"o":"m 399 0 l 399 592 l 274 592 l 768 0 l 1038 0 l 1038 972 l 718 972 l 718 381 l 843 381 l 349 972 l 79 972 l 79 0 l 399 0 m 1207 -283 q 1451 -196 1364 -283 q 1539 39 1539 -108 l 1539 760 l 1225 760 l 1225 42 l 1225 42 q 1206 -25 1225 -4 q 1160 -46 1188 -46 l 1160 -46 q 1089 -28 1122 -46 l 1014 -246 l 1014 -246 q 1101 -274 1050 -264 q 1207 -283 1151 -283 l 1207 -283 m 1382 821 q 1519 867 1468 821 q 1571 986 1571 914 l 1571 986 q 1519 1097 1571 1054 q 1382 1140 1468 1140 l 1382 1140 q 1244 1094 1296 1140 q 1193 981 1193 1049 l 1193 981 q 1244 867 1193 913 q 1382 821 1296 821 l 1382 821 "},"Ṉ":{"ha":1117,"x_min":79,"x_max":1038,"o":"m 399 0 l 399 592 l 274 592 l 768 0 l 1038 0 l 1038 972 l 718 972 l 718 381 l 843 381 l 349 972 l 79 972 l 79 0 l 399 0 m 850 -268 l 850 -104 l 267 -104 l 267 -268 l 850 -268 "},"Ƞ":{"ha":1119,"x_min":92,"x_max":1044,"o":"m 1044 -269 l 1044 563 l 1044 563 q 949 883 1044 771 q 682 994 854 994 l 682 994 q 484 938 565 994 q 360 782 403 882 l 410 721 l 410 972 l 92 972 l 92 0 l 419 0 l 419 542 l 419 542 q 464 684 419 639 q 572 729 508 729 l 572 729 q 677 687 638 729 q 717 553 717 644 l 717 -269 l 1044 -269 "},"Ñ":{"ha":1117,"x_min":79,"x_max":1038,"o":"m 399 0 l 399 592 l 274 592 l 768 0 l 1038 0 l 1038 972 l 718 972 l 718 381 l 843 381 l 349 972 l 79 972 l 79 0 l 399 0 m 671 1038 q 810 1103 760 1038 q 863 1274 861 1168 l 714 1274 l 714 1274 q 696 1227 713 1244 q 651 1210 679 1210 l 651 1210 q 613 1222 633 1210 q 569 1251 593 1235 q 515 1279 544 1267 q 446 1292 485 1292 l 446 1292 q 307 1226 357 1292 q 254 1051 257 1161 l 403 1051 l 403 1051 q 422 1101 406 1083 q 465 1119 439 1119 l 465 1119 q 504 1107 485 1119 q 548 1078 524 1094 q 602 1050 572 1063 q 671 1038 632 1038 l 671 1038 "},"Ŋ":{"ha":1117,"x_min":79,"x_max":1038,"o":"m 399 0 l 399 592 l 274 592 l 768 0 l 843 381 l 349 972 l 79 972 l 79 0 l 399 0 m 650 -285 q 791 -265 722 -285 q 915 -198 860 -244 q 1004 -74 971 -151 q 1038 117 1038 3 l 1038 972 l 718 972 l 718 93 l 718 93 q 689 1 718 32 q 617 -29 660 -29 l 617 -29 q 568 -20 594 -29 q 517 7 542 -11 l 371 -208 l 371 -208 q 494 -264 419 -243 q 650 -285 569 -285 l 650 -285 "},"O":{"ha":1178,"x_min":40,"x_max":1138,"o":"m 590 -22 q 808 15 708 -22 q 982 122 908 53 q 1097 283 1056 190 q 1138 486 1138 376 l 1138 486 q 1097 690 1138 597 q 982 851 1056 782 q 808 957 908 919 q 589 994 708 994 l 589 994 q 370 957 471 994 q 196 851 269 919 q 81 690 122 782 q 40 486 40 597 l 40 486 q 81 283 40 376 q 196 122 122 190 q 370 15 269 53 q 590 -22 471 -22 l 590 -22 m 589 243 q 503 260 543 243 q 434 308 464 276 q 388 384 404 339 q 371 486 371 429 l 371 486 q 388 588 371 543 q 434 665 404 633 q 503 713 464 696 q 589 729 543 729 l 589 729 q 674 713 635 729 q 744 665 714 696 q 790 588 774 633 q 807 486 807 543 l 807 486 q 790 384 807 429 q 744 308 774 339 q 674 260 714 276 q 589 243 635 243 l 589 243 "},"Ȣ":{"ha":1075,"x_min":28,"x_max":1047,"o":"m 538 -15 q 807 25 693 -15 q 984 141 921 65 q 1047 319 1047 217 l 1047 319 q 984 499 1047 422 q 807 619 921 576 q 538 661 693 661 l 538 661 q 269 619 383 661 q 91 499 154 576 q 28 319 28 422 l 28 319 q 91 141 28 217 q 269 25 154 65 q 538 -15 383 -15 l 538 -15 m 538 214 q 433 229 476 214 q 366 273 389 244 q 343 342 343 301 l 343 342 q 366 408 343 381 q 433 449 389 435 q 538 464 476 464 l 538 464 q 681 432 629 464 q 732 342 732 400 l 732 342 q 681 248 732 282 q 538 214 629 214 l 538 214 m 538 472 q 787 508 682 472 q 949 615 892 544 q 1006 788 1006 686 l 1006 972 l 683 972 l 683 789 l 683 789 q 644 702 683 732 q 538 672 606 672 l 538 672 q 431 702 469 672 q 392 789 392 732 l 392 972 l 69 972 l 69 788 l 69 788 q 126 615 69 686 q 289 508 183 544 q 538 472 394 472 l 538 472 "},"Ó":{"ha":1178,"x_min":40,"x_max":1138,"o":"m 590 -22 q 808 15 708 -22 q 982 122 908 53 q 1097 283 1056 190 q 1138 486 1138 376 l 1138 486 q 1097 690 1138 597 q 982 851 1056 782 q 808 957 908 919 q 589 994 708 994 l 589 994 q 370 957 471 994 q 196 851 269 919 q 81 690 122 782 q 40 486 40 597 l 40 486 q 81 283 40 376 q 196 122 122 190 q 370 15 269 53 q 590 -22 471 -22 l 590 -22 m 589 243 q 503 260 543 243 q 434 308 464 276 q 388 384 404 339 q 371 486 371 429 l 371 486 q 388 588 371 543 q 434 665 404 633 q 503 713 464 696 q 589 729 543 729 l 589 729 q 674 713 635 729 q 744 665 714 696 q 790 588 774 633 q 807 486 807 543 l 807 486 q 790 384 807 429 q 744 308 774 339 q 674 260 714 276 q 589 243 635 243 l 589 243 m 651 1051 l 925 1274 l 626 1274 l 443 1051 l 651 1051 "},"Ŏ":{"ha":1178,"x_min":40,"x_max":1138,"o":"m 590 -22 q 808 15 708 -22 q 982 122 908 53 q 1097 283 1056 190 q 1138 486 1138 376 l 1138 486 q 1097 690 1138 597 q 982 851 1056 782 q 808 957 908 919 q 589 994 708 994 l 589 994 q 370 957 471 994 q 196 851 269 919 q 81 690 122 782 q 40 486 40 597 l 40 486 q 81 283 40 376 q 196 122 122 190 q 370 15 269 53 q 590 -22 471 -22 l 590 -22 m 589 243 q 503 260 543 243 q 434 308 464 276 q 388 384 404 339 q 371 486 371 429 l 371 486 q 388 588 371 543 q 434 665 404 633 q 503 713 464 696 q 589 729 543 729 l 589 729 q 674 713 635 729 q 744 665 714 696 q 790 588 774 633 q 807 486 807 543 l 807 486 q 790 384 807 429 q 744 308 774 339 q 674 260 714 276 q 589 243 635 243 l 589 243 m 589 1051 q 794 1115 714 1051 q 879 1288 874 1178 l 692 1288 l 692 1288 q 660 1226 689 1249 q 589 1203 632 1203 l 589 1203 q 517 1226 546 1203 q 486 1288 489 1249 l 299 1288 l 299 1288 q 384 1115 304 1178 q 589 1051 464 1051 l 589 1051 "},"Ǒ":{"ha":1178,"x_min":40,"x_max":1138,"o":"m 590 -22 q 808 15 708 -22 q 982 122 908 53 q 1097 283 1056 190 q 1138 486 1138 376 l 1138 486 q 1097 690 1138 597 q 982 851 1056 782 q 808 957 908 919 q 589 994 708 994 l 589 994 q 370 957 471 994 q 196 851 269 919 q 81 690 122 782 q 40 486 40 597 l 40 486 q 81 283 40 376 q 196 122 122 190 q 370 15 269 53 q 590 -22 471 -22 l 590 -22 m 589 243 q 503 260 543 243 q 434 308 464 276 q 388 384 404 339 q 371 486 371 429 l 371 486 q 388 588 371 543 q 434 665 404 633 q 503 713 464 696 q 589 729 543 729 l 589 729 q 674 713 635 729 q 744 665 714 696 q 790 588 774 633 q 807 486 807 543 l 807 486 q 790 384 807 429 q 744 308 774 339 q 674 260 714 276 q 589 243 635 243 l 589 243 m 722 1051 l 900 1274 l 706 1274 l 508 1093 l 669 1093 l 472 1274 l 278 1274 l 456 1051 l 722 1051 "},"Ɵ":{"ha":1161,"x_min":32,"x_max":1129,"o":"m 581 -22 q 800 15 700 -22 q 974 122 900 53 q 1088 283 1047 190 q 1129 486 1129 376 l 1129 486 q 1088 690 1129 597 q 974 851 1047 782 q 800 957 900 919 q 581 994 700 994 l 581 994 q 362 957 463 994 q 188 851 261 919 q 73 690 114 782 q 32 486 32 597 l 32 486 q 73 283 32 376 q 188 122 114 190 q 362 15 261 53 q 581 -22 463 -22 l 581 -22 m 581 243 q 514 253 546 243 q 456 283 482 263 q 408 332 429 303 q 375 399 388 361 l 788 399 l 788 399 q 753 332 774 361 q 706 283 732 303 q 647 253 679 263 q 581 243 615 243 l 581 243 m 379 588 q 410 646 390 619 q 456 691 429 672 q 514 719 482 710 q 581 729 546 729 l 581 729 q 647 719 615 729 q 706 691 679 710 q 752 646 732 672 q 782 588 772 619 l 379 588 l 379 588 "},"Ô":{"ha":1178,"x_min":40,"x_max":1138,"o":"m 590 -22 q 808 15 708 -22 q 982 122 908 53 q 1097 283 1056 190 q 1138 486 1138 376 l 1138 486 q 1097 690 1138 597 q 982 851 1056 782 q 808 957 908 919 q 589 994 708 994 l 589 994 q 370 957 471 994 q 196 851 269 919 q 81 690 122 782 q 40 486 40 597 l 40 486 q 81 283 40 376 q 196 122 122 190 q 370 15 269 53 q 590 -22 471 -22 l 590 -22 m 589 243 q 503 260 543 243 q 434 308 464 276 q 388 384 404 339 q 371 486 371 429 l 371 486 q 388 588 371 543 q 434 665 404 633 q 503 713 464 696 q 589 729 543 729 l 589 729 q 674 713 635 729 q 744 665 714 696 q 790 588 774 633 q 807 486 807 543 l 807 486 q 790 384 807 429 q 744 308 774 339 q 674 260 714 276 q 589 243 635 243 l 589 243 m 472 1051 l 669 1232 l 508 1232 l 706 1051 l 900 1051 l 722 1274 l 456 1274 l 278 1051 l 472 1051 "},"Ố":{"ha":1178,"x_min":40,"x_max":1231,"o":"m 590 -22 q 808 15 708 -22 q 982 122 908 53 q 1097 283 1056 190 q 1138 486 1138 376 l 1138 486 q 1097 690 1138 597 q 982 851 1056 782 q 808 957 908 919 q 589 994 708 994 l 589 994 q 370 957 471 994 q 196 851 269 919 q 81 690 122 782 q 40 486 40 597 l 40 486 q 81 283 40 376 q 196 122 122 190 q 370 15 269 53 q 590 -22 471 -22 l 590 -22 m 589 243 q 503 260 543 243 q 434 308 464 276 q 388 384 404 339 q 371 486 371 429 l 371 486 q 388 588 371 543 q 434 665 404 633 q 503 713 464 696 q 589 729 543 729 l 589 729 q 674 713 635 729 q 744 665 714 696 q 790 588 774 633 q 807 486 807 543 l 807 486 q 790 384 807 429 q 744 308 774 339 q 674 260 714 276 q 589 243 635 243 l 589 243 m 472 1051 l 664 1190 l 514 1190 l 706 1051 l 900 1051 l 721 1232 l 457 1232 l 278 1051 l 472 1051 m 999 1197 l 1231 1378 l 932 1378 l 790 1197 l 999 1197 "},"Ộ":{"ha":1178,"x_min":40,"x_max":1138,"o":"m 590 -22 q 808 15 708 -22 q 982 122 908 53 q 1097 283 1056 190 q 1138 486 1138 376 l 1138 486 q 1097 690 1138 597 q 982 851 1056 782 q 808 957 908 919 q 589 994 708 994 l 589 994 q 370 957 471 994 q 196 851 269 919 q 81 690 122 782 q 40 486 40 597 l 40 486 q 81 283 40 376 q 196 122 122 190 q 370 15 269 53 q 590 -22 471 -22 l 590 -22 m 589 243 q 503 260 543 243 q 434 308 464 276 q 388 384 404 339 q 371 486 371 429 l 371 486 q 388 588 371 543 q 434 665 404 633 q 503 713 464 696 q 589 729 543 729 l 589 729 q 674 713 635 729 q 744 665 714 696 q 790 588 774 633 q 807 486 807 543 l 807 486 q 790 384 807 429 q 744 308 774 339 q 674 260 714 276 q 589 243 635 243 l 589 243 m 589 -365 q 703 -321 658 -365 q 747 -207 747 -276 l 747 -207 q 703 -93 747 -137 q 589 -49 658 -49 l 589 -49 q 475 -93 519 -49 q 431 -207 431 -137 l 431 -207 q 475 -321 431 -276 q 589 -365 519 -365 l 589 -365 m 472 1051 l 669 1232 l 508 1232 l 706 1051 l 900 1051 l 722 1274 l 456 1274 l 278 1051 l 472 1051 "},"Ồ":{"ha":1178,"x_min":40,"x_max":1138,"o":"m 590 -22 q 808 15 708 -22 q 982 122 908 53 q 1097 283 1056 190 q 1138 486 1138 376 l 1138 486 q 1097 690 1138 597 q 982 851 1056 782 q 808 957 908 919 q 589 994 708 994 l 589 994 q 370 957 471 994 q 196 851 269 919 q 81 690 122 782 q 40 486 40 597 l 40 486 q 81 283 40 376 q 196 122 122 190 q 370 15 269 53 q 590 -22 471 -22 l 590 -22 m 589 243 q 503 260 543 243 q 434 308 464 276 q 388 384 404 339 q 371 486 371 429 l 371 486 q 388 588 371 543 q 434 665 404 633 q 503 713 464 696 q 589 729 543 729 l 589 729 q 674 713 635 729 q 744 665 714 696 q 790 588 774 633 q 807 486 807 543 l 807 486 q 790 384 807 429 q 744 308 774 339 q 674 260 714 276 q 589 243 635 243 l 589 243 m 472 1051 l 664 1190 l 514 1190 l 706 1051 l 900 1051 l 721 1232 l 457 1232 l 278 1051 l 472 1051 m 1082 1197 l 940 1378 l 642 1378 l 874 1197 l 1082 1197 "},"Ổ":{"ha":1178,"x_min":40,"x_max":1138,"o":"m 590 -22 q 808 15 708 -22 q 982 122 908 53 q 1097 283 1056 190 q 1138 486 1138 376 l 1138 486 q 1097 690 1138 597 q 982 851 1056 782 q 808 957 908 919 q 589 994 708 994 l 589 994 q 370 957 471 994 q 196 851 269 919 q 81 690 122 782 q 40 486 40 597 l 40 486 q 81 283 40 376 q 196 122 122 190 q 370 15 269 53 q 590 -22 471 -22 l 590 -22 m 589 243 q 503 260 543 243 q 434 308 464 276 q 388 384 404 339 q 371 486 371 429 l 371 486 q 388 588 371 543 q 434 665 404 633 q 503 713 464 696 q 589 729 543 729 l 589 729 q 674 713 635 729 q 744 665 714 696 q 790 588 774 633 q 807 486 807 543 l 807 486 q 790 384 807 429 q 744 308 774 339 q 674 260 714 276 q 589 243 635 243 l 589 243 m 472 1051 l 664 1190 l 514 1190 l 706 1051 l 900 1051 l 721 1232 l 457 1232 l 278 1051 l 472 1051 m 888 1169 q 965 1219 932 1186 q 997 1299 997 1253 l 997 1299 q 956 1388 997 1356 q 849 1421 915 1421 l 849 1421 q 774 1413 810 1421 q 711 1386 739 1404 l 758 1301 l 758 1301 q 822 1318 792 1318 l 822 1318 q 851 1308 840 1318 q 863 1283 863 1299 l 863 1283 q 853 1260 863 1274 q 815 1232 843 1247 l 888 1169 l 888 1169 "},"Ỗ":{"ha":1178,"x_min":40,"x_max":1138,"o":"m 590 -22 q 808 15 708 -22 q 982 122 908 53 q 1097 283 1056 190 q 1138 486 1138 376 l 1138 486 q 1097 690 1138 597 q 982 851 1056 782 q 808 957 908 919 q 589 994 708 994 l 589 994 q 370 957 471 994 q 196 851 269 919 q 81 690 122 782 q 40 486 40 597 l 40 486 q 81 283 40 376 q 196 122 122 190 q 370 15 269 53 q 590 -22 471 -22 l 590 -22 m 589 243 q 503 260 543 243 q 434 308 464 276 q 388 384 404 339 q 371 486 371 429 l 371 486 q 388 588 371 543 q 434 665 404 633 q 503 713 464 696 q 589 729 543 729 l 589 729 q 674 713 635 729 q 744 665 714 696 q 790 588 774 633 q 807 486 807 543 l 807 486 q 790 384 807 429 q 744 308 774 339 q 674 260 714 276 q 589 243 635 243 l 589 243 m 472 1051 l 664 1190 l 514 1190 l 706 1051 l 900 1051 l 721 1232 l 457 1232 l 278 1051 l 472 1051 m 701 1292 q 837 1344 788 1292 q 886 1492 886 1396 l 738 1492 l 738 1492 q 720 1450 736 1468 q 679 1432 704 1432 l 679 1432 q 628 1450 653 1432 q 568 1486 603 1468 q 478 1504 533 1504 l 478 1504 q 342 1451 393 1504 q 292 1304 292 1399 l 444 1304 l 444 1304 q 463 1347 447 1331 q 503 1364 479 1364 l 503 1364 q 542 1353 524 1364 q 580 1328 560 1342 q 629 1303 600 1314 q 701 1292 658 1292 l 701 1292 "},"Ȍ":{"ha":1178,"x_min":40,"x_max":1138,"o":"m 590 -22 q 808 15 708 -22 q 982 122 908 53 q 1097 283 1056 190 q 1138 486 1138 376 l 1138 486 q 1097 690 1138 597 q 982 851 1056 782 q 808 957 908 919 q 589 994 708 994 l 589 994 q 370 957 471 994 q 196 851 269 919 q 81 690 122 782 q 40 486 40 597 l 40 486 q 81 283 40 376 q 196 122 122 190 q 370 15 269 53 q 590 -22 471 -22 l 590 -22 m 589 243 q 503 260 543 243 q 434 308 464 276 q 388 384 404 339 q 371 486 371 429 l 371 486 q 388 588 371 543 q 434 665 404 633 q 503 713 464 696 q 589 729 543 729 l 589 729 q 674 713 635 729 q 744 665 714 696 q 790 588 774 633 q 807 486 807 543 l 807 486 q 790 384 807 429 q 744 308 774 339 q 674 260 714 276 q 589 243 635 243 l 589 243 m 856 1051 l 783 1274 l 513 1274 l 647 1051 l 856 1051 m 531 1051 l 458 1274 l 188 1274 l 322 1051 l 531 1051 "},"Ö":{"ha":1178,"x_min":40,"x_max":1138,"o":"m 590 -22 q 808 15 708 -22 q 982 122 908 53 q 1097 283 1056 190 q 1138 486 1138 376 l 1138 486 q 1097 690 1138 597 q 982 851 1056 782 q 808 957 908 919 q 589 994 708 994 l 589 994 q 370 957 471 994 q 196 851 269 919 q 81 690 122 782 q 40 486 40 597 l 40 486 q 81 283 40 376 q 196 122 122 190 q 370 15 269 53 q 590 -22 471 -22 l 590 -22 m 589 243 q 503 260 543 243 q 434 308 464 276 q 388 384 404 339 q 371 486 371 429 l 371 486 q 388 588 371 543 q 434 665 404 633 q 503 713 464 696 q 589 729 543 729 l 589 729 q 674 713 635 729 q 744 665 714 696 q 790 588 774 633 q 807 486 807 543 l 807 486 q 790 384 807 429 q 744 308 774 339 q 674 260 714 276 q 589 243 635 243 l 589 243 m 743 1040 q 832 1074 796 1040 q 868 1163 868 1107 l 868 1163 q 832 1252 868 1218 q 743 1286 796 1286 l 743 1286 q 654 1252 690 1286 q 618 1163 618 1218 l 618 1163 q 654 1074 618 1107 q 743 1040 690 1040 l 743 1040 m 435 1040 q 524 1074 488 1040 q 560 1163 560 1107 l 560 1163 q 524 1252 560 1218 q 435 1286 488 1286 l 435 1286 q 346 1252 382 1286 q 310 1163 310 1218 l 310 1163 q 346 1074 310 1107 q 435 1040 382 1040 l 435 1040 "},"Ȫ":{"ha":1178,"x_min":40,"x_max":1138,"o":"m 590 -22 q 808 15 708 -22 q 982 122 908 53 q 1097 283 1056 190 q 1138 486 1138 376 l 1138 486 q 1097 690 1138 597 q 982 851 1056 782 q 808 957 908 919 q 589 994 708 994 l 589 994 q 370 957 471 994 q 196 851 269 919 q 81 690 122 782 q 40 486 40 597 l 40 486 q 81 283 40 376 q 196 122 122 190 q 370 15 269 53 q 590 -22 471 -22 l 590 -22 m 589 243 q 503 260 543 243 q 434 308 464 276 q 388 384 404 339 q 371 486 371 429 l 371 486 q 388 588 371 543 q 434 665 404 633 q 503 713 464 696 q 589 729 543 729 l 589 729 q 674 713 635 729 q 744 665 714 696 q 790 588 774 633 q 807 486 807 543 l 807 486 q 790 384 807 429 q 744 308 774 339 q 674 260 714 276 q 589 243 635 243 l 589 243 m 736 1040 q 820 1072 786 1040 q 854 1156 854 1104 l 854 1156 q 820 1240 854 1208 q 736 1272 786 1272 l 736 1272 q 652 1240 686 1272 q 618 1156 618 1208 l 618 1156 q 652 1072 618 1104 q 736 1040 686 1040 l 736 1040 m 442 1040 q 526 1072 492 1040 q 560 1156 560 1104 l 560 1156 q 526 1240 560 1208 q 442 1272 492 1272 l 442 1272 q 358 1240 392 1272 q 324 1156 324 1208 l 324 1156 q 358 1072 324 1104 q 442 1040 392 1040 l 442 1040 m 881 1338 l 881 1493 l 297 1493 l 297 1338 l 881 1338 "},"Ȯ":{"ha":1178,"x_min":40,"x_max":1138,"o":"m 590 -22 q 808 15 708 -22 q 982 122 908 53 q 1097 283 1056 190 q 1138 486 1138 376 l 1138 486 q 1097 690 1138 597 q 982 851 1056 782 q 808 957 908 919 q 589 994 708 994 l 589 994 q 370 957 471 994 q 196 851 269 919 q 81 690 122 782 q 40 486 40 597 l 40 486 q 81 283 40 376 q 196 122 122 190 q 370 15 269 53 q 590 -22 471 -22 l 590 -22 m 589 243 q 503 260 543 243 q 434 308 464 276 q 388 384 404 339 q 371 486 371 429 l 371 486 q 388 588 371 543 q 434 665 404 633 q 503 713 464 696 q 589 729 543 729 l 589 729 q 674 713 635 729 q 744 665 714 696 q 790 588 774 633 q 807 486 807 543 l 807 486 q 790 384 807 429 q 744 308 774 339 q 674 260 714 276 q 589 243 635 243 l 589 243 m 589 1038 q 703 1082 658 1038 q 747 1196 747 1126 l 747 1196 q 703 1310 747 1265 q 589 1354 658 1354 l 589 1354 q 475 1310 519 1354 q 431 1196 431 1265 l 431 1196 q 475 1082 431 1126 q 589 1038 519 1038 l 589 1038 "},"Ȱ":{"ha":1178,"x_min":40,"x_max":1138,"o":"m 590 -22 q 808 15 708 -22 q 982 122 908 53 q 1097 283 1056 190 q 1138 486 1138 376 l 1138 486 q 1097 690 1138 597 q 982 851 1056 782 q 808 957 908 919 q 589 994 708 994 l 589 994 q 370 957 471 994 q 196 851 269 919 q 81 690 122 782 q 40 486 40 597 l 40 486 q 81 283 40 376 q 196 122 122 190 q 370 15 269 53 q 590 -22 471 -22 l 590 -22 m 589 243 q 503 260 543 243 q 434 308 464 276 q 388 384 404 339 q 371 486 371 429 l 371 486 q 388 588 371 543 q 434 665 404 633 q 503 713 464 696 q 589 729 543 729 l 589 729 q 674 713 635 729 q 744 665 714 696 q 790 588 774 633 q 807 486 807 543 l 807 486 q 790 384 807 429 q 744 308 774 339 q 674 260 714 276 q 589 243 635 243 l 589 243 m 589 1038 q 678 1070 642 1038 q 714 1158 714 1103 l 714 1158 q 678 1248 714 1214 q 589 1282 642 1282 l 589 1282 q 500 1248 536 1282 q 464 1158 464 1214 l 464 1158 q 500 1070 464 1103 q 589 1038 536 1038 l 589 1038 m 881 1338 l 881 1493 l 297 1493 l 297 1338 l 881 1338 "},"Ọ":{"ha":1178,"x_min":40,"x_max":1138,"o":"m 590 -22 q 808 15 708 -22 q 982 122 908 53 q 1097 283 1056 190 q 1138 486 1138 376 l 1138 486 q 1097 690 1138 597 q 982 851 1056 782 q 808 957 908 919 q 589 994 708 994 l 589 994 q 370 957 471 994 q 196 851 269 919 q 81 690 122 782 q 40 486 40 597 l 40 486 q 81 283 40 376 q 196 122 122 190 q 370 15 269 53 q 590 -22 471 -22 l 590 -22 m 589 243 q 503 260 543 243 q 434 308 464 276 q 388 384 404 339 q 371 486 371 429 l 371 486 q 388 588 371 543 q 434 665 404 633 q 503 713 464 696 q 589 729 543 729 l 589 729 q 674 713 635 729 q 744 665 714 696 q 790 588 774 633 q 807 486 807 543 l 807 486 q 790 384 807 429 q 744 308 774 339 q 674 260 714 276 q 589 243 635 243 l 589 243 m 589 -365 q 703 -321 658 -365 q 747 -207 747 -276 l 747 -207 q 703 -93 747 -137 q 589 -49 658 -49 l 589 -49 q 475 -93 519 -49 q 431 -207 431 -137 l 431 -207 q 475 -321 431 -276 q 589 -365 519 -365 l 589 -365 "},"Ò":{"ha":1178,"x_min":40,"x_max":1138,"o":"m 590 -22 q 808 15 708 -22 q 982 122 908 53 q 1097 283 1056 190 q 1138 486 1138 376 l 1138 486 q 1097 690 1138 597 q 982 851 1056 782 q 808 957 908 919 q 589 994 708 994 l 589 994 q 370 957 471 994 q 196 851 269 919 q 81 690 122 782 q 40 486 40 597 l 40 486 q 81 283 40 376 q 196 122 122 190 q 370 15 269 53 q 590 -22 471 -22 l 590 -22 m 589 243 q 503 260 543 243 q 434 308 464 276 q 388 384 404 339 q 371 486 371 429 l 371 486 q 388 588 371 543 q 434 665 404 633 q 503 713 464 696 q 589 729 543 729 l 589 729 q 674 713 635 729 q 744 665 714 696 q 790 588 774 633 q 807 486 807 543 l 807 486 q 790 384 807 429 q 744 308 774 339 q 674 260 714 276 q 589 243 635 243 l 589 243 m 735 1051 l 551 1274 l 253 1274 l 526 1051 l 735 1051 "},"Ỏ":{"ha":1178,"x_min":40,"x_max":1138,"o":"m 590 -22 q 808 15 708 -22 q 982 122 908 53 q 1097 283 1056 190 q 1138 486 1138 376 l 1138 486 q 1097 690 1138 597 q 982 851 1056 782 q 808 957 908 919 q 589 994 708 994 l 589 994 q 370 957 471 994 q 196 851 269 919 q 81 690 122 782 q 40 486 40 597 l 40 486 q 81 283 40 376 q 196 122 122 190 q 370 15 269 53 q 590 -22 471 -22 l 590 -22 m 589 243 q 503 260 543 243 q 434 308 464 276 q 388 384 404 339 q 371 486 371 429 l 371 486 q 388 588 371 543 q 434 665 404 633 q 503 713 464 696 q 589 729 543 729 l 589 729 q 674 713 635 729 q 744 665 714 696 q 790 588 774 633 q 807 486 807 543 l 807 486 q 790 384 807 429 q 744 308 774 339 q 674 260 714 276 q 589 243 635 243 l 589 243 m 593 1007 q 711 1094 675 1043 q 747 1196 747 1144 l 747 1196 q 722 1284 747 1243 q 650 1350 696 1325 q 544 1375 604 1375 l 544 1375 q 456 1360 503 1375 q 361 1314 410 1346 l 425 1197 l 425 1197 q 504 1225 465 1225 l 504 1225 q 547 1211 531 1225 q 563 1172 563 1197 l 563 1172 q 551 1135 563 1154 q 499 1097 539 1117 l 593 1007 l 593 1007 "},"Ơ":{"ha":1178,"x_min":40,"x_max":1139,"o":"m 589 -22 q 808 15 708 -22 q 982 122 908 53 q 1097 283 1056 190 q 1138 486 1138 376 l 1138 486 q 1115 639 1138 568 q 1049 768 1092 710 q 950 868 1007 826 l 589 821 l 589 821 q 706 806 646 814 q 833 797 765 797 l 833 797 q 1055 859 971 797 q 1139 1044 1139 921 l 1139 1044 q 1125 1130 1139 1092 q 1088 1199 1111 1168 l 910 1136 l 910 1136 q 930 1101 922 1122 q 938 1057 938 1081 l 938 1057 q 912 997 938 1018 q 844 976 886 976 l 844 976 q 739 985 801 976 q 603 994 676 994 l 603 994 q 376 957 479 994 q 197 851 272 919 q 81 690 122 782 q 40 486 40 597 l 40 486 q 81 283 40 376 q 196 122 122 190 q 370 15 269 53 q 589 -22 471 -22 l 589 -22 m 589 243 q 503 260 543 243 q 434 308 464 276 q 388 384 404 339 q 371 486 371 429 l 371 486 q 388 588 371 543 q 434 665 404 633 q 503 713 464 696 q 589 729 543 729 l 589 729 q 674 713 635 729 q 744 665 714 696 q 790 588 774 633 q 807 486 807 543 l 807 486 q 790 384 807 429 q 744 308 774 339 q 674 260 714 276 q 589 243 635 243 l 589 243 "},"Ớ":{"ha":1178,"x_min":40,"x_max":1139,"o":"m 589 -22 q 808 15 708 -22 q 982 122 908 53 q 1097 283 1056 190 q 1138 486 1138 376 l 1138 486 q 1115 639 1138 568 q 1049 768 1092 710 q 950 868 1007 826 l 589 821 l 589 821 q 706 806 646 814 q 833 797 765 797 l 833 797 q 1055 859 971 797 q 1139 1044 1139 921 l 1139 1044 q 1125 1130 1139 1092 q 1088 1199 1111 1168 l 910 1136 l 910 1136 q 930 1101 922 1122 q 938 1057 938 1081 l 938 1057 q 912 997 938 1018 q 844 976 886 976 l 844 976 q 739 985 801 976 q 603 994 676 994 l 603 994 q 376 957 479 994 q 197 851 272 919 q 81 690 122 782 q 40 486 40 597 l 40 486 q 81 283 40 376 q 196 122 122 190 q 370 15 269 53 q 589 -22 471 -22 l 589 -22 m 589 243 q 503 260 543 243 q 434 308 464 276 q 388 384 404 339 q 371 486 371 429 l 371 486 q 388 588 371 543 q 434 665 404 633 q 503 713 464 696 q 589 729 543 729 l 589 729 q 674 713 635 729 q 744 665 714 696 q 790 588 774 633 q 807 486 807 543 l 807 486 q 790 384 807 429 q 744 308 774 339 q 674 260 714 276 q 589 243 635 243 l 589 243 m 651 1051 l 925 1274 l 626 1274 l 443 1051 l 651 1051 "},"Ợ":{"ha":1178,"x_min":40,"x_max":1139,"o":"m 589 -22 q 808 15 708 -22 q 982 122 908 53 q 1097 283 1056 190 q 1138 486 1138 376 l 1138 486 q 1115 639 1138 568 q 1049 768 1092 710 q 950 868 1007 826 l 589 821 l 589 821 q 706 806 646 814 q 833 797 765 797 l 833 797 q 1055 859 971 797 q 1139 1044 1139 921 l 1139 1044 q 1125 1130 1139 1092 q 1088 1199 1111 1168 l 910 1136 l 910 1136 q 930 1101 922 1122 q 938 1057 938 1081 l 938 1057 q 912 997 938 1018 q 844 976 886 976 l 844 976 q 739 985 801 976 q 603 994 676 994 l 603 994 q 376 957 479 994 q 197 851 272 919 q 81 690 122 782 q 40 486 40 597 l 40 486 q 81 283 40 376 q 196 122 122 190 q 370 15 269 53 q 589 -22 471 -22 l 589 -22 m 589 243 q 503 260 543 243 q 434 308 464 276 q 388 384 404 339 q 371 486 371 429 l 371 486 q 388 588 371 543 q 434 665 404 633 q 503 713 464 696 q 589 729 543 729 l 589 729 q 674 713 635 729 q 744 665 714 696 q 790 588 774 633 q 807 486 807 543 l 807 486 q 790 384 807 429 q 744 308 774 339 q 674 260 714 276 q 589 243 635 243 l 589 243 m 589 -365 q 703 -321 658 -365 q 747 -207 747 -276 l 747 -207 q 703 -93 747 -137 q 589 -49 658 -49 l 589 -49 q 475 -93 519 -49 q 431 -207 431 -137 l 431 -207 q 475 -321 431 -276 q 589 -365 519 -365 l 589 -365 "},"Ờ":{"ha":1178,"x_min":40,"x_max":1139,"o":"m 589 -22 q 808 15 708 -22 q 982 122 908 53 q 1097 283 1056 190 q 1138 486 1138 376 l 1138 486 q 1115 639 1138 568 q 1049 768 1092 710 q 950 868 1007 826 l 589 821 l 589 821 q 706 806 646 814 q 833 797 765 797 l 833 797 q 1055 859 971 797 q 1139 1044 1139 921 l 1139 1044 q 1125 1130 1139 1092 q 1088 1199 1111 1168 l 910 1136 l 910 1136 q 930 1101 922 1122 q 938 1057 938 1081 l 938 1057 q 912 997 938 1018 q 844 976 886 976 l 844 976 q 739 985 801 976 q 603 994 676 994 l 603 994 q 376 957 479 994 q 197 851 272 919 q 81 690 122 782 q 40 486 40 597 l 40 486 q 81 283 40 376 q 196 122 122 190 q 370 15 269 53 q 589 -22 471 -22 l 589 -22 m 589 243 q 503 260 543 243 q 434 308 464 276 q 388 384 404 339 q 371 486 371 429 l 371 486 q 388 588 371 543 q 434 665 404 633 q 503 713 464 696 q 589 729 543 729 l 589 729 q 674 713 635 729 q 744 665 714 696 q 790 588 774 633 q 807 486 807 543 l 807 486 q 790 384 807 429 q 744 308 774 339 q 674 260 714 276 q 589 243 635 243 l 589 243 m 735 1051 l 551 1274 l 253 1274 l 526 1051 l 735 1051 "},"Ở":{"ha":1178,"x_min":40,"x_max":1139,"o":"m 589 -22 q 808 15 708 -22 q 982 122 908 53 q 1097 283 1056 190 q 1138 486 1138 376 l 1138 486 q 1115 639 1138 568 q 1049 768 1092 710 q 950 868 1007 826 l 589 821 l 589 821 q 706 806 646 814 q 833 797 765 797 l 833 797 q 1055 859 971 797 q 1139 1044 1139 921 l 1139 1044 q 1125 1130 1139 1092 q 1088 1199 1111 1168 l 910 1136 l 910 1136 q 930 1101 922 1122 q 938 1057 938 1081 l 938 1057 q 912 997 938 1018 q 844 976 886 976 l 844 976 q 739 985 801 976 q 603 994 676 994 l 603 994 q 376 957 479 994 q 197 851 272 919 q 81 690 122 782 q 40 486 40 597 l 40 486 q 81 283 40 376 q 196 122 122 190 q 370 15 269 53 q 589 -22 471 -22 l 589 -22 m 589 243 q 503 260 543 243 q 434 308 464 276 q 388 384 404 339 q 371 486 371 429 l 371 486 q 388 588 371 543 q 434 665 404 633 q 503 713 464 696 q 589 729 543 729 l 589 729 q 674 713 635 729 q 744 665 714 696 q 790 588 774 633 q 807 486 807 543 l 807 486 q 790 384 807 429 q 744 308 774 339 q 674 260 714 276 q 589 243 635 243 l 589 243 m 593 1007 q 711 1094 675 1043 q 747 1196 747 1144 l 747 1196 q 722 1284 747 1243 q 650 1350 696 1325 q 544 1375 604 1375 l 544 1375 q 456 1360 503 1375 q 361 1314 410 1346 l 425 1197 l 425 1197 q 504 1225 465 1225 l 504 1225 q 547 1211 531 1225 q 563 1172 563 1197 l 563 1172 q 551 1135 563 1154 q 499 1097 539 1117 l 593 1007 l 593 1007 "},"Ỡ":{"ha":1178,"x_min":40,"x_max":1139,"o":"m 589 -22 q 808 15 708 -22 q 982 122 908 53 q 1097 283 1056 190 q 1138 486 1138 376 l 1138 486 q 1115 639 1138 568 q 1049 768 1092 710 q 950 868 1007 826 l 589 821 l 589 821 q 706 806 646 814 q 833 797 765 797 l 833 797 q 1055 859 971 797 q 1139 1044 1139 921 l 1139 1044 q 1125 1130 1139 1092 q 1088 1199 1111 1168 l 910 1136 l 910 1136 q 930 1101 922 1122 q 938 1057 938 1081 l 938 1057 q 912 997 938 1018 q 844 976 886 976 l 844 976 q 739 985 801 976 q 603 994 676 994 l 603 994 q 376 957 479 994 q 197 851 272 919 q 81 690 122 782 q 40 486 40 597 l 40 486 q 81 283 40 376 q 196 122 122 190 q 370 15 269 53 q 589 -22 471 -22 l 589 -22 m 589 243 q 503 260 543 243 q 434 308 464 276 q 388 384 404 339 q 371 486 371 429 l 371 486 q 388 588 371 543 q 434 665 404 633 q 503 713 464 696 q 589 729 543 729 l 589 729 q 674 713 635 729 q 744 665 714 696 q 790 588 774 633 q 807 486 807 543 l 807 486 q 790 384 807 429 q 744 308 774 339 q 674 260 714 276 q 589 243 635 243 l 589 243 m 701 1038 q 841 1103 790 1038 q 893 1274 892 1168 l 744 1274 l 744 1274 q 726 1227 743 1244 q 682 1210 710 1210 l 682 1210 q 644 1222 664 1210 q 599 1251 624 1235 q 545 1279 575 1267 q 476 1292 515 1292 l 476 1292 q 338 1226 388 1292 q 285 1051 288 1161 l 433 1051 l 433 1051 q 453 1101 436 1083 q 496 1119 469 1119 l 496 1119 q 535 1107 515 1119 q 578 1078 554 1094 q 633 1050 603 1063 q 701 1038 663 1038 l 701 1038 "},"Ő":{"ha":1178,"x_min":40,"x_max":1138,"o":"m 590 -22 q 808 15 708 -22 q 982 122 908 53 q 1097 283 1056 190 q 1138 486 1138 376 l 1138 486 q 1097 690 1138 597 q 982 851 1056 782 q 808 957 908 919 q 589 994 708 994 l 589 994 q 370 957 471 994 q 196 851 269 919 q 81 690 122 782 q 40 486 40 597 l 40 486 q 81 283 40 376 q 196 122 122 190 q 370 15 269 53 q 590 -22 471 -22 l 590 -22 m 589 243 q 503 260 543 243 q 434 308 464 276 q 388 384 404 339 q 371 486 371 429 l 371 486 q 388 588 371 543 q 434 665 404 633 q 503 713 464 696 q 589 729 543 729 l 589 729 q 674 713 635 729 q 744 665 714 696 q 790 588 774 633 q 807 486 807 543 l 807 486 q 790 384 807 429 q 744 308 774 339 q 674 260 714 276 q 589 243 635 243 l 589 243 m 856 1051 l 990 1274 l 719 1274 l 647 1051 l 856 1051 m 531 1051 l 665 1274 l 394 1274 l 322 1051 l 531 1051 "},"Ȏ":{"ha":1178,"x_min":40,"x_max":1138,"o":"m 590 -22 q 808 15 708 -22 q 982 122 908 53 q 1097 283 1056 190 q 1138 486 1138 376 l 1138 486 q 1097 690 1138 597 q 982 851 1056 782 q 808 957 908 919 q 589 994 708 994 l 589 994 q 370 957 471 994 q 196 851 269 919 q 81 690 122 782 q 40 486 40 597 l 40 486 q 81 283 40 376 q 196 122 122 190 q 370 15 269 53 q 590 -22 471 -22 l 590 -22 m 589 243 q 503 260 543 243 q 434 308 464 276 q 388 384 404 339 q 371 486 371 429 l 371 486 q 388 588 371 543 q 434 665 404 633 q 503 713 464 696 q 589 729 543 729 l 589 729 q 674 713 635 729 q 744 665 714 696 q 790 588 774 633 q 807 486 807 543 l 807 486 q 790 384 807 429 q 744 308 774 339 q 674 260 714 276 q 589 243 635 243 l 589 243 m 486 1051 l 486 1051 q 517 1113 489 1090 q 589 1136 546 1136 l 589 1136 q 660 1113 632 1136 q 692 1051 689 1090 l 879 1051 l 879 1051 q 794 1224 874 1161 q 589 1288 714 1288 l 589 1288 q 384 1224 464 1288 q 299 1051 304 1161 l 486 1051 "},"Ō":{"ha":1178,"x_min":40,"x_max":1138,"o":"m 590 -22 q 808 15 708 -22 q 982 122 908 53 q 1097 283 1056 190 q 1138 486 1138 376 l 1138 486 q 1097 690 1138 597 q 982 851 1056 782 q 808 957 908 919 q 589 994 708 994 l 589 994 q 370 957 471 994 q 196 851 269 919 q 81 690 122 782 q 40 486 40 597 l 40 486 q 81 283 40 376 q 196 122 122 190 q 370 15 269 53 q 590 -22 471 -22 l 590 -22 m 589 243 q 503 260 543 243 q 434 308 464 276 q 388 384 404 339 q 371 486 371 429 l 371 486 q 388 588 371 543 q 434 665 404 633 q 503 713 464 696 q 589 729 543 729 l 589 729 q 674 713 635 729 q 744 665 714 696 q 790 588 774 633 q 807 486 807 543 l 807 486 q 790 384 807 429 q 744 308 774 339 q 674 260 714 276 q 589 243 635 243 l 589 243 m 881 1081 l 881 1244 l 297 1244 l 297 1081 l 881 1081 "},"Ṓ":{"ha":1178,"x_min":40,"x_max":1138,"o":"m 590 -22 q 808 15 708 -22 q 982 122 908 53 q 1097 283 1056 190 q 1138 486 1138 376 l 1138 486 q 1097 690 1138 597 q 982 851 1056 782 q 808 957 908 919 q 589 994 708 994 l 589 994 q 370 957 471 994 q 196 851 269 919 q 81 690 122 782 q 40 486 40 597 l 40 486 q 81 283 40 376 q 196 122 122 190 q 370 15 269 53 q 590 -22 471 -22 l 590 -22 m 589 243 q 503 260 543 243 q 434 308 464 276 q 388 384 404 339 q 371 486 371 429 l 371 486 q 388 588 371 543 q 434 665 404 633 q 503 713 464 696 q 589 729 543 729 l 589 729 q 674 713 635 729 q 744 665 714 696 q 790 588 774 633 q 807 486 807 543 l 807 486 q 790 384 807 429 q 744 308 774 339 q 674 260 714 276 q 589 243 635 243 l 589 243 m 881 1064 l 881 1219 l 297 1219 l 297 1064 l 881 1064 m 625 1313 l 857 1493 l 558 1493 l 417 1313 l 625 1313 "},"Ṑ":{"ha":1178,"x_min":40,"x_max":1138,"o":"m 590 -22 q 808 15 708 -22 q 982 122 908 53 q 1097 283 1056 190 q 1138 486 1138 376 l 1138 486 q 1097 690 1138 597 q 982 851 1056 782 q 808 957 908 919 q 589 994 708 994 l 589 994 q 370 957 471 994 q 196 851 269 919 q 81 690 122 782 q 40 486 40 597 l 40 486 q 81 283 40 376 q 196 122 122 190 q 370 15 269 53 q 590 -22 471 -22 l 590 -22 m 589 243 q 503 260 543 243 q 434 308 464 276 q 388 384 404 339 q 371 486 371 429 l 371 486 q 388 588 371 543 q 434 665 404 633 q 503 713 464 696 q 589 729 543 729 l 589 729 q 674 713 635 729 q 744 665 714 696 q 790 588 774 633 q 807 486 807 543 l 807 486 q 790 384 807 429 q 744 308 774 339 q 674 260 714 276 q 589 243 635 243 l 589 243 m 881 1064 l 881 1219 l 297 1219 l 297 1064 l 881 1064 m 763 1313 l 621 1493 l 322 1493 l 554 1313 l 763 1313 "},"Ꞷ":{"ha":1469,"x_min":46,"x_max":1424,"o":"m 439 -21 q 626 22 547 -21 q 751 133 706 64 q 804 283 797 203 l 658 283 l 658 283 q 712 132 667 201 q 837 21 757 63 q 1024 -21 917 -21 l 1024 -21 q 1207 24 1131 -21 q 1331 144 1283 68 q 1401 313 1379 219 q 1424 507 1424 407 l 1424 507 q 1408 680 1424 594 q 1364 841 1392 765 q 1300 972 1336 917 l 993 972 l 993 972 q 1037 833 1015 917 q 1073 658 1058 750 q 1088 483 1088 567 l 1088 483 q 1076 362 1088 417 q 1040 274 1065 307 q 971 240 1015 240 l 971 240 q 921 258 939 240 q 895 308 903 276 q 888 376 888 339 l 888 657 l 575 657 l 575 376 l 575 376 q 567 308 575 339 q 542 258 560 276 q 492 240 524 240 l 492 240 q 423 274 449 240 q 386 362 397 307 q 375 483 375 417 l 375 483 q 390 658 375 567 q 426 833 404 750 q 469 972 447 917 l 161 972 l 161 972 q 77 763 108 888 q 46 507 46 638 l 46 507 q 67 313 46 407 q 135 144 89 219 q 257 24 182 68 q 439 -21 332 -21 l 439 -21 "},"Ǫ":{"ha":1178,"x_min":40,"x_max":1138,"o":"m 638 -333 q 726 -324 682 -333 q 794 -301 769 -315 l 757 -172 l 757 -172 q 720 -185 742 -179 q 675 -192 699 -192 l 675 -192 q 619 -175 636 -192 q 601 -135 601 -158 l 601 -135 q 617 -87 601 -111 q 674 -40 633 -64 q 783 7 714 -17 l 783 7 q 965 108 885 42 q 1091 271 1044 175 q 1138 486 1138 367 l 1138 486 q 1097 690 1138 597 q 982 851 1056 782 q 808 957 908 919 q 589 994 708 994 l 589 994 q 370 957 471 994 q 196 851 269 919 q 81 690 122 782 q 40 486 40 597 l 40 486 q 81 283 40 376 q 196 122 122 190 q 370 15 269 53 q 589 -22 471 -22 l 589 -22 q 622 -21 604 -22 q 667 -18 640 -19 l 650 68 l 650 68 q 524 11 576 46 q 445 -67 472 -24 q 418 -162 418 -111 l 418 -162 q 476 -287 418 -240 q 638 -333 533 -333 l 638 -333 m 589 243 q 503 260 543 243 q 434 308 464 276 q 388 384 404 339 q 371 486 371 429 l 371 486 q 388 588 371 543 q 434 665 404 633 q 503 713 464 696 q 589 729 543 729 l 589 729 q 674 713 635 729 q 744 665 714 696 q 790 588 774 633 q 807 486 807 543 l 807 486 q 790 384 807 429 q 744 308 774 339 q 674 260 714 276 q 589 243 635 243 l 589 243 "},"Ǭ":{"ha":1178,"x_min":40,"x_max":1138,"o":"m 638 -333 q 726 -324 682 -333 q 794 -301 769 -315 l 757 -172 l 757 -172 q 720 -185 742 -179 q 675 -192 699 -192 l 675 -192 q 619 -175 636 -192 q 601 -135 601 -158 l 601 -135 q 617 -87 601 -111 q 674 -40 633 -64 q 783 7 714 -17 l 783 7 q 965 108 885 42 q 1091 271 1044 175 q 1138 486 1138 367 l 1138 486 q 1097 690 1138 597 q 982 851 1056 782 q 808 957 908 919 q 589 994 708 994 l 589 994 q 370 957 471 994 q 196 851 269 919 q 81 690 122 782 q 40 486 40 597 l 40 486 q 81 283 40 376 q 196 122 122 190 q 370 15 269 53 q 589 -22 471 -22 l 589 -22 q 622 -21 604 -22 q 667 -18 640 -19 l 650 68 l 650 68 q 524 11 576 46 q 445 -67 472 -24 q 418 -162 418 -111 l 418 -162 q 476 -287 418 -240 q 638 -333 533 -333 l 638 -333 m 589 243 q 503 260 543 243 q 434 308 464 276 q 388 384 404 339 q 371 486 371 429 l 371 486 q 388 588 371 543 q 434 665 404 633 q 503 713 464 696 q 589 729 543 729 l 589 729 q 674 713 635 729 q 744 665 714 696 q 790 588 774 633 q 807 486 807 543 l 807 486 q 790 384 807 429 q 744 308 774 339 q 674 260 714 276 q 589 243 635 243 l 589 243 m 881 1081 l 881 1244 l 297 1244 l 297 1081 l 881 1081 "},"Ɔ":{"ha":1024,"x_min":6,"x_max":983,"o":"m 442 994 q 188 944 299 994 q 6 800 78 894 l 213 615 l 213 615 q 308 699 256 669 q 425 729 360 729 l 425 729 q 518 713 476 729 q 590 664 560 696 q 636 587 619 632 q 653 486 653 542 l 653 486 q 636 385 653 431 q 590 308 619 340 q 518 260 560 276 q 425 243 476 243 l 425 243 q 308 273 360 243 q 213 357 256 303 l 6 172 l 6 172 q 188 28 78 79 q 442 -22 299 -22 l 442 -22 q 658 15 558 -22 q 830 119 757 51 q 943 281 903 188 q 983 486 983 374 l 983 486 q 943 692 983 599 q 830 853 903 785 q 658 958 757 921 q 442 994 558 994 l 442 994 "},"Ø":{"ha":1178,"x_min":40,"x_max":1138,"o":"m 590 -22 q 808 15 708 -22 q 982 122 908 53 q 1097 283 1056 190 q 1138 486 1138 376 l 1138 486 q 1097 690 1138 597 q 982 851 1056 782 q 808 957 908 919 q 589 994 708 994 l 589 994 q 370 957 471 994 q 196 851 269 919 q 81 690 122 782 q 40 486 40 597 l 40 486 q 81 283 40 376 q 196 122 122 190 q 370 15 269 53 q 590 -22 471 -22 l 590 -22 m 589 243 q 503 260 543 243 q 434 308 464 276 q 388 384 404 339 q 371 486 371 429 l 371 486 q 388 588 371 543 q 434 665 404 633 q 503 713 464 696 q 589 729 543 729 l 589 729 q 674 713 635 729 q 744 665 714 696 q 790 588 774 633 q 807 486 807 543 l 807 486 q 790 384 807 429 q 744 308 774 339 q 674 260 714 276 q 589 243 635 243 l 589 243 m 360 -97 l 993 1069 l 819 1069 l 186 -97 l 360 -97 "},"Ǿ":{"ha":1178,"x_min":40,"x_max":1138,"o":"m 590 -22 q 808 15 708 -22 q 982 122 908 53 q 1097 283 1056 190 q 1138 486 1138 376 l 1138 486 q 1097 690 1138 597 q 982 851 1056 782 q 808 957 908 919 q 589 994 708 994 l 589 994 q 370 957 471 994 q 196 851 269 919 q 81 690 122 782 q 40 486 40 597 l 40 486 q 81 283 40 376 q 196 122 122 190 q 370 15 269 53 q 590 -22 471 -22 l 590 -22 m 589 243 q 503 260 543 243 q 434 308 464 276 q 388 384 404 339 q 371 486 371 429 l 371 486 q 388 588 371 543 q 434 665 404 633 q 503 713 464 696 q 589 729 543 729 l 589 729 q 674 713 635 729 q 744 665 714 696 q 790 588 774 633 q 807 486 807 543 l 807 486 q 790 384 807 429 q 744 308 774 339 q 674 260 714 276 q 589 243 635 243 l 589 243 m 360 -97 l 993 1069 l 819 1069 l 186 -97 l 360 -97 m 651 1051 l 925 1274 l 626 1274 l 443 1051 l 651 1051 "},"Õ":{"ha":1178,"x_min":40,"x_max":1138,"o":"m 590 -22 q 808 15 708 -22 q 982 122 908 53 q 1097 283 1056 190 q 1138 486 1138 376 l 1138 486 q 1097 690 1138 597 q 982 851 1056 782 q 808 957 908 919 q 589 994 708 994 l 589 994 q 370 957 471 994 q 196 851 269 919 q 81 690 122 782 q 40 486 40 597 l 40 486 q 81 283 40 376 q 196 122 122 190 q 370 15 269 53 q 590 -22 471 -22 l 590 -22 m 589 243 q 503 260 543 243 q 434 308 464 276 q 388 384 404 339 q 371 486 371 429 l 371 486 q 388 588 371 543 q 434 665 404 633 q 503 713 464 696 q 589 729 543 729 l 589 729 q 674 713 635 729 q 744 665 714 696 q 790 588 774 633 q 807 486 807 543 l 807 486 q 790 384 807 429 q 744 308 774 339 q 674 260 714 276 q 589 243 635 243 l 589 243 m 701 1038 q 841 1103 790 1038 q 893 1274 892 1168 l 744 1274 l 744 1274 q 726 1227 743 1244 q 682 1210 710 1210 l 682 1210 q 644 1222 664 1210 q 599 1251 624 1235 q 545 1279 575 1267 q 476 1292 515 1292 l 476 1292 q 338 1226 388 1292 q 285 1051 288 1161 l 433 1051 l 433 1051 q 453 1101 436 1083 q 496 1119 469 1119 l 496 1119 q 535 1107 515 1119 q 578 1078 554 1094 q 633 1050 603 1063 q 701 1038 663 1038 l 701 1038 "},"Ṍ":{"ha":1178,"x_min":40,"x_max":1138,"o":"m 590 -22 q 808 15 708 -22 q 982 122 908 53 q 1097 283 1056 190 q 1138 486 1138 376 l 1138 486 q 1097 690 1138 597 q 982 851 1056 782 q 808 957 908 919 q 589 994 708 994 l 589 994 q 370 957 471 994 q 196 851 269 919 q 81 690 122 782 q 40 486 40 597 l 40 486 q 81 283 40 376 q 196 122 122 190 q 370 15 269 53 q 590 -22 471 -22 l 590 -22 m 589 243 q 503 260 543 243 q 434 308 464 276 q 388 384 404 339 q 371 486 371 429 l 371 486 q 388 588 371 543 q 434 665 404 633 q 503 713 464 696 q 589 729 543 729 l 589 729 q 674 713 635 729 q 744 665 714 696 q 790 588 774 633 q 807 486 807 543 l 807 486 q 790 384 807 429 q 744 308 774 339 q 674 260 714 276 q 589 243 635 243 l 589 243 m 701 1038 q 837 1090 788 1038 q 886 1238 886 1142 l 738 1238 l 738 1238 q 720 1196 736 1214 q 679 1178 704 1178 l 679 1178 q 628 1196 653 1178 q 568 1232 603 1214 q 478 1250 533 1250 l 478 1250 q 342 1197 393 1250 q 292 1050 292 1144 l 444 1050 l 444 1050 q 463 1093 447 1076 q 503 1110 479 1110 l 503 1110 q 542 1099 524 1110 q 580 1074 560 1088 q 629 1049 600 1060 q 701 1038 658 1038 l 701 1038 m 651 1306 l 883 1486 l 585 1486 l 443 1306 l 651 1306 "},"Ṏ":{"ha":1178,"x_min":40,"x_max":1138,"o":"m 590 -22 q 808 15 708 -22 q 982 122 908 53 q 1097 283 1056 190 q 1138 486 1138 376 l 1138 486 q 1097 690 1138 597 q 982 851 1056 782 q 808 957 908 919 q 589 994 708 994 l 589 994 q 370 957 471 994 q 196 851 269 919 q 81 690 122 782 q 40 486 40 597 l 40 486 q 81 283 40 376 q 196 122 122 190 q 370 15 269 53 q 590 -22 471 -22 l 590 -22 m 589 243 q 503 260 543 243 q 434 308 464 276 q 388 384 404 339 q 371 486 371 429 l 371 486 q 388 588 371 543 q 434 665 404 633 q 503 713 464 696 q 589 729 543 729 l 589 729 q 674 713 635 729 q 744 665 714 696 q 790 588 774 633 q 807 486 807 543 l 807 486 q 790 384 807 429 q 744 308 774 339 q 674 260 714 276 q 589 243 635 243 l 589 243 m 701 1038 q 837 1090 788 1038 q 886 1238 886 1142 l 738 1238 l 738 1238 q 720 1196 736 1214 q 679 1178 704 1178 l 679 1178 q 628 1196 653 1178 q 568 1232 603 1214 q 478 1250 533 1250 l 478 1250 q 342 1197 393 1250 q 292 1050 292 1144 l 444 1050 l 444 1050 q 463 1093 447 1076 q 503 1110 479 1110 l 503 1110 q 542 1099 524 1110 q 580 1074 560 1088 q 629 1049 600 1060 q 701 1038 658 1038 l 701 1038 m 736 1294 q 820 1326 786 1294 q 854 1410 854 1358 l 854 1410 q 820 1494 854 1463 q 736 1526 786 1526 l 736 1526 q 652 1494 686 1526 q 618 1410 618 1463 l 618 1410 q 652 1326 618 1358 q 736 1294 686 1294 l 736 1294 m 442 1294 q 526 1326 492 1294 q 560 1410 560 1358 l 560 1410 q 526 1494 560 1463 q 442 1526 492 1526 l 442 1526 q 358 1494 392 1526 q 324 1410 324 1463 l 324 1410 q 358 1326 324 1358 q 442 1294 392 1294 l 442 1294 "},"Ȭ":{"ha":1178,"x_min":40,"x_max":1138,"o":"m 590 -22 q 808 15 708 -22 q 982 122 908 53 q 1097 283 1056 190 q 1138 486 1138 376 l 1138 486 q 1097 690 1138 597 q 982 851 1056 782 q 808 957 908 919 q 589 994 708 994 l 589 994 q 370 957 471 994 q 196 851 269 919 q 81 690 122 782 q 40 486 40 597 l 40 486 q 81 283 40 376 q 196 122 122 190 q 370 15 269 53 q 590 -22 471 -22 l 590 -22 m 589 243 q 503 260 543 243 q 434 308 464 276 q 388 384 404 339 q 371 486 371 429 l 371 486 q 388 588 371 543 q 434 665 404 633 q 503 713 464 696 q 589 729 543 729 l 589 729 q 674 713 635 729 q 744 665 714 696 q 790 588 774 633 q 807 486 807 543 l 807 486 q 790 384 807 429 q 744 308 774 339 q 674 260 714 276 q 589 243 635 243 l 589 243 m 701 1038 q 837 1090 788 1038 q 886 1238 886 1142 l 738 1238 l 738 1238 q 720 1196 736 1214 q 679 1178 704 1178 l 679 1178 q 628 1196 653 1178 q 568 1232 603 1214 q 478 1250 533 1250 l 478 1250 q 342 1197 393 1250 q 292 1050 292 1144 l 444 1050 l 444 1050 q 463 1093 447 1076 q 503 1110 479 1110 l 503 1110 q 542 1099 524 1110 q 580 1074 560 1088 q 629 1049 600 1060 q 701 1038 658 1038 l 701 1038 m 881 1338 l 881 1493 l 297 1493 l 297 1338 l 881 1338 "},"Œ":{"ha":1596,"x_min":40,"x_max":1549,"o":"m 824 0 l 824 256 l 603 256 l 603 256 q 482 282 535 256 q 400 360 429 308 q 371 486 371 413 l 371 486 q 400 613 371 561 q 482 690 429 664 q 603 717 535 717 l 824 717 l 824 972 l 589 972 l 589 972 q 303 913 426 972 q 110 746 179 854 q 40 486 40 638 l 40 486 q 110 227 40 336 q 303 59 179 118 q 589 0 426 0 l 824 0 m 1549 0 l 1549 247 l 1063 247 l 1063 725 l 1531 725 l 1531 972 l 740 972 l 740 0 l 1549 0 m 1474 375 l 1474 611 l 1040 611 l 1040 375 l 1474 375 "},"P":{"ha":1032,"x_min":79,"x_max":990,"o":"m 407 0 l 407 379 l 261 239 l 547 239 l 547 239 q 783 284 683 239 q 936 411 882 329 q 990 606 990 493 l 990 606 q 936 801 990 718 q 783 928 882 883 q 547 972 683 972 l 79 972 l 79 0 l 407 0 m 407 868 l 261 719 l 526 719 l 526 719 q 627 689 594 719 q 660 606 660 658 l 660 606 q 627 522 660 553 q 526 492 594 492 l 261 492 l 407 343 l 407 868 "},"Ṕ":{"ha":1032,"x_min":79,"x_max":990,"o":"m 407 0 l 407 379 l 261 239 l 547 239 l 547 239 q 783 284 683 239 q 936 411 882 329 q 990 606 990 493 l 990 606 q 936 801 990 718 q 783 928 882 883 q 547 972 683 972 l 79 972 l 79 0 l 407 0 m 407 868 l 261 719 l 526 719 l 526 719 q 627 689 594 719 q 660 606 660 658 l 660 606 q 627 522 660 553 q 526 492 594 492 l 261 492 l 407 343 l 407 868 m 579 1051 l 853 1274 l 554 1274 l 371 1051 l 579 1051 "},"Ṗ":{"ha":1032,"x_min":79,"x_max":990,"o":"m 407 0 l 407 379 l 261 239 l 547 239 l 547 239 q 783 284 683 239 q 936 411 882 329 q 990 606 990 493 l 990 606 q 936 801 990 718 q 783 928 882 883 q 547 972 683 972 l 79 972 l 79 0 l 407 0 m 407 868 l 261 719 l 526 719 l 526 719 q 627 689 594 719 q 660 606 660 658 l 660 606 q 627 522 660 553 q 526 492 594 492 l 261 492 l 407 343 l 407 868 m 517 1038 q 631 1082 586 1038 q 675 1196 675 1126 l 675 1196 q 631 1310 675 1265 q 517 1354 586 1354 l 517 1354 q 403 1310 447 1354 q 358 1196 358 1265 l 358 1196 q 403 1082 358 1126 q 517 1038 447 1038 l 517 1038 "},"Ƥ":{"ha":1368,"x_min":8,"x_max":1326,"o":"m 329 546 l 329 546 q 301 611 308 581 q 300 666 294 642 q 324 704 306 690 q 374 718 343 718 l 422 718 l 422 972 l 379 972 l 379 972 q 192 938 268 972 q 74 847 117 904 q 20 720 32 790 q 24 577 8 650 q 82 440 40 504 l 329 546 m 743 0 l 743 379 l 597 239 l 883 239 l 883 239 q 1119 284 1019 239 q 1272 411 1218 329 q 1326 606 1326 493 l 1326 606 q 1272 801 1326 718 q 1119 928 1218 883 q 883 972 1019 972 l 415 972 l 415 0 l 743 0 m 743 868 l 597 719 l 863 719 l 863 719 q 963 689 931 719 q 996 606 996 658 l 996 606 q 963 522 996 553 q 863 492 931 492 l 597 492 l 743 343 l 743 868 "},"Þ":{"ha":1032,"x_min":79,"x_max":990,"o":"m 547 146 l 547 146 q 783 190 683 146 q 936 317 882 235 q 990 513 990 400 l 990 513 q 936 708 990 625 q 783 835 882 790 q 547 879 683 879 l 340 879 l 340 626 l 526 626 l 526 626 q 627 596 594 626 q 660 513 660 565 l 660 513 q 627 429 660 460 q 526 399 594 399 l 340 399 l 340 146 l 547 146 m 407 0 l 407 974 l 79 974 l 79 0 l 407 0 "},"Ᵽ":{"ha":1038,"x_min":-12,"x_max":996,"o":"m 413 0 l 413 379 l 267 239 l 553 239 l 553 239 q 788 284 689 239 q 942 411 888 329 q 996 606 996 493 l 996 606 q 942 801 996 718 q 788 928 888 883 q 553 972 689 972 l 85 972 l 85 0 l 413 0 m 544 513 l 544 699 l -12 699 l -12 513 l 544 513 m 413 868 l 267 732 l 532 732 l 532 732 q 631 699 597 732 q 665 606 665 667 l 665 606 q 631 511 665 544 q 532 478 597 478 l 267 478 l 413 343 l 413 868 "},"Q":{"ha":1178,"x_min":40,"x_max":1190,"o":"m 589 -22 q 808 15 708 -22 q 982 122 908 53 q 1097 283 1056 190 q 1138 486 1138 376 l 1138 486 q 1097 690 1138 597 q 982 851 1056 782 q 808 957 908 919 q 589 994 708 994 l 589 994 q 370 957 471 994 q 196 851 269 919 q 81 690 122 782 q 40 486 40 597 l 40 486 q 81 283 40 376 q 196 122 122 190 q 370 15 269 53 q 589 -22 471 -22 l 589 -22 m 907 -246 q 1190 -122 1086 -246 l 1049 44 l 1049 44 q 914 -18 986 -18 l 914 -18 q 862 -7 885 -18 q 815 32 839 4 q 758 111 792 60 l 419 28 l 419 28 q 553 -105 493 -51 q 667 -189 613 -158 q 781 -233 722 -219 q 907 -246 839 -246 l 907 -246 m 589 243 q 503 260 543 243 q 434 308 464 276 q 388 384 404 339 q 371 486 371 429 l 371 486 q 388 588 371 543 q 434 665 404 633 q 503 713 464 696 q 589 729 543 729 l 589 729 q 674 713 635 729 q 744 665 714 696 q 790 588 774 633 q 807 486 807 543 l 807 486 q 790 384 807 429 q 744 308 774 339 q 674 260 714 276 q 589 243 635 243 l 589 243 "},"Ɋ":{"ha":1215,"x_min":40,"x_max":1311,"o":"m 522 -22 q 702 15 622 -22 q 840 122 782 53 q 928 283 897 190 q 958 486 958 376 l 958 486 q 928 690 958 597 q 840 851 897 782 q 702 957 782 919 q 522 994 622 994 l 522 994 q 335 957 422 994 q 181 851 247 919 q 78 690 115 782 q 40 486 40 597 l 40 486 q 78 283 40 376 q 181 122 115 190 q 335 15 247 53 q 522 -22 422 -22 l 522 -22 m 589 243 q 499 260 539 243 q 430 308 458 276 q 386 385 401 340 q 371 486 371 431 l 371 486 q 386 587 371 542 q 430 664 401 632 q 499 713 458 696 q 589 729 539 729 l 589 729 q 679 713 639 729 q 748 664 719 696 q 792 587 776 632 q 807 486 807 542 l 807 486 q 792 385 807 431 q 748 308 776 340 q 679 260 719 276 q 589 243 639 243 l 589 243 m 1243 -33 l 1243 -33 q 1183 -43 1210 -46 q 1140 -23 1156 -40 q 1125 24 1125 -6 l 1125 972 l 797 972 l 807 806 l 833 486 l 797 231 l 797 24 l 797 24 q 844 -158 797 -87 q 966 -260 890 -228 q 1132 -290 1042 -292 q 1311 -254 1222 -287 l 1243 -33 "},"R":{"ha":1035,"x_min":79,"x_max":1011,"o":"m 407 0 l 407 379 l 261 244 l 547 244 l 547 244 q 783 288 683 244 q 936 412 882 331 q 990 606 990 493 l 990 606 q 874 874 990 775 q 533 972 757 972 l 79 972 l 79 0 l 407 0 m 1011 0 l 769 354 l 422 354 l 661 0 l 1011 0 m 407 868 l 261 719 l 526 719 l 526 719 q 627 689 594 719 q 660 606 660 658 l 660 606 q 627 522 660 553 q 526 492 594 492 l 261 492 l 407 343 l 407 868 "},"Ŕ":{"ha":1035,"x_min":79,"x_max":1011,"o":"m 407 0 l 407 379 l 261 244 l 547 244 l 547 244 q 783 288 683 244 q 936 412 882 331 q 990 606 990 493 l 990 606 q 874 874 990 775 q 533 972 757 972 l 79 972 l 79 0 l 407 0 m 1011 0 l 769 354 l 422 354 l 661 0 l 1011 0 m 407 868 l 261 719 l 526 719 l 526 719 q 627 689 594 719 q 660 606 660 658 l 660 606 q 627 522 660 553 q 526 492 594 492 l 261 492 l 407 343 l 407 868 m 569 1051 l 843 1274 l 544 1274 l 361 1051 l 569 1051 "},"Ř":{"ha":1035,"x_min":79,"x_max":1011,"o":"m 407 0 l 407 379 l 261 244 l 547 244 l 547 244 q 783 288 683 244 q 936 412 882 331 q 990 606 990 493 l 990 606 q 874 874 990 775 q 533 972 757 972 l 79 972 l 79 0 l 407 0 m 1011 0 l 769 354 l 422 354 l 661 0 l 1011 0 m 407 868 l 261 719 l 526 719 l 526 719 q 627 689 594 719 q 660 606 660 658 l 660 606 q 627 522 660 553 q 526 492 594 492 l 261 492 l 407 343 l 407 868 m 640 1051 l 818 1274 l 624 1274 l 426 1093 l 588 1093 l 390 1274 l 196 1274 l 374 1051 l 640 1051 "},"Ŗ":{"ha":1035,"x_min":79,"x_max":1011,"o":"m 407 0 l 407 379 l 261 244 l 547 244 l 547 244 q 783 288 683 244 q 936 412 882 331 q 990 606 990 493 l 990 606 q 874 874 990 775 q 533 972 757 972 l 79 972 l 79 0 l 407 0 m 1011 0 l 769 354 l 422 354 l 661 0 l 1011 0 m 407 868 l 261 719 l 526 719 l 526 719 q 627 689 594 719 q 660 606 660 658 l 660 606 q 627 522 660 553 q 526 492 594 492 l 261 492 l 407 343 l 407 868 m 543 -375 l 597 -285 l 597 -285 q 626 -220 619 -247 q 632 -174 632 -193 l 632 -174 q 599 -98 632 -126 q 507 -69 565 -69 l 507 -69 q 415 -98 449 -69 q 382 -174 382 -126 l 382 -174 q 413 -248 382 -221 q 507 -275 444 -275 l 472 -174 l 406 -375 l 543 -375 "},"Ȑ":{"ha":1035,"x_min":79,"x_max":1011,"o":"m 407 0 l 407 379 l 261 244 l 547 244 l 547 244 q 783 288 683 244 q 936 412 882 331 q 990 606 990 493 l 990 606 q 874 874 990 775 q 533 972 757 972 l 79 972 l 79 0 l 407 0 m 1011 0 l 769 354 l 422 354 l 661 0 l 1011 0 m 407 868 l 261 719 l 526 719 l 526 719 q 627 689 594 719 q 660 606 660 658 l 660 606 q 627 522 660 553 q 526 492 594 492 l 261 492 l 407 343 l 407 868 m 774 1051 l 701 1274 l 431 1274 l 565 1051 l 774 1051 m 449 1051 l 376 1274 l 106 1274 l 240 1051 l 449 1051 "},"Ṙ":{"ha":1035,"x_min":79,"x_max":1011,"o":"m 407 0 l 407 379 l 261 244 l 547 244 l 547 244 q 783 288 683 244 q 936 412 882 331 q 990 606 990 493 l 990 606 q 874 874 990 775 q 533 972 757 972 l 79 972 l 79 0 l 407 0 m 1011 0 l 769 354 l 422 354 l 661 0 l 1011 0 m 407 868 l 261 719 l 526 719 l 526 719 q 627 689 594 719 q 660 606 660 658 l 660 606 q 627 522 660 553 q 526 492 594 492 l 261 492 l 407 343 l 407 868 m 507 1038 q 621 1082 576 1038 q 665 1196 665 1126 l 665 1196 q 621 1310 665 1265 q 507 1354 576 1354 l 507 1354 q 393 1310 438 1354 q 349 1196 349 1265 l 349 1196 q 393 1082 349 1126 q 507 1038 438 1038 l 507 1038 "},"Ṛ":{"ha":1035,"x_min":79,"x_max":1011,"o":"m 407 0 l 407 379 l 261 244 l 547 244 l 547 244 q 783 288 683 244 q 936 412 882 331 q 990 606 990 493 l 990 606 q 874 874 990 775 q 533 972 757 972 l 79 972 l 79 0 l 407 0 m 1011 0 l 769 354 l 422 354 l 661 0 l 1011 0 m 407 868 l 261 719 l 526 719 l 526 719 q 627 689 594 719 q 660 606 660 658 l 660 606 q 627 522 660 553 q 526 492 594 492 l 261 492 l 407 343 l 407 868 m 507 -365 q 621 -321 576 -365 q 665 -207 665 -276 l 665 -207 q 621 -93 665 -137 q 507 -49 576 -49 l 507 -49 q 393 -93 438 -49 q 349 -207 349 -137 l 349 -207 q 393 -321 349 -276 q 507 -365 438 -365 l 507 -365 "},"Ṝ":{"ha":1035,"x_min":79,"x_max":1011,"o":"m 407 0 l 407 379 l 261 244 l 547 244 l 547 244 q 783 288 683 244 q 936 412 882 331 q 990 606 990 493 l 990 606 q 874 874 990 775 q 533 972 757 972 l 79 972 l 79 0 l 407 0 m 1011 0 l 769 354 l 422 354 l 661 0 l 1011 0 m 407 868 l 261 719 l 526 719 l 526 719 q 627 689 594 719 q 660 606 660 658 l 660 606 q 627 522 660 553 q 526 492 594 492 l 261 492 l 407 343 l 407 868 m 507 -365 q 621 -321 576 -365 q 665 -207 665 -276 l 665 -207 q 621 -93 665 -137 q 507 -49 576 -49 l 507 -49 q 393 -93 438 -49 q 349 -207 349 -137 l 349 -207 q 393 -321 349 -276 q 507 -365 438 -365 l 507 -365 m 799 1081 l 799 1244 l 215 1244 l 215 1081 l 799 1081 "},"Ȓ":{"ha":1035,"x_min":79,"x_max":1011,"o":"m 407 0 l 407 379 l 261 244 l 547 244 l 547 244 q 783 288 683 244 q 936 412 882 331 q 990 606 990 493 l 990 606 q 874 874 990 775 q 533 972 757 972 l 79 972 l 79 0 l 407 0 m 1011 0 l 769 354 l 422 354 l 661 0 l 1011 0 m 407 868 l 261 719 l 526 719 l 526 719 q 627 689 594 719 q 660 606 660 658 l 660 606 q 627 522 660 553 q 526 492 594 492 l 261 492 l 407 343 l 407 868 m 404 1051 l 404 1051 q 435 1113 407 1090 q 507 1136 464 1136 l 507 1136 q 578 1113 550 1136 q 610 1051 607 1090 l 797 1051 l 797 1051 q 712 1224 792 1161 q 507 1288 632 1288 l 507 1288 q 302 1224 382 1288 q 217 1051 222 1161 l 404 1051 "},"Ṟ":{"ha":1035,"x_min":79,"x_max":1011,"o":"m 407 0 l 407 379 l 261 244 l 547 244 l 547 244 q 783 288 683 244 q 936 412 882 331 q 990 606 990 493 l 990 606 q 874 874 990 775 q 533 972 757 972 l 79 972 l 79 0 l 407 0 m 1011 0 l 769 354 l 422 354 l 661 0 l 1011 0 m 407 868 l 261 719 l 526 719 l 526 719 q 627 689 594 719 q 660 606 660 658 l 660 606 q 627 522 660 553 q 526 492 594 492 l 261 492 l 407 343 l 407 868 m 799 -268 l 799 -104 l 215 -104 l 215 -268 l 799 -268 "},"Ɍ":{"ha":1035,"x_min":-18,"x_max":1011,"o":"m 407 0 l 407 379 l 261 244 l 547 244 l 547 244 q 783 288 683 244 q 936 412 882 331 q 990 606 990 493 l 990 606 q 874 874 990 775 q 533 972 757 972 l 79 972 l 79 0 l 407 0 m 1011 0 l 769 354 l 422 354 l 661 0 l 1011 0 m 407 868 l 261 719 l 526 719 l 526 719 q 627 689 594 719 q 660 606 660 658 l 660 606 q 627 522 660 553 q 526 492 594 492 l 261 492 l 407 343 l 407 868 m 557 303 l 557 492 l -18 492 l -18 303 l 557 303 "},"Ɽ":{"ha":1054,"x_min":92,"x_max":1024,"o":"m 567 -24 l 567 -24 q 510 -44 538 -39 q 463 -42 483 -49 q 431 -19 443 -36 q 419 24 419 -3 l 419 310 l 357 244 l 560 244 l 560 244 q 795 288 696 244 q 949 412 894 331 q 1003 606 1003 493 l 1003 606 q 949 801 1003 718 q 795 928 894 883 q 560 972 696 972 l 92 972 l 92 24 l 92 24 q 142 -164 92 -93 q 276 -265 193 -235 q 455 -289 358 -296 q 643 -242 551 -282 l 567 -24 m 1024 0 l 782 354 l 435 354 l 674 0 l 1024 0 m 419 799 l 357 719 l 539 719 l 539 719 q 640 689 607 719 q 672 606 672 658 l 672 606 q 640 522 672 553 q 539 492 607 492 l 357 492 l 419 413 l 419 799 "},"S":{"ha":913,"x_min":18,"x_max":894,"o":"m 442 -22 q 693 23 593 -22 q 844 142 793 68 q 894 306 894 217 l 894 306 q 865 433 894 382 q 788 517 836 485 q 683 568 740 549 q 569 599 626 588 q 463 619 511 610 q 386 644 415 629 q 357 683 357 658 l 357 683 q 369 714 357 700 q 408 736 381 728 q 483 744 436 744 l 483 744 q 615 726 547 744 q 754 672 682 708 l 853 910 l 853 910 q 681 974 776 953 q 486 994 585 994 l 486 994 q 235 950 336 994 q 84 831 135 906 q 33 667 33 757 l 33 667 q 63 537 33 589 q 140 453 92 485 q 245 401 188 421 q 360 370 303 382 q 465 348 417 358 q 542 322 513 338 q 571 281 571 307 l 571 281 q 558 252 571 264 q 519 234 546 240 q 444 228 492 228 l 444 228 q 278 252 364 228 q 124 317 193 276 l 18 78 l 18 78 q 206 6 92 33 q 442 -22 319 -22 l 442 -22 "},"Ś":{"ha":913,"x_min":18,"x_max":894,"o":"m 442 -22 q 693 23 593 -22 q 844 142 793 68 q 894 306 894 217 l 894 306 q 865 433 894 382 q 788 517 836 485 q 683 568 740 549 q 569 599 626 588 q 463 619 511 610 q 386 644 415 629 q 357 683 357 658 l 357 683 q 369 714 357 700 q 408 736 381 728 q 483 744 436 744 l 483 744 q 615 726 547 744 q 754 672 682 708 l 853 910 l 853 910 q 681 974 776 953 q 486 994 585 994 l 486 994 q 235 950 336 994 q 84 831 135 906 q 33 667 33 757 l 33 667 q 63 537 33 589 q 140 453 92 485 q 245 401 188 421 q 360 370 303 382 q 465 348 417 358 q 542 322 513 338 q 571 281 571 307 l 571 281 q 558 252 571 264 q 519 234 546 240 q 444 228 492 228 l 444 228 q 278 252 364 228 q 124 317 193 276 l 18 78 l 18 78 q 206 6 92 33 q 442 -22 319 -22 l 442 -22 m 519 1051 l 793 1274 l 494 1274 l 311 1051 l 519 1051 "},"Ṥ":{"ha":913,"x_min":18,"x_max":894,"o":"m 442 -22 q 693 23 593 -22 q 844 142 793 68 q 894 306 894 217 l 894 306 q 865 433 894 382 q 788 517 836 485 q 683 568 740 549 q 569 599 626 588 q 463 619 511 610 q 386 644 415 629 q 357 683 357 658 l 357 683 q 369 714 357 700 q 408 736 381 728 q 483 744 436 744 l 483 744 q 615 726 547 744 q 754 672 682 708 l 853 910 l 853 910 q 681 974 776 953 q 486 994 585 994 l 486 994 q 235 950 336 994 q 84 831 135 906 q 33 667 33 757 l 33 667 q 63 537 33 589 q 140 453 92 485 q 245 401 188 421 q 360 370 303 382 q 465 348 417 358 q 542 322 513 338 q 571 281 571 307 l 571 281 q 558 252 571 264 q 519 234 546 240 q 444 228 492 228 l 444 228 q 278 252 364 228 q 124 317 193 276 l 18 78 l 18 78 q 206 6 92 33 q 442 -22 319 -22 l 442 -22 m 519 1051 l 751 1232 l 453 1232 l 311 1051 l 519 1051 m 471 1279 q 560 1312 524 1279 q 596 1400 596 1344 l 596 1400 q 560 1490 596 1456 q 471 1524 524 1524 l 471 1524 q 382 1490 418 1524 q 346 1400 346 1456 l 346 1400 q 382 1312 346 1344 q 471 1279 418 1279 l 471 1279 "},"Š":{"ha":913,"x_min":18,"x_max":894,"o":"m 442 -22 q 693 23 593 -22 q 844 142 793 68 q 894 306 894 217 l 894 306 q 865 433 894 382 q 788 517 836 485 q 683 568 740 549 q 569 599 626 588 q 463 619 511 610 q 386 644 415 629 q 357 683 357 658 l 357 683 q 369 714 357 700 q 408 736 381 728 q 483 744 436 744 l 483 744 q 615 726 547 744 q 754 672 682 708 l 853 910 l 853 910 q 681 974 776 953 q 486 994 585 994 l 486 994 q 235 950 336 994 q 84 831 135 906 q 33 667 33 757 l 33 667 q 63 537 33 589 q 140 453 92 485 q 245 401 188 421 q 360 370 303 382 q 465 348 417 358 q 542 322 513 338 q 571 281 571 307 l 571 281 q 558 252 571 264 q 519 234 546 240 q 444 228 492 228 l 444 228 q 278 252 364 228 q 124 317 193 276 l 18 78 l 18 78 q 206 6 92 33 q 442 -22 319 -22 l 442 -22 m 590 1051 l 768 1274 l 574 1274 l 376 1093 l 538 1093 l 340 1274 l 146 1274 l 324 1051 l 590 1051 "},"Ṧ":{"ha":913,"x_min":18,"x_max":894,"o":"m 442 -22 q 693 23 593 -22 q 844 142 793 68 q 894 306 894 217 l 894 306 q 865 433 894 382 q 788 517 836 485 q 683 568 740 549 q 569 599 626 588 q 463 619 511 610 q 386 644 415 629 q 357 683 357 658 l 357 683 q 369 714 357 700 q 408 736 381 728 q 483 744 436 744 l 483 744 q 615 726 547 744 q 754 672 682 708 l 853 910 l 853 910 q 681 974 776 953 q 486 994 585 994 l 486 994 q 235 950 336 994 q 84 831 135 906 q 33 667 33 757 l 33 667 q 63 537 33 589 q 140 453 92 485 q 245 401 188 421 q 360 370 303 382 q 465 348 417 358 q 542 322 513 338 q 571 281 571 307 l 571 281 q 558 252 571 264 q 519 234 546 240 q 444 228 492 228 l 444 228 q 278 252 364 228 q 124 317 193 276 l 18 78 l 18 78 q 206 6 92 33 q 442 -22 319 -22 l 442 -22 m 589 1063 l 768 1243 l 574 1243 l 382 1104 l 532 1104 l 340 1243 l 146 1243 l 325 1063 l 589 1063 m 457 1268 q 546 1301 510 1268 q 582 1389 582 1333 l 582 1389 q 546 1478 582 1444 q 457 1513 510 1513 l 457 1513 q 368 1478 404 1513 q 332 1389 332 1444 l 332 1389 q 368 1301 332 1333 q 457 1268 404 1268 l 457 1268 "},"Ş":{"ha":913,"x_min":18,"x_max":894,"o":"m 442 -22 q 693 23 593 -22 q 844 142 793 68 q 894 306 894 217 l 894 306 q 865 433 894 382 q 788 517 836 485 q 683 568 740 549 q 569 599 626 588 q 463 619 511 610 q 386 644 415 629 q 357 683 357 658 l 357 683 q 369 714 357 700 q 408 736 381 728 q 483 744 436 744 l 483 744 q 615 726 547 744 q 754 672 682 708 l 853 910 l 853 910 q 681 974 776 953 q 486 994 585 994 l 486 994 q 235 950 336 994 q 84 831 135 906 q 33 667 33 757 l 33 667 q 63 537 33 589 q 140 453 92 485 q 245 401 188 421 q 360 370 303 382 q 465 348 417 358 q 542 322 513 338 q 571 281 571 307 l 571 281 q 558 252 571 264 q 519 234 546 240 q 444 228 492 228 l 444 228 q 278 252 364 228 q 124 317 193 276 l 18 78 l 18 78 q 206 6 92 33 q 442 -22 319 -22 l 442 -22 m 400 -333 q 572 -293 507 -333 q 636 -183 636 -253 l 636 -183 q 610 -114 636 -147 q 518 -72 583 -81 l 538 14 l 376 14 l 339 -144 l 396 -144 l 396 -144 q 440 -152 426 -144 q 453 -172 453 -160 l 453 -172 q 438 -196 453 -186 q 386 -206 422 -206 l 386 -206 q 340 -200 361 -206 q 303 -189 318 -194 l 264 -304 l 264 -304 q 326 -325 288 -317 q 400 -333 365 -333 l 400 -333 "},"Ŝ":{"ha":913,"x_min":18,"x_max":894,"o":"m 442 -22 q 693 23 593 -22 q 844 142 793 68 q 894 306 894 217 l 894 306 q 865 433 894 382 q 788 517 836 485 q 683 568 740 549 q 569 599 626 588 q 463 619 511 610 q 386 644 415 629 q 357 683 357 658 l 357 683 q 369 714 357 700 q 408 736 381 728 q 483 744 436 744 l 483 744 q 615 726 547 744 q 754 672 682 708 l 853 910 l 853 910 q 681 974 776 953 q 486 994 585 994 l 486 994 q 235 950 336 994 q 84 831 135 906 q 33 667 33 757 l 33 667 q 63 537 33 589 q 140 453 92 485 q 245 401 188 421 q 360 370 303 382 q 465 348 417 358 q 542 322 513 338 q 571 281 571 307 l 571 281 q 558 252 571 264 q 519 234 546 240 q 444 228 492 228 l 444 228 q 278 252 364 228 q 124 317 193 276 l 18 78 l 18 78 q 206 6 92 33 q 442 -22 319 -22 l 442 -22 m 340 1051 l 538 1232 l 376 1232 l 574 1051 l 768 1051 l 590 1274 l 324 1274 l 146 1051 l 340 1051 "},"Ș":{"ha":913,"x_min":18,"x_max":894,"o":"m 442 -22 q 693 23 593 -22 q 844 142 793 68 q 894 306 894 217 l 894 306 q 865 433 894 382 q 788 517 836 485 q 683 568 740 549 q 569 599 626 588 q 463 619 511 610 q 386 644 415 629 q 357 683 357 658 l 357 683 q 369 714 357 700 q 408 736 381 728 q 483 744 436 744 l 483 744 q 615 726 547 744 q 754 672 682 708 l 853 910 l 853 910 q 681 974 776 953 q 486 994 585 994 l 486 994 q 235 950 336 994 q 84 831 135 906 q 33 667 33 757 l 33 667 q 63 537 33 589 q 140 453 92 485 q 245 401 188 421 q 360 370 303 382 q 465 348 417 358 q 542 322 513 338 q 571 281 571 307 l 571 281 q 558 252 571 264 q 519 234 546 240 q 444 228 492 228 l 444 228 q 278 252 364 228 q 124 317 193 276 l 18 78 l 18 78 q 206 6 92 33 q 442 -22 319 -22 l 442 -22 m 493 -375 l 547 -285 l 547 -285 q 576 -220 569 -247 q 582 -174 582 -193 l 582 -174 q 549 -98 582 -126 q 457 -69 515 -69 l 457 -69 q 365 -98 399 -69 q 332 -174 332 -126 l 332 -174 q 363 -248 332 -221 q 457 -275 394 -275 l 422 -174 l 356 -375 l 493 -375 "},"Ṡ":{"ha":913,"x_min":18,"x_max":894,"o":"m 442 -22 q 693 23 593 -22 q 844 142 793 68 q 894 306 894 217 l 894 306 q 865 433 894 382 q 788 517 836 485 q 683 568 740 549 q 569 599 626 588 q 463 619 511 610 q 386 644 415 629 q 357 683 357 658 l 357 683 q 369 714 357 700 q 408 736 381 728 q 483 744 436 744 l 483 744 q 615 726 547 744 q 754 672 682 708 l 853 910 l 853 910 q 681 974 776 953 q 486 994 585 994 l 486 994 q 235 950 336 994 q 84 831 135 906 q 33 667 33 757 l 33 667 q 63 537 33 589 q 140 453 92 485 q 245 401 188 421 q 360 370 303 382 q 465 348 417 358 q 542 322 513 338 q 571 281 571 307 l 571 281 q 558 252 571 264 q 519 234 546 240 q 444 228 492 228 l 444 228 q 278 252 364 228 q 124 317 193 276 l 18 78 l 18 78 q 206 6 92 33 q 442 -22 319 -22 l 442 -22 m 457 1038 q 571 1082 526 1038 q 615 1196 615 1126 l 615 1196 q 571 1310 615 1265 q 457 1354 526 1354 l 457 1354 q 343 1310 388 1354 q 299 1196 299 1265 l 299 1196 q 343 1082 299 1126 q 457 1038 388 1038 l 457 1038 "},"Ṣ":{"ha":913,"x_min":18,"x_max":894,"o":"m 442 -22 q 693 23 593 -22 q 844 142 793 68 q 894 306 894 217 l 894 306 q 865 433 894 382 q 788 517 836 485 q 683 568 740 549 q 569 599 626 588 q 463 619 511 610 q 386 644 415 629 q 357 683 357 658 l 357 683 q 369 714 357 700 q 408 736 381 728 q 483 744 436 744 l 483 744 q 615 726 547 744 q 754 672 682 708 l 853 910 l 853 910 q 681 974 776 953 q 486 994 585 994 l 486 994 q 235 950 336 994 q 84 831 135 906 q 33 667 33 757 l 33 667 q 63 537 33 589 q 140 453 92 485 q 245 401 188 421 q 360 370 303 382 q 465 348 417 358 q 542 322 513 338 q 571 281 571 307 l 571 281 q 558 252 571 264 q 519 234 546 240 q 444 228 492 228 l 444 228 q 278 252 364 228 q 124 317 193 276 l 18 78 l 18 78 q 206 6 92 33 q 442 -22 319 -22 l 442 -22 m 457 -365 q 571 -321 526 -365 q 615 -207 615 -276 l 615 -207 q 571 -93 615 -137 q 457 -49 526 -49 l 457 -49 q 343 -93 388 -49 q 299 -207 299 -137 l 299 -207 q 343 -321 299 -276 q 457 -365 388 -365 l 457 -365 "},"Ṩ":{"ha":913,"x_min":18,"x_max":894,"o":"m 442 -22 q 693 23 593 -22 q 844 142 793 68 q 894 306 894 217 l 894 306 q 865 433 894 382 q 788 517 836 485 q 683 568 740 549 q 569 599 626 588 q 463 619 511 610 q 386 644 415 629 q 357 683 357 658 l 357 683 q 369 714 357 700 q 408 736 381 728 q 483 744 436 744 l 483 744 q 615 726 547 744 q 754 672 682 708 l 853 910 l 853 910 q 681 974 776 953 q 486 994 585 994 l 486 994 q 235 950 336 994 q 84 831 135 906 q 33 667 33 757 l 33 667 q 63 537 33 589 q 140 453 92 485 q 245 401 188 421 q 360 370 303 382 q 465 348 417 358 q 542 322 513 338 q 571 281 571 307 l 571 281 q 558 252 571 264 q 519 234 546 240 q 444 228 492 228 l 444 228 q 278 252 364 228 q 124 317 193 276 l 18 78 l 18 78 q 206 6 92 33 q 442 -22 319 -22 l 442 -22 m 457 -365 q 571 -321 526 -365 q 615 -207 615 -276 l 615 -207 q 571 -93 615 -137 q 457 -49 526 -49 l 457 -49 q 343 -93 388 -49 q 299 -207 299 -137 l 299 -207 q 343 -321 299 -276 q 457 -365 388 -365 l 457 -365 m 457 1038 q 571 1082 526 1038 q 615 1196 615 1126 l 615 1196 q 571 1310 615 1265 q 457 1354 526 1354 l 457 1354 q 343 1310 388 1354 q 299 1196 299 1265 l 299 1196 q 343 1082 299 1126 q 457 1038 388 1038 l 457 1038 "},"ẞ":{"ha":1108,"x_min":71,"x_max":1072,"o":"m 686 -22 q 881 15 793 -22 q 1020 124 968 53 q 1072 293 1072 194 l 1072 293 q 1020 463 1072 393 q 884 571 968 533 q 704 608 800 608 l 704 608 q 649 606 674 608 q 601 597 624 603 l 724 428 l 969 715 l 969 903 l 969 903 q 860 953 924 932 q 728 984 796 974 q 599 994 660 994 l 599 994 q 311 938 429 994 q 132 776 193 881 q 71 526 71 671 l 71 0 l 399 0 l 399 519 l 399 519 q 450 685 399 626 q 603 744 501 744 l 603 744 q 728 726 672 744 q 838 676 783 708 l 817 882 l 493 504 l 549 372 l 549 372 q 589 383 567 379 q 635 386 611 386 l 635 386 q 715 366 689 386 q 742 307 742 346 l 742 307 q 715 248 742 268 q 631 228 688 228 l 631 228 q 570 235 603 228 q 513 254 538 243 l 468 10 l 468 10 q 565 -14 511 -6 q 686 -22 618 -22 l 686 -22 "},"Ꞩ":{"ha":899,"x_min":18,"x_max":881,"o":"m 436 -21 q 683 24 585 -21 q 831 141 782 68 q 881 301 881 214 l 881 301 q 851 429 881 378 q 774 513 822 481 q 667 563 725 544 q 550 594 608 582 q 443 616 492 606 q 365 642 394 626 q 336 686 336 658 l 336 686 q 349 723 336 707 q 394 749 363 739 q 476 758 425 758 l 476 758 q 609 740 542 758 q 746 685 676 721 l 839 908 l 839 908 q 672 972 767 950 q 478 993 576 993 l 478 993 q 232 949 331 993 q 84 833 133 906 q 35 671 35 760 l 35 671 q 64 542 35 593 q 142 458 93 490 q 249 406 190 425 q 365 375 307 388 q 471 351 422 363 q 549 324 519 340 q 578 278 578 307 l 578 278 q 564 244 578 258 q 520 222 550 229 q 439 214 490 214 l 439 214 q 269 240 356 214 q 118 306 183 265 l 18 82 l 18 82 q 136 27 68 50 q 282 -8 204 4 q 436 -21 360 -21 l 436 -21 m 624 671 l 489 740 l 235 317 l 374 238 l 624 671 "},"T":{"ha":908,"x_min":6,"x_max":903,"o":"m 618 0 l 618 718 l 903 718 l 903 972 l 6 972 l 6 718 l 290 718 l 290 0 l 618 0 "},"Ŧ":{"ha":908,"x_min":6,"x_max":903,"o":"m 618 0 l 618 718 l 903 718 l 903 972 l 6 972 l 6 718 l 290 718 l 290 0 l 618 0 m 764 342 l 764 531 l 143 531 l 143 342 l 764 342 "},"Ť":{"ha":908,"x_min":6,"x_max":903,"o":"m 618 0 l 618 718 l 903 718 l 903 972 l 6 972 l 6 718 l 290 718 l 290 0 l 618 0 m 588 1051 l 765 1274 l 571 1274 l 374 1093 l 535 1093 l 338 1274 l 143 1274 l 321 1051 l 588 1051 "},"Ţ":{"ha":908,"x_min":6,"x_max":903,"o":"m 618 0 l 618 718 l 903 718 l 903 972 l 6 972 l 6 718 l 290 718 l 290 0 l 618 0 m 397 -333 q 569 -293 504 -333 q 633 -183 633 -253 l 633 -183 q 607 -114 633 -147 q 515 -72 581 -81 l 535 14 l 374 14 l 336 -144 l 393 -144 l 393 -144 q 437 -152 424 -144 q 450 -172 450 -160 l 450 -172 q 435 -196 450 -186 q 383 -206 419 -206 l 383 -206 q 337 -200 358 -206 q 300 -189 315 -194 l 261 -304 l 261 -304 q 324 -325 285 -317 q 397 -333 363 -333 l 397 -333 "},"Ṱ":{"ha":908,"x_min":6,"x_max":903,"o":"m 618 0 l 618 718 l 903 718 l 903 972 l 6 972 l 6 718 l 290 718 l 290 0 l 618 0 m 338 -299 l 535 -118 l 374 -118 l 571 -299 l 765 -299 l 588 -76 l 321 -76 l 143 -299 l 338 -299 "},"Ț":{"ha":908,"x_min":6,"x_max":903,"o":"m 618 0 l 618 718 l 903 718 l 903 972 l 6 972 l 6 718 l 290 718 l 290 0 l 618 0 m 490 -375 l 544 -285 l 544 -285 q 573 -220 567 -247 q 579 -174 579 -193 l 579 -174 q 546 -98 579 -126 q 454 -69 513 -69 l 454 -69 q 363 -98 396 -69 q 329 -174 329 -126 l 329 -174 q 360 -248 329 -221 q 454 -275 392 -275 l 419 -174 l 353 -375 l 490 -375 "},"Ⱦ":{"ha":908,"x_min":6,"x_max":903,"o":"m 604 0 l 604 718 l 903 718 l 903 972 l 6 972 l 6 718 l 304 718 l 304 0 l 604 0 m 318 -97 l 868 1069 l 710 1069 l 160 -97 l 318 -97 "},"Ṫ":{"ha":908,"x_min":6,"x_max":903,"o":"m 618 0 l 618 718 l 903 718 l 903 972 l 6 972 l 6 718 l 290 718 l 290 0 l 618 0 m 454 1038 q 568 1082 524 1038 q 613 1196 613 1126 l 613 1196 q 568 1310 613 1265 q 454 1354 524 1354 l 454 1354 q 340 1310 385 1354 q 296 1196 296 1265 l 296 1196 q 340 1082 296 1126 q 454 1038 385 1038 l 454 1038 "},"Ṭ":{"ha":908,"x_min":6,"x_max":903,"o":"m 618 0 l 618 718 l 903 718 l 903 972 l 6 972 l 6 718 l 290 718 l 290 0 l 618 0 m 454 -365 q 568 -321 524 -365 q 613 -207 613 -276 l 613 -207 q 568 -93 613 -137 q 454 -49 524 -49 l 454 -49 q 340 -93 385 -49 q 296 -207 296 -137 l 296 -207 q 340 -321 296 -276 q 454 -365 385 -365 l 454 -365 "},"Ƭ":{"ha":1086,"x_min":8,"x_max":1081,"o":"m 796 0 l 796 768 l 718 718 l 1081 718 l 1081 972 l 374 972 l 374 972 q 192 938 267 972 q 76 845 118 903 q 21 717 33 788 q 25 575 8 647 q 86 440 42 503 l 322 546 l 322 546 q 296 613 303 582 q 294 667 289 643 q 319 705 300 692 q 368 718 338 718 l 532 718 l 468 768 l 468 0 l 796 0 "},"Ṯ":{"ha":908,"x_min":6,"x_max":903,"o":"m 618 0 l 618 718 l 903 718 l 903 972 l 6 972 l 6 718 l 290 718 l 290 0 l 618 0 m 746 -268 l 746 -104 l 163 -104 l 163 -268 l 746 -268 "},"Ʈ":{"ha":908,"x_min":6,"x_max":903,"o":"m 765 -22 l 765 -22 q 709 -42 736 -37 q 662 -41 682 -47 q 630 -18 642 -35 q 618 25 618 -1 l 618 760 l 290 760 l 290 25 l 290 25 q 341 -162 290 -92 q 474 -264 392 -233 q 653 -287 557 -294 q 842 -240 750 -281 l 765 -22 m 903 718 l 903 972 l 6 972 l 6 718 l 903 718 "},"Ʇ":{"ha":908,"x_min":6,"x_max":903,"o":"m 290 972 l 290 254 l 6 254 l 6 0 l 903 0 l 903 254 l 618 254 l 618 972 l 290 972 "},"U":{"ha":1089,"x_min":71,"x_max":1018,"o":"m 544 -22 q 893 99 768 -22 q 1018 438 1018 219 l 1018 972 l 696 972 l 696 447 l 696 447 q 656 290 696 336 q 547 243 617 243 l 547 243 q 439 290 479 243 q 399 447 399 336 l 399 972 l 71 972 l 71 438 l 71 438 q 196 99 71 219 q 544 -22 321 -22 l 544 -22 "},"Ú":{"ha":1089,"x_min":71,"x_max":1018,"o":"m 544 -22 q 893 99 768 -22 q 1018 438 1018 219 l 1018 972 l 696 972 l 696 447 l 696 447 q 656 290 696 336 q 547 243 617 243 l 547 243 q 439 290 479 243 q 399 447 399 336 l 399 972 l 71 972 l 71 438 l 71 438 q 196 99 71 219 q 544 -22 321 -22 l 544 -22 m 610 1051 l 883 1274 l 585 1274 l 401 1051 l 610 1051 "},"Ʉ":{"ha":1101,"x_min":-21,"x_max":1122,"o":"m 550 -22 q 899 99 774 -22 q 1024 438 1024 219 l 1024 972 l 701 972 l 701 447 l 701 447 q 662 290 701 336 q 553 243 622 243 l 553 243 q 444 290 485 243 q 404 447 404 336 l 404 972 l 76 972 l 76 438 l 76 438 q 201 99 76 219 q 550 -22 326 -22 l 550 -22 m 1122 399 l 1122 588 l -21 588 l -21 399 l 1122 399 "},"Ŭ":{"ha":1089,"x_min":71,"x_max":1018,"o":"m 544 -22 q 893 99 768 -22 q 1018 438 1018 219 l 1018 972 l 696 972 l 696 447 l 696 447 q 656 290 696 336 q 547 243 617 243 l 547 243 q 439 290 479 243 q 399 447 399 336 l 399 972 l 71 972 l 71 438 l 71 438 q 196 99 71 219 q 544 -22 321 -22 l 544 -22 m 547 1051 q 752 1115 672 1051 q 838 1288 832 1178 l 650 1288 l 650 1288 q 619 1226 647 1249 q 547 1203 590 1203 l 547 1203 q 476 1226 504 1203 q 444 1288 447 1249 l 257 1288 l 257 1288 q 342 1115 263 1178 q 547 1051 422 1051 l 547 1051 "},"Ǔ":{"ha":1089,"x_min":71,"x_max":1018,"o":"m 544 -22 q 893 99 768 -22 q 1018 438 1018 219 l 1018 972 l 696 972 l 696 447 l 696 447 q 656 290 696 336 q 547 243 617 243 l 547 243 q 439 290 479 243 q 399 447 399 336 l 399 972 l 71 972 l 71 438 l 71 438 q 196 99 71 219 q 544 -22 321 -22 l 544 -22 m 681 1051 l 858 1274 l 664 1274 l 467 1093 l 628 1093 l 431 1274 l 236 1274 l 414 1051 l 681 1051 "},"Û":{"ha":1089,"x_min":71,"x_max":1018,"o":"m 544 -22 q 893 99 768 -22 q 1018 438 1018 219 l 1018 972 l 696 972 l 696 447 l 696 447 q 656 290 696 336 q 547 243 617 243 l 547 243 q 439 290 479 243 q 399 447 399 336 l 399 972 l 71 972 l 71 438 l 71 438 q 196 99 71 219 q 544 -22 321 -22 l 544 -22 m 431 1051 l 628 1232 l 467 1232 l 664 1051 l 858 1051 l 681 1274 l 414 1274 l 236 1051 l 431 1051 "},"Ṷ":{"ha":1089,"x_min":71,"x_max":1018,"o":"m 544 -22 q 893 99 768 -22 q 1018 438 1018 219 l 1018 972 l 696 972 l 696 447 l 696 447 q 656 290 696 336 q 547 243 617 243 l 547 243 q 439 290 479 243 q 399 447 399 336 l 399 972 l 71 972 l 71 438 l 71 438 q 196 99 71 219 q 544 -22 321 -22 l 544 -22 m 431 -299 l 628 -118 l 467 -118 l 664 -299 l 858 -299 l 681 -76 l 414 -76 l 236 -299 l 431 -299 "},"Ȕ":{"ha":1089,"x_min":71,"x_max":1018,"o":"m 544 -22 q 893 99 768 -22 q 1018 438 1018 219 l 1018 972 l 696 972 l 696 447 l 696 447 q 656 290 696 336 q 547 243 617 243 l 547 243 q 439 290 479 243 q 399 447 399 336 l 399 972 l 71 972 l 71 438 l 71 438 q 196 99 71 219 q 544 -22 321 -22 l 544 -22 m 814 1051 l 742 1274 l 471 1274 l 606 1051 l 814 1051 m 489 1051 l 417 1274 l 146 1274 l 281 1051 l 489 1051 "},"Ü":{"ha":1089,"x_min":71,"x_max":1018,"o":"m 544 -22 q 893 99 768 -22 q 1018 438 1018 219 l 1018 972 l 696 972 l 696 447 l 696 447 q 656 290 696 336 q 547 243 617 243 l 547 243 q 439 290 479 243 q 399 447 399 336 l 399 972 l 71 972 l 71 438 l 71 438 q 196 99 71 219 q 544 -22 321 -22 l 544 -22 m 701 1040 q 790 1074 754 1040 q 826 1163 826 1107 l 826 1163 q 790 1252 826 1218 q 701 1286 754 1286 l 701 1286 q 613 1252 649 1286 q 576 1163 576 1218 l 576 1163 q 613 1074 576 1107 q 701 1040 649 1040 l 701 1040 m 393 1040 q 482 1074 446 1040 q 518 1163 518 1107 l 518 1163 q 482 1252 518 1218 q 393 1286 446 1286 l 393 1286 q 304 1252 340 1286 q 268 1163 268 1218 l 268 1163 q 304 1074 268 1107 q 393 1040 340 1040 l 393 1040 "},"Ǘ":{"ha":1089,"x_min":71,"x_max":1018,"o":"m 544 -22 q 893 99 768 -22 q 1018 438 1018 219 l 1018 972 l 696 972 l 696 447 l 696 447 q 656 290 696 336 q 547 243 617 243 l 547 243 q 439 290 479 243 q 399 447 399 336 l 399 972 l 71 972 l 71 438 l 71 438 q 196 99 71 219 q 544 -22 321 -22 l 544 -22 m 694 1040 q 778 1072 744 1040 q 813 1156 813 1104 l 813 1156 q 778 1240 813 1208 q 694 1272 744 1272 l 694 1272 q 610 1240 644 1272 q 576 1156 576 1208 l 576 1156 q 610 1072 576 1104 q 694 1040 644 1040 l 694 1040 m 400 1040 q 484 1072 450 1040 q 518 1156 518 1104 l 518 1156 q 484 1240 518 1208 q 400 1272 450 1272 l 400 1272 q 316 1240 350 1272 q 282 1156 282 1208 l 282 1156 q 316 1072 282 1104 q 400 1040 350 1040 l 400 1040 m 610 1306 l 842 1486 l 543 1486 l 401 1306 l 610 1306 "},"Ṳ":{"ha":1089,"x_min":71,"x_max":1018,"o":"m 544 -22 q 893 99 768 -22 q 1018 438 1018 219 l 1018 972 l 696 972 l 696 447 l 696 447 q 656 290 696 336 q 547 243 617 243 l 547 243 q 439 290 479 243 q 399 447 399 336 l 399 972 l 71 972 l 71 438 l 71 438 q 196 99 71 219 q 544 -22 321 -22 l 544 -22 m 701 -312 q 790 -279 754 -312 q 826 -190 826 -246 l 826 -190 q 790 -101 826 -135 q 701 -67 754 -67 l 701 -67 q 613 -101 649 -67 q 576 -190 576 -135 l 576 -190 q 613 -279 576 -246 q 701 -312 649 -312 l 701 -312 m 393 -312 q 482 -279 446 -312 q 518 -190 518 -246 l 518 -190 q 482 -101 518 -135 q 393 -67 446 -67 l 393 -67 q 304 -101 340 -67 q 268 -190 268 -135 l 268 -190 q 304 -279 268 -246 q 393 -312 340 -312 l 393 -312 "},"Ǚ":{"ha":1089,"x_min":71,"x_max":1018,"o":"m 544 -22 q 893 99 768 -22 q 1018 438 1018 219 l 1018 972 l 696 972 l 696 447 l 696 447 q 656 290 696 336 q 547 243 617 243 l 547 243 q 439 290 479 243 q 399 447 399 336 l 399 972 l 71 972 l 71 438 l 71 438 q 196 99 71 219 q 544 -22 321 -22 l 544 -22 m 701 1040 q 790 1074 754 1040 q 826 1163 826 1107 l 826 1163 q 790 1252 826 1218 q 701 1286 754 1286 l 701 1286 q 613 1252 649 1286 q 576 1163 576 1218 l 576 1163 q 613 1074 576 1107 q 701 1040 649 1040 l 701 1040 m 393 1040 q 482 1074 446 1040 q 518 1163 518 1107 l 518 1163 q 482 1252 518 1218 q 393 1286 446 1286 l 393 1286 q 304 1252 340 1286 q 268 1163 268 1218 l 268 1163 q 304 1074 268 1107 q 393 1040 340 1040 l 393 1040 m 681 1319 l 858 1542 l 664 1542 l 467 1361 l 628 1361 l 431 1542 l 236 1542 l 414 1319 l 681 1319 "},"Ǜ":{"ha":1089,"x_min":71,"x_max":1018,"o":"m 544 -22 q 893 99 768 -22 q 1018 438 1018 219 l 1018 972 l 696 972 l 696 447 l 696 447 q 656 290 696 336 q 547 243 617 243 l 547 243 q 439 290 479 243 q 399 447 399 336 l 399 972 l 71 972 l 71 438 l 71 438 q 196 99 71 219 q 544 -22 321 -22 l 544 -22 m 694 1040 q 778 1072 744 1040 q 813 1156 813 1104 l 813 1156 q 778 1240 813 1208 q 694 1272 744 1272 l 694 1272 q 610 1240 644 1272 q 576 1156 576 1208 l 576 1156 q 610 1072 576 1104 q 694 1040 644 1040 l 694 1040 m 400 1040 q 484 1072 450 1040 q 518 1156 518 1104 l 518 1156 q 484 1240 518 1208 q 400 1272 450 1272 l 400 1272 q 316 1240 350 1272 q 282 1156 282 1208 l 282 1156 q 316 1072 282 1104 q 400 1040 350 1040 l 400 1040 m 693 1306 l 551 1486 l 253 1486 l 485 1306 l 693 1306 "},"Ǖ":{"ha":1089,"x_min":71,"x_max":1018,"o":"m 544 -22 q 893 99 768 -22 q 1018 438 1018 219 l 1018 972 l 696 972 l 696 447 l 696 447 q 656 290 696 336 q 547 243 617 243 l 547 243 q 439 290 479 243 q 399 447 399 336 l 399 972 l 71 972 l 71 438 l 71 438 q 196 99 71 219 q 544 -22 321 -22 l 544 -22 m 694 1040 q 778 1072 744 1040 q 813 1156 813 1104 l 813 1156 q 778 1240 813 1208 q 694 1272 744 1272 l 694 1272 q 610 1240 644 1272 q 576 1156 576 1208 l 576 1156 q 610 1072 576 1104 q 694 1040 644 1040 l 694 1040 m 400 1040 q 484 1072 450 1040 q 518 1156 518 1104 l 518 1156 q 484 1240 518 1208 q 400 1272 450 1272 l 400 1272 q 316 1240 350 1272 q 282 1156 282 1208 l 282 1156 q 316 1072 282 1104 q 400 1040 350 1040 l 400 1040 m 839 1338 l 839 1493 l 256 1493 l 256 1338 l 839 1338 "},"Ụ":{"ha":1089,"x_min":71,"x_max":1018,"o":"m 544 -22 q 893 99 768 -22 q 1018 438 1018 219 l 1018 972 l 696 972 l 696 447 l 696 447 q 656 290 696 336 q 547 243 617 243 l 547 243 q 439 290 479 243 q 399 447 399 336 l 399 972 l 71 972 l 71 438 l 71 438 q 196 99 71 219 q 544 -22 321 -22 l 544 -22 m 547 -365 q 661 -321 617 -365 q 706 -207 706 -276 l 706 -207 q 661 -93 706 -137 q 547 -49 617 -49 l 547 -49 q 433 -93 478 -49 q 389 -207 389 -137 l 389 -207 q 433 -321 389 -276 q 547 -365 478 -365 l 547 -365 "},"Ù":{"ha":1089,"x_min":71,"x_max":1018,"o":"m 544 -22 q 893 99 768 -22 q 1018 438 1018 219 l 1018 972 l 696 972 l 696 447 l 696 447 q 656 290 696 336 q 547 243 617 243 l 547 243 q 439 290 479 243 q 399 447 399 336 l 399 972 l 71 972 l 71 438 l 71 438 q 196 99 71 219 q 544 -22 321 -22 l 544 -22 m 693 1051 l 510 1274 l 211 1274 l 485 1051 l 693 1051 "},"Ủ":{"ha":1089,"x_min":71,"x_max":1018,"o":"m 544 -22 q 893 99 768 -22 q 1018 438 1018 219 l 1018 972 l 696 972 l 696 447 l 696 447 q 656 290 696 336 q 547 243 617 243 l 547 243 q 439 290 479 243 q 399 447 399 336 l 399 972 l 71 972 l 71 438 l 71 438 q 196 99 71 219 q 544 -22 321 -22 l 544 -22 m 551 1007 q 669 1094 633 1043 q 706 1196 706 1144 l 706 1196 q 680 1284 706 1243 q 608 1350 654 1325 q 503 1375 563 1375 l 503 1375 q 415 1360 461 1375 q 319 1314 368 1346 l 383 1197 l 383 1197 q 463 1225 424 1225 l 463 1225 q 505 1211 489 1225 q 521 1172 521 1197 l 521 1172 q 509 1135 521 1154 q 457 1097 497 1117 l 551 1007 l 551 1007 "},"Ư":{"ha":1117,"x_min":71,"x_max":1181,"o":"m 544 -22 q 893 99 768 -22 q 1018 438 1018 219 l 1018 972 l 696 972 l 696 447 l 696 447 q 656 290 696 336 q 547 243 617 243 l 547 243 q 439 290 479 243 q 399 447 399 336 l 399 972 l 71 972 l 71 438 l 71 438 q 196 99 71 219 q 544 -22 321 -22 l 544 -22 m 889 781 l 889 781 q 1103 849 1026 781 q 1181 1044 1181 918 l 1181 1044 q 1167 1130 1181 1092 q 1129 1199 1153 1168 l 951 1136 l 951 1136 q 972 1101 964 1122 q 979 1057 979 1081 l 979 1057 q 956 995 979 1018 q 903 972 932 972 l 847 972 l 847 781 l 889 781 "},"Ứ":{"ha":1117,"x_min":71,"x_max":1181,"o":"m 544 -22 q 893 99 768 -22 q 1018 438 1018 219 l 1018 972 l 696 972 l 696 447 l 696 447 q 656 290 696 336 q 547 243 617 243 l 547 243 q 439 290 479 243 q 399 447 399 336 l 399 972 l 71 972 l 71 438 l 71 438 q 196 99 71 219 q 544 -22 321 -22 l 544 -22 m 889 781 l 889 781 q 1103 849 1026 781 q 1181 1044 1181 918 l 1181 1044 q 1167 1130 1181 1092 q 1129 1199 1153 1168 l 951 1136 l 951 1136 q 972 1101 964 1122 q 979 1057 979 1081 l 979 1057 q 956 995 979 1018 q 903 972 932 972 l 847 972 l 847 781 l 889 781 m 610 1051 l 883 1274 l 585 1274 l 401 1051 l 610 1051 "},"Ự":{"ha":1117,"x_min":71,"x_max":1181,"o":"m 544 -22 q 893 99 768 -22 q 1018 438 1018 219 l 1018 972 l 696 972 l 696 447 l 696 447 q 656 290 696 336 q 547 243 617 243 l 547 243 q 439 290 479 243 q 399 447 399 336 l 399 972 l 71 972 l 71 438 l 71 438 q 196 99 71 219 q 544 -22 321 -22 l 544 -22 m 889 781 l 889 781 q 1103 849 1026 781 q 1181 1044 1181 918 l 1181 1044 q 1167 1130 1181 1092 q 1129 1199 1153 1168 l 951 1136 l 951 1136 q 972 1101 964 1122 q 979 1057 979 1081 l 979 1057 q 956 995 979 1018 q 903 972 932 972 l 847 972 l 847 781 l 889 781 m 547 -365 q 661 -321 617 -365 q 706 -207 706 -276 l 706 -207 q 661 -93 706 -137 q 547 -49 617 -49 l 547 -49 q 433 -93 478 -49 q 389 -207 389 -137 l 389 -207 q 433 -321 389 -276 q 547 -365 478 -365 l 547 -365 "},"Ừ":{"ha":1117,"x_min":71,"x_max":1181,"o":"m 544 -22 q 893 99 768 -22 q 1018 438 1018 219 l 1018 972 l 696 972 l 696 447 l 696 447 q 656 290 696 336 q 547 243 617 243 l 547 243 q 439 290 479 243 q 399 447 399 336 l 399 972 l 71 972 l 71 438 l 71 438 q 196 99 71 219 q 544 -22 321 -22 l 544 -22 m 889 781 l 889 781 q 1103 849 1026 781 q 1181 1044 1181 918 l 1181 1044 q 1167 1130 1181 1092 q 1129 1199 1153 1168 l 951 1136 l 951 1136 q 972 1101 964 1122 q 979 1057 979 1081 l 979 1057 q 956 995 979 1018 q 903 972 932 972 l 847 972 l 847 781 l 889 781 m 693 1051 l 510 1274 l 211 1274 l 485 1051 l 693 1051 "},"Ử":{"ha":1117,"x_min":71,"x_max":1181,"o":"m 544 -22 q 893 99 768 -22 q 1018 438 1018 219 l 1018 972 l 696 972 l 696 447 l 696 447 q 656 290 696 336 q 547 243 617 243 l 547 243 q 439 290 479 243 q 399 447 399 336 l 399 972 l 71 972 l 71 438 l 71 438 q 196 99 71 219 q 544 -22 321 -22 l 544 -22 m 889 781 l 889 781 q 1103 849 1026 781 q 1181 1044 1181 918 l 1181 1044 q 1167 1130 1181 1092 q 1129 1199 1153 1168 l 951 1136 l 951 1136 q 972 1101 964 1122 q 979 1057 979 1081 l 979 1057 q 956 995 979 1018 q 903 972 932 972 l 847 972 l 847 781 l 889 781 m 551 1007 q 669 1094 633 1043 q 706 1196 706 1144 l 706 1196 q 680 1284 706 1243 q 608 1350 654 1325 q 503 1375 563 1375 l 503 1375 q 415 1360 461 1375 q 319 1314 368 1346 l 383 1197 l 383 1197 q 463 1225 424 1225 l 463 1225 q 505 1211 489 1225 q 521 1172 521 1197 l 521 1172 q 509 1135 521 1154 q 457 1097 497 1117 l 551 1007 l 551 1007 "},"Ữ":{"ha":1117,"x_min":71,"x_max":1181,"o":"m 544 -22 q 893 99 768 -22 q 1018 438 1018 219 l 1018 972 l 696 972 l 696 447 l 696 447 q 656 290 696 336 q 547 243 617 243 l 547 243 q 439 290 479 243 q 399 447 399 336 l 399 972 l 71 972 l 71 438 l 71 438 q 196 99 71 219 q 544 -22 321 -22 l 544 -22 m 889 781 l 889 781 q 1103 849 1026 781 q 1181 1044 1181 918 l 1181 1044 q 1167 1130 1181 1092 q 1129 1199 1153 1168 l 951 1136 l 951 1136 q 972 1101 964 1122 q 979 1057 979 1081 l 979 1057 q 956 995 979 1018 q 903 972 932 972 l 847 972 l 847 781 l 889 781 m 660 1038 q 799 1103 749 1038 q 851 1274 850 1168 l 703 1274 l 703 1274 q 685 1227 701 1244 q 640 1210 668 1210 l 640 1210 q 602 1222 622 1210 q 558 1251 582 1235 q 503 1279 533 1267 q 435 1292 474 1292 l 435 1292 q 296 1226 346 1292 q 243 1051 246 1161 l 392 1051 l 392 1051 q 411 1101 394 1083 q 454 1119 428 1119 l 454 1119 q 493 1107 474 1119 q 537 1078 513 1094 q 591 1050 561 1063 q 660 1038 621 1038 l 660 1038 "},"Ű":{"ha":1089,"x_min":71,"x_max":1018,"o":"m 544 -22 q 893 99 768 -22 q 1018 438 1018 219 l 1018 972 l 696 972 l 696 447 l 696 447 q 656 290 696 336 q 547 243 617 243 l 547 243 q 439 290 479 243 q 399 447 399 336 l 399 972 l 71 972 l 71 438 l 71 438 q 196 99 71 219 q 544 -22 321 -22 l 544 -22 m 814 1051 l 949 1274 l 678 1274 l 606 1051 l 814 1051 m 489 1051 l 624 1274 l 353 1274 l 281 1051 l 489 1051 "},"Ȗ":{"ha":1089,"x_min":71,"x_max":1018,"o":"m 544 -22 q 893 99 768 -22 q 1018 438 1018 219 l 1018 972 l 696 972 l 696 447 l 696 447 q 656 290 696 336 q 547 243 617 243 l 547 243 q 439 290 479 243 q 399 447 399 336 l 399 972 l 71 972 l 71 438 l 71 438 q 196 99 71 219 q 544 -22 321 -22 l 544 -22 m 444 1051 l 444 1051 q 476 1113 447 1090 q 547 1136 504 1136 l 547 1136 q 619 1113 590 1136 q 650 1051 647 1090 l 838 1051 l 838 1051 q 752 1224 832 1161 q 547 1288 672 1288 l 547 1288 q 342 1224 422 1288 q 257 1051 263 1161 l 444 1051 "},"Ū":{"ha":1089,"x_min":71,"x_max":1018,"o":"m 544 -22 q 893 99 768 -22 q 1018 438 1018 219 l 1018 972 l 696 972 l 696 447 l 696 447 q 656 290 696 336 q 547 243 617 243 l 547 243 q 439 290 479 243 q 399 447 399 336 l 399 972 l 71 972 l 71 438 l 71 438 q 196 99 71 219 q 544 -22 321 -22 l 544 -22 m 839 1081 l 839 1244 l 256 1244 l 256 1081 l 839 1081 "},"Ṻ":{"ha":1089,"x_min":71,"x_max":1018,"o":"m 544 -22 q 893 99 768 -22 q 1018 438 1018 219 l 1018 972 l 696 972 l 696 447 l 696 447 q 656 290 696 336 q 547 243 617 243 l 547 243 q 439 290 479 243 q 399 447 399 336 l 399 972 l 71 972 l 71 438 l 71 438 q 196 99 71 219 q 544 -22 321 -22 l 544 -22 m 839 1064 l 839 1219 l 256 1219 l 256 1064 l 839 1064 m 694 1293 q 778 1325 744 1293 q 813 1408 813 1357 l 813 1408 q 778 1493 813 1461 q 694 1525 744 1525 l 694 1525 q 610 1493 644 1525 q 576 1408 576 1461 l 576 1408 q 610 1325 576 1357 q 694 1293 644 1293 l 694 1293 m 400 1293 q 484 1325 450 1293 q 518 1408 518 1357 l 518 1408 q 484 1493 518 1461 q 400 1525 450 1525 l 400 1525 q 316 1493 350 1525 q 282 1408 282 1461 l 282 1408 q 316 1325 282 1357 q 400 1293 350 1293 l 400 1293 "},"Ų":{"ha":1089,"x_min":71,"x_max":1018,"o":"m 594 -333 q 683 -324 639 -333 q 751 -301 726 -315 l 714 -172 l 714 -172 q 677 -185 699 -179 q 632 -192 656 -192 l 632 -192 q 576 -175 593 -192 q 558 -135 558 -158 l 558 -135 q 575 -91 558 -112 q 634 -44 592 -69 q 750 10 676 -19 l 750 10 q 944 161 869 57 q 1018 438 1018 265 l 1018 972 l 696 972 l 696 447 l 696 447 q 656 290 696 336 q 547 243 617 243 l 547 243 q 439 290 479 243 q 399 447 399 336 l 399 972 l 71 972 l 71 438 l 71 438 q 196 99 71 219 q 544 -22 321 -22 l 544 -22 q 579 -22 563 -22 q 614 -19 596 -21 l 607 68 l 607 68 q 481 11 533 46 q 402 -67 429 -24 q 375 -162 375 -111 l 375 -162 q 433 -287 375 -240 q 594 -333 490 -333 l 594 -333 "},"Ʊ":{"ha":1192,"x_min":39,"x_max":1153,"o":"m 653 972 l 653 736 l 653 736 q 770 628 726 699 q 814 471 814 558 l 814 471 q 797 373 814 415 q 751 301 781 331 q 681 258 721 272 q 596 243 642 243 l 596 243 q 510 258 550 243 q 441 301 471 272 q 394 373 411 331 q 378 471 378 415 l 378 471 q 421 627 378 557 q 539 736 464 697 l 539 972 l 39 972 l 39 718 l 164 718 l 164 718 q 84 592 115 667 q 53 426 53 518 l 53 426 q 94 245 53 328 q 208 103 135 163 q 381 10 282 43 q 596 -22 481 -22 l 596 -22 q 810 10 711 -22 q 983 103 910 43 q 1098 244 1057 163 q 1139 425 1139 326 l 1139 425 q 1108 592 1139 517 q 1028 718 1076 667 l 1153 718 l 1153 972 l 653 972 "},"Ů":{"ha":1089,"x_min":71,"x_max":1018,"o":"m 544 -22 q 893 99 768 -22 q 1018 438 1018 219 l 1018 972 l 696 972 l 696 447 l 696 447 q 656 290 696 336 q 547 243 617 243 l 547 243 q 439 290 479 243 q 399 447 399 336 l 399 972 l 71 972 l 71 438 l 71 438 q 196 99 71 219 q 544 -22 321 -22 l 544 -22 m 547 1021 q 647 1046 603 1021 q 716 1113 690 1071 q 742 1207 742 1156 l 742 1207 q 716 1301 742 1260 q 647 1368 690 1343 q 547 1393 603 1393 l 547 1393 q 449 1368 493 1393 q 378 1301 404 1343 q 353 1207 353 1260 l 353 1207 q 378 1113 353 1156 q 449 1046 404 1071 q 547 1021 493 1021 l 547 1021 m 547 1132 q 494 1153 517 1132 q 472 1207 472 1174 l 472 1207 q 494 1261 472 1240 q 547 1282 517 1282 l 547 1282 q 601 1261 579 1282 q 622 1207 622 1240 l 622 1207 q 601 1153 622 1174 q 547 1132 579 1132 l 547 1132 "},"Ũ":{"ha":1089,"x_min":71,"x_max":1018,"o":"m 544 -22 q 893 99 768 -22 q 1018 438 1018 219 l 1018 972 l 696 972 l 696 447 l 696 447 q 656 290 696 336 q 547 243 617 243 l 547 243 q 439 290 479 243 q 399 447 399 336 l 399 972 l 71 972 l 71 438 l 71 438 q 196 99 71 219 q 544 -22 321 -22 l 544 -22 m 660 1038 q 799 1103 749 1038 q 851 1274 850 1168 l 703 1274 l 703 1274 q 685 1227 701 1244 q 640 1210 668 1210 l 640 1210 q 602 1222 622 1210 q 558 1251 582 1235 q 503 1279 533 1267 q 435 1292 474 1292 l 435 1292 q 296 1226 346 1292 q 243 1051 246 1161 l 392 1051 l 392 1051 q 411 1101 394 1083 q 454 1119 428 1119 l 454 1119 q 493 1107 474 1119 q 537 1078 513 1094 q 591 1050 561 1063 q 660 1038 621 1038 l 660 1038 "},"Ṹ":{"ha":1089,"x_min":71,"x_max":1018,"o":"m 544 -22 q 893 99 768 -22 q 1018 438 1018 219 l 1018 972 l 696 972 l 696 447 l 696 447 q 656 290 696 336 q 547 243 617 243 l 547 243 q 439 290 479 243 q 399 447 399 336 l 399 972 l 71 972 l 71 438 l 71 438 q 196 99 71 219 q 544 -22 321 -22 l 544 -22 m 660 1038 q 795 1090 746 1038 q 844 1238 844 1142 l 696 1238 l 696 1238 q 678 1196 694 1214 q 638 1178 663 1178 l 638 1178 q 586 1196 611 1178 q 526 1232 561 1214 q 436 1250 492 1250 l 436 1250 q 301 1197 351 1250 q 250 1050 250 1144 l 403 1050 l 403 1050 q 422 1093 406 1076 q 461 1110 438 1110 l 461 1110 q 500 1099 482 1110 q 538 1074 518 1088 q 588 1049 558 1060 q 660 1038 617 1038 l 660 1038 m 610 1306 l 842 1486 l 543 1486 l 401 1306 l 610 1306 "},"Ṵ":{"ha":1089,"x_min":71,"x_max":1018,"o":"m 544 -22 q 893 99 768 -22 q 1018 438 1018 219 l 1018 972 l 696 972 l 696 447 l 696 447 q 656 290 696 336 q 547 243 617 243 l 547 243 q 439 290 479 243 q 399 447 399 336 l 399 972 l 71 972 l 71 438 l 71 438 q 196 99 71 219 q 544 -22 321 -22 l 544 -22 m 660 -315 q 799 -250 749 -315 q 851 -79 850 -185 l 703 -79 l 703 -79 q 685 -126 701 -108 q 640 -143 668 -143 l 640 -143 q 602 -131 622 -143 q 558 -102 582 -118 q 503 -74 533 -86 q 435 -61 474 -61 l 435 -61 q 296 -126 346 -61 q 243 -301 246 -192 l 392 -301 l 392 -301 q 411 -251 394 -269 q 454 -233 428 -233 l 454 -233 q 493 -246 474 -233 q 537 -274 513 -258 q 591 -303 561 -290 q 660 -315 621 -315 l 660 -315 "},"V":{"ha":1092,"x_min":-26,"x_max":1118,"o":"m 707 0 l 1118 972 l 796 972 l 451 151 l 661 151 l 326 972 l -26 972 l 385 0 l 707 0 "},"Ɣ":{"ha":986,"x_min":-40,"x_max":1049,"o":"m 507 -290 q 651 -262 586 -290 q 753 -180 715 -235 q 792 -44 792 -125 l 792 -44 q 769 76 792 18 q 711 192 746 135 q 639 309 676 250 q 571 431 601 368 l 313 972 l -40 972 l 335 238 l 335 238 q 385 176 347 213 q 464 100 422 140 q 536 19 506 60 q 567 -57 567 -21 l 567 -57 q 547 -101 567 -85 q 504 -117 528 -117 l 504 -117 q 460 -101 481 -117 q 439 -56 439 -85 l 439 -56 q 469 18 439 -19 q 544 96 500 56 q 628 177 588 136 q 689 258 668 218 l 1049 972 l 726 972 l 464 431 l 464 431 q 386 297 429 358 q 303 182 343 236 q 239 72 264 128 q 214 -46 214 17 l 214 -46 q 254 -179 214 -125 q 361 -262 294 -233 q 507 -290 428 -290 l 507 -290 "},"Ṿ":{"ha":1092,"x_min":-26,"x_max":1118,"o":"m 707 0 l 1118 972 l 796 972 l 451 151 l 661 151 l 326 972 l -26 972 l 385 0 l 707 0 m 546 -365 q 660 -321 615 -365 q 704 -207 704 -276 l 704 -207 q 660 -93 704 -137 q 546 -49 615 -49 l 546 -49 q 432 -93 476 -49 q 388 -207 388 -137 l 388 -207 q 432 -321 388 -276 q 546 -365 476 -365 l 546 -365 "},"Ʋ":{"ha":1074,"x_min":65,"x_max":1018,"o":"m 539 -22 q 892 99 767 -22 q 1018 438 1018 219 l 1018 704 l 1018 704 q 974 885 1018 817 q 855 984 929 953 q 692 1014 781 1015 q 514 986 603 1013 l 567 765 l 567 765 q 615 777 593 776 q 654 768 638 778 q 681 738 671 758 q 690 686 690 718 l 690 447 l 690 447 q 651 290 690 336 q 542 243 611 243 l 542 243 q 433 290 474 243 q 393 447 393 336 l 393 972 l 65 972 l 65 438 l 65 438 q 190 99 65 219 q 539 -22 315 -22 l 539 -22 "},"Ṽ":{"ha":1092,"x_min":-26,"x_max":1118,"o":"m 707 0 l 1118 972 l 796 972 l 451 151 l 661 151 l 326 972 l -26 972 l 385 0 l 707 0 m 658 1038 q 798 1103 747 1038 q 850 1274 849 1168 l 701 1274 l 701 1274 q 683 1227 700 1244 q 639 1210 667 1210 l 639 1210 q 601 1222 621 1210 q 556 1251 581 1235 q 502 1279 532 1267 q 433 1292 472 1292 l 433 1292 q 294 1226 344 1292 q 242 1051 244 1161 l 390 1051 l 390 1051 q 410 1101 393 1083 q 453 1119 426 1119 l 453 1119 q 492 1107 472 1119 q 535 1078 511 1094 q 590 1050 560 1063 q 658 1038 619 1038 l 658 1038 "},"Ʌ":{"ha":1092,"x_min":-26,"x_max":1118,"o":"m 385 972 l -26 0 l 296 0 l 640 821 l 431 821 l 765 0 l 1118 0 l 707 972 l 385 972 "},"W":{"ha":1675,"x_min":14,"x_max":1661,"o":"m 676 0 l 890 672 l 796 672 l 999 0 l 1350 0 l 1661 972 l 1350 972 l 1088 151 l 1250 151 l 1001 972 l 700 972 l 433 151 l 603 151 l 351 972 l 14 972 l 325 0 l 676 0 "},"Ẃ":{"ha":1675,"x_min":14,"x_max":1661,"o":"m 676 0 l 890 672 l 796 672 l 999 0 l 1350 0 l 1661 972 l 1350 972 l 1088 151 l 1250 151 l 1001 972 l 700 972 l 433 151 l 603 151 l 351 972 l 14 972 l 325 0 l 676 0 m 900 1051 l 1174 1274 l 875 1274 l 692 1051 l 900 1051 "},"Ŵ":{"ha":1675,"x_min":14,"x_max":1661,"o":"m 676 0 l 890 672 l 796 672 l 999 0 l 1350 0 l 1661 972 l 1350 972 l 1088 151 l 1250 151 l 1001 972 l 700 972 l 433 151 l 603 151 l 351 972 l 14 972 l 325 0 l 676 0 m 721 1051 l 918 1232 l 757 1232 l 954 1051 l 1149 1051 l 971 1274 l 704 1274 l 526 1051 l 721 1051 "},"Ẅ":{"ha":1675,"x_min":14,"x_max":1661,"o":"m 676 0 l 890 672 l 796 672 l 999 0 l 1350 0 l 1661 972 l 1350 972 l 1088 151 l 1250 151 l 1001 972 l 700 972 l 433 151 l 603 151 l 351 972 l 14 972 l 325 0 l 676 0 m 992 1040 q 1081 1074 1044 1040 q 1117 1163 1117 1107 l 1117 1163 q 1081 1252 1117 1218 q 992 1286 1044 1286 l 992 1286 q 903 1252 939 1286 q 867 1163 867 1218 l 867 1163 q 903 1074 867 1107 q 992 1040 939 1040 l 992 1040 m 683 1040 q 772 1074 736 1040 q 808 1163 808 1107 l 808 1163 q 772 1252 808 1218 q 683 1286 736 1286 l 683 1286 q 594 1252 631 1286 q 558 1163 558 1218 l 558 1163 q 594 1074 558 1107 q 683 1040 631 1040 l 683 1040 "},"Ẇ":{"ha":1675,"x_min":14,"x_max":1661,"o":"m 676 0 l 890 672 l 796 672 l 999 0 l 1350 0 l 1661 972 l 1350 972 l 1088 151 l 1250 151 l 1001 972 l 700 972 l 433 151 l 603 151 l 351 972 l 14 972 l 325 0 l 676 0 m 838 1038 q 951 1082 907 1038 q 996 1196 996 1126 l 996 1196 q 951 1310 996 1265 q 838 1354 907 1354 l 838 1354 q 724 1310 768 1354 q 679 1196 679 1265 l 679 1196 q 724 1082 679 1126 q 838 1038 768 1038 l 838 1038 "},"Ẉ":{"ha":1675,"x_min":14,"x_max":1661,"o":"m 676 0 l 890 672 l 796 672 l 999 0 l 1350 0 l 1661 972 l 1350 972 l 1088 151 l 1250 151 l 1001 972 l 700 972 l 433 151 l 603 151 l 351 972 l 14 972 l 325 0 l 676 0 m 838 -365 q 951 -321 907 -365 q 996 -207 996 -276 l 996 -207 q 951 -93 996 -137 q 838 -49 907 -49 l 838 -49 q 724 -93 768 -49 q 679 -207 679 -137 l 679 -207 q 724 -321 679 -276 q 838 -365 768 -365 l 838 -365 "},"Ẁ":{"ha":1675,"x_min":14,"x_max":1661,"o":"m 676 0 l 890 672 l 796 672 l 999 0 l 1350 0 l 1661 972 l 1350 972 l 1088 151 l 1250 151 l 1001 972 l 700 972 l 433 151 l 603 151 l 351 972 l 14 972 l 325 0 l 676 0 m 983 1051 l 800 1274 l 501 1274 l 775 1051 l 983 1051 "},"Ⱳ":{"ha":1728,"x_min":14,"x_max":1747,"o":"m 676 0 l 890 672 l 796 672 l 1003 0 l 1350 0 l 1563 706 l 1563 706 q 1602 762 1575 747 q 1668 758 1629 776 l 1747 993 l 1747 993 q 1623 1040 1690 1026 q 1490 1035 1556 1053 q 1370 962 1425 1018 q 1283 799 1315 906 l 1088 151 l 1250 151 l 1001 972 l 700 972 l 433 151 l 603 151 l 351 972 l 14 972 l 325 0 l 676 0 "},"X":{"ha":1058,"x_min":-11,"x_max":1069,"o":"m 363 0 l 601 379 l 450 378 l 694 0 l 1069 0 l 629 617 l 629 389 l 1049 972 l 696 972 l 457 610 l 614 611 l 369 972 l 1 972 l 421 376 l 422 606 l -11 0 l 363 0 "},"Ẍ":{"ha":1058,"x_min":-11,"x_max":1069,"o":"m 363 0 l 601 379 l 450 378 l 694 0 l 1069 0 l 629 617 l 629 389 l 1049 972 l 696 972 l 457 610 l 614 611 l 369 972 l 1 972 l 421 376 l 422 606 l -11 0 l 363 0 m 683 1040 q 772 1074 736 1040 q 808 1163 808 1107 l 808 1163 q 772 1252 808 1218 q 683 1286 736 1286 l 683 1286 q 594 1252 631 1286 q 558 1163 558 1218 l 558 1163 q 594 1074 558 1107 q 683 1040 631 1040 l 683 1040 m 375 1040 q 464 1074 428 1040 q 500 1163 500 1107 l 500 1163 q 464 1252 500 1218 q 375 1286 428 1286 l 375 1286 q 286 1252 322 1286 q 250 1163 250 1218 l 250 1163 q 286 1074 250 1107 q 375 1040 322 1040 l 375 1040 "},"Ẋ":{"ha":1058,"x_min":-11,"x_max":1069,"o":"m 363 0 l 601 379 l 450 378 l 694 0 l 1069 0 l 629 617 l 629 389 l 1049 972 l 696 972 l 457 610 l 614 611 l 369 972 l 1 972 l 421 376 l 422 606 l -11 0 l 363 0 m 529 1038 q 643 1082 599 1038 q 688 1196 688 1126 l 688 1196 q 643 1310 688 1265 q 529 1354 599 1354 l 529 1354 q 415 1310 460 1354 q 371 1196 371 1265 l 371 1196 q 415 1082 371 1126 q 529 1038 460 1038 l 529 1038 "},"Y":{"ha":986,"x_min":-37,"x_max":1024,"o":"m 657 0 l 657 426 l 585 231 l 1024 972 l 707 972 l 406 465 l 607 465 l 308 972 l -37 972 l 404 231 l 329 426 l 329 0 l 657 0 "},"Ý":{"ha":986,"x_min":-37,"x_max":1024,"o":"m 657 0 l 657 426 l 585 231 l 1024 972 l 707 972 l 406 465 l 607 465 l 308 972 l -37 972 l 404 231 l 329 426 l 329 0 l 657 0 m 556 1051 l 829 1274 l 531 1274 l 347 1051 l 556 1051 "},"Ŷ":{"ha":986,"x_min":-37,"x_max":1024,"o":"m 657 0 l 657 426 l 585 231 l 1024 972 l 707 972 l 406 465 l 607 465 l 308 972 l -37 972 l 404 231 l 329 426 l 329 0 l 657 0 m 376 1051 l 574 1232 l 413 1232 l 610 1051 l 804 1051 l 626 1274 l 360 1274 l 182 1051 l 376 1051 "},"Ÿ":{"ha":986,"x_min":-37,"x_max":1024,"o":"m 657 0 l 657 426 l 585 231 l 1024 972 l 707 972 l 406 465 l 607 465 l 308 972 l -37 972 l 404 231 l 329 426 l 329 0 l 657 0 m 647 1040 q 736 1074 700 1040 q 772 1163 772 1107 l 772 1163 q 736 1252 772 1218 q 647 1286 700 1286 l 647 1286 q 558 1252 594 1286 q 522 1163 522 1218 l 522 1163 q 558 1074 522 1107 q 647 1040 594 1040 l 647 1040 m 339 1040 q 428 1074 392 1040 q 464 1163 464 1107 l 464 1163 q 428 1252 464 1218 q 339 1286 392 1286 l 339 1286 q 250 1252 286 1286 q 214 1163 214 1218 l 214 1163 q 250 1074 214 1107 q 339 1040 286 1040 l 339 1040 "},"Ẏ":{"ha":986,"x_min":-37,"x_max":1024,"o":"m 657 0 l 657 426 l 585 231 l 1024 972 l 707 972 l 406 465 l 607 465 l 308 972 l -37 972 l 404 231 l 329 426 l 329 0 l 657 0 m 493 1038 q 607 1082 563 1038 q 651 1196 651 1126 l 651 1196 q 607 1310 651 1265 q 493 1354 563 1354 l 493 1354 q 379 1310 424 1354 q 335 1196 335 1265 l 335 1196 q 379 1082 335 1126 q 493 1038 424 1038 l 493 1038 "},"Ỵ":{"ha":986,"x_min":-37,"x_max":1024,"o":"m 657 0 l 657 426 l 585 231 l 1024 972 l 707 972 l 406 465 l 607 465 l 308 972 l -37 972 l 404 231 l 329 426 l 329 0 l 657 0 m 493 -365 q 607 -321 563 -365 q 651 -207 651 -276 l 651 -207 q 607 -93 651 -137 q 493 -49 563 -49 l 493 -49 q 379 -93 424 -49 q 335 -207 335 -137 l 335 -207 q 379 -321 335 -276 q 493 -365 424 -365 l 493 -365 "},"Ỳ":{"ha":986,"x_min":-37,"x_max":1024,"o":"m 657 0 l 657 426 l 585 231 l 1024 972 l 707 972 l 406 465 l 607 465 l 308 972 l -37 972 l 404 231 l 329 426 l 329 0 l 657 0 m 639 1051 l 456 1274 l 157 1274 l 431 1051 l 639 1051 "},"Ƴ":{"ha":1039,"x_min":-37,"x_max":1075,"o":"m 1075 988 q 931 1044 1007 1033 q 784 1019 856 1056 q 654 883 713 982 l 407 465 l 608 465 l 307 972 l -37 972 l 404 231 l 329 426 l 329 0 l 657 0 l 657 426 l 586 231 l 879 725 l 879 725 q 925 768 899 757 q 990 756 951 779 l 1075 988 l 1075 988 "},"Ỷ":{"ha":986,"x_min":-37,"x_max":1024,"o":"m 657 0 l 657 426 l 585 231 l 1024 972 l 707 972 l 406 465 l 607 465 l 308 972 l -37 972 l 404 231 l 329 426 l 329 0 l 657 0 m 497 1007 q 615 1094 579 1043 q 651 1196 651 1144 l 651 1196 q 626 1284 651 1243 q 554 1350 600 1325 q 449 1375 508 1375 l 449 1375 q 360 1360 407 1375 q 265 1314 314 1346 l 329 1197 l 329 1197 q 408 1225 369 1225 l 408 1225 q 451 1211 435 1225 q 467 1172 467 1197 l 467 1172 q 455 1135 467 1154 q 403 1097 443 1117 l 497 1007 l 497 1007 "},"Ȳ":{"ha":986,"x_min":-37,"x_max":1024,"o":"m 657 0 l 657 426 l 585 231 l 1024 972 l 707 972 l 406 465 l 607 465 l 308 972 l -37 972 l 404 231 l 329 426 l 329 0 l 657 0 m 785 1081 l 785 1244 l 201 1244 l 201 1081 l 785 1081 "},"Ʀ":{"ha":1035,"x_min":79,"x_max":1011,"o":"m 547 168 l 547 168 q 783 212 683 168 q 936 336 882 256 q 990 529 990 417 l 990 529 q 874 797 990 699 q 533 896 757 896 l 247 896 l 247 643 l 526 643 l 526 643 q 627 613 594 643 q 660 529 660 582 l 660 529 q 627 446 660 476 q 526 415 594 415 l 247 415 l 247 168 l 547 168 m 407 0 l 407 972 l 79 972 l 79 0 l 407 0 m 1011 -139 l 792 229 l 444 229 l 661 -139 l 1011 -139 "},"Ɏ":{"ha":986,"x_min":-37,"x_max":1024,"o":"m 657 0 l 657 399 l 585 203 l 1024 972 l 735 972 l 461 469 l 551 469 l 281 972 l -37 972 l 404 203 l 329 399 l 329 0 l 657 0 m 1003 690 l 1003 879 l -18 879 l -18 690 l 1003 690 "},"Ỹ":{"ha":986,"x_min":-37,"x_max":1024,"o":"m 657 0 l 657 426 l 585 231 l 1024 972 l 707 972 l 406 465 l 607 465 l 308 972 l -37 972 l 404 231 l 329 426 l 329 0 l 657 0 m 606 1038 q 745 1103 694 1038 q 797 1274 796 1168 l 649 1274 l 649 1274 q 631 1227 647 1244 q 586 1210 614 1210 l 586 1210 q 548 1222 568 1210 q 503 1251 528 1235 q 449 1279 479 1267 q 381 1292 419 1292 l 381 1292 q 242 1226 292 1292 q 189 1051 192 1161 l 338 1051 l 338 1051 q 357 1101 340 1083 q 400 1119 374 1119 l 400 1119 q 439 1107 419 1119 q 483 1078 458 1094 q 537 1050 507 1063 q 606 1038 567 1038 l 606 1038 "},"Z":{"ha":954,"x_min":44,"x_max":938,"o":"m 938 0 l 938 254 l 333 254 l 374 140 l 915 771 l 915 972 l 58 972 l 58 718 l 626 718 l 586 832 l 44 201 l 44 0 l 938 0 "},"Ź":{"ha":954,"x_min":44,"x_max":938,"o":"m 938 0 l 938 254 l 333 254 l 374 140 l 915 771 l 915 972 l 58 972 l 58 718 l 626 718 l 586 832 l 44 201 l 44 0 l 938 0 m 554 1051 l 828 1274 l 529 1274 l 346 1051 l 554 1051 "},"Ž":{"ha":954,"x_min":44,"x_max":938,"o":"m 938 0 l 938 254 l 333 254 l 374 140 l 915 771 l 915 972 l 58 972 l 58 718 l 626 718 l 586 832 l 44 201 l 44 0 l 938 0 m 625 1051 l 803 1274 l 608 1274 l 411 1093 l 572 1093 l 375 1274 l 181 1274 l 358 1051 l 625 1051 "},"Ẑ":{"ha":954,"x_min":44,"x_max":938,"o":"m 938 0 l 938 254 l 333 254 l 374 140 l 915 771 l 915 972 l 58 972 l 58 718 l 626 718 l 586 832 l 44 201 l 44 0 l 938 0 m 375 1051 l 572 1232 l 411 1232 l 608 1051 l 803 1051 l 625 1274 l 358 1274 l 181 1051 l 375 1051 "},"Ż":{"ha":954,"x_min":44,"x_max":938,"o":"m 938 0 l 938 254 l 333 254 l 374 140 l 915 771 l 915 972 l 58 972 l 58 718 l 626 718 l 586 832 l 44 201 l 44 0 l 938 0 m 492 1038 q 606 1082 561 1038 q 650 1196 650 1126 l 650 1196 q 606 1310 650 1265 q 492 1354 561 1354 l 492 1354 q 378 1310 422 1354 q 333 1196 333 1265 l 333 1196 q 378 1082 333 1126 q 492 1038 422 1038 l 492 1038 "},"Ẓ":{"ha":954,"x_min":44,"x_max":938,"o":"m 938 0 l 938 254 l 333 254 l 374 140 l 915 771 l 915 972 l 58 972 l 58 718 l 626 718 l 586 832 l 44 201 l 44 0 l 938 0 m 492 -365 q 606 -321 561 -365 q 650 -207 650 -276 l 650 -207 q 606 -93 650 -137 q 492 -49 561 -49 l 492 -49 q 378 -93 422 -49 q 333 -207 333 -137 l 333 -207 q 378 -321 333 -276 q 492 -365 422 -365 l 492 -365 "},"Ẕ":{"ha":954,"x_min":44,"x_max":938,"o":"m 938 0 l 938 254 l 333 254 l 374 140 l 915 771 l 915 972 l 58 972 l 58 718 l 626 718 l 586 832 l 44 201 l 44 0 l 938 0 m 783 -268 l 783 -104 l 200 -104 l 200 -268 l 783 -268 "},"Ƶ":{"ha":954,"x_min":44,"x_max":938,"o":"m 938 0 l 938 254 l 333 254 l 374 140 l 915 771 l 915 972 l 58 972 l 58 718 l 626 718 l 586 832 l 44 201 l 44 0 l 938 0 m 825 399 l 825 588 l 149 588 l 149 399 l 825 399 "},"Ꞌ":{"ha":475,"x_min":76,"x_max":399,"o":"m 357 411 l 399 974 l 76 974 l 76 411 l 357 411 "},"ɪ":{"ha":606,"x_min":32,"x_max":574,"o":"m 574 538 l 574 760 l 32 760 l 32 538 l 574 538 m 574 0 l 574 222 l 32 222 l 32 0 l 574 0 m 460 0 l 460 760 l 146 760 l 146 0 l 460 0 "},"ᵻ":{"ha":675,"x_min":67,"x_max":608,"o":"m 608 538 l 608 760 l 67 760 l 67 538 l 608 538 m 608 0 l 608 222 l 67 222 l 67 0 l 608 0 m 494 0 l 494 760 l 181 760 l 181 0 l 494 0 m 585 310 l 585 463 l 90 463 l 90 310 l 585 310 "},"ɴ":{"ha":946,"x_min":54,"x_max":892,"o":"m 360 0 l 360 406 l 249 406 l 640 0 l 892 0 l 892 760 l 586 760 l 586 363 l 700 363 l 307 760 l 54 760 l 54 0 l 360 0 "},"ʀ":{"ha":899,"x_min":69,"x_max":886,"o":"m 382 0 l 382 306 l 244 185 l 485 185 l 485 185 q 688 219 601 185 q 821 319 774 254 q 868 469 868 383 l 868 469 q 768 680 868 600 q 485 760 668 760 l 69 760 l 69 0 l 382 0 m 886 0 l 683 281 l 350 281 l 551 0 l 886 0 m 382 661 l 244 526 l 471 526 l 471 526 q 531 513 511 526 q 550 469 550 500 l 550 469 q 531 426 550 439 q 471 413 511 413 l 244 413 l 382 269 l 382 661 "},"ᵾ":{"ha":1028,"x_min":-7,"x_max":1007,"o":"m 403 -14 q 563 28 489 -14 q 678 160 638 71 l 618 219 l 618 0 l 917 0 l 917 760 l 603 760 l 603 403 l 603 403 q 588 313 603 347 q 548 265 572 279 q 496 250 524 250 l 496 250 q 424 282 450 250 q 397 394 397 314 l 397 760 l 83 760 l 83 340 l 83 340 q 125 138 83 217 q 240 23 167 60 q 403 -14 313 -14 l 403 -14 m 1007 406 l 1007 558 l -7 558 l -7 406 l 1007 406 "},"a":{"ha":888,"x_min":32,"x_max":821,"o":"m 821 0 l 821 408 l 821 408 q 713 686 821 599 q 410 774 606 774 l 410 774 q 228 751 321 774 q 68 688 135 729 l 168 481 l 168 481 q 258 524 206 508 q 363 540 311 540 l 363 540 q 473 511 439 540 q 507 426 507 482 l 507 171 l 529 135 l 529 0 l 821 0 m 314 -14 q 471 28 413 -14 q 547 154 529 69 l 507 247 l 507 247 q 467 192 494 210 q 408 175 440 175 l 408 175 q 353 192 374 175 q 333 236 333 210 l 333 236 q 356 284 333 268 q 429 300 379 300 l 538 300 l 538 451 l 379 451 l 379 451 q 184 425 261 451 q 69 347 107 399 q 32 222 32 296 l 32 222 q 64 103 32 157 q 158 18 96 50 q 314 -14 221 -14 l 314 -14 "},"á":{"ha":888,"x_min":32,"x_max":821,"o":"m 821 0 l 821 408 l 821 408 q 713 686 821 599 q 410 774 606 774 l 410 774 q 228 751 321 774 q 68 688 135 729 l 168 481 l 168 481 q 258 524 206 508 q 363 540 311 540 l 363 540 q 473 511 439 540 q 507 426 507 482 l 507 171 l 529 135 l 529 0 l 821 0 m 314 -14 q 471 28 413 -14 q 547 154 529 69 l 507 247 l 507 247 q 467 192 494 210 q 408 175 440 175 l 408 175 q 353 192 374 175 q 333 236 333 210 l 333 236 q 356 284 333 268 q 429 300 379 300 l 538 300 l 538 451 l 379 451 l 379 451 q 184 425 261 451 q 69 347 107 399 q 32 222 32 296 l 32 222 q 64 103 32 157 q 158 18 96 50 q 314 -14 221 -14 l 314 -14 m 508 843 l 782 1065 l 483 1065 l 300 843 l 508 843 "},"ă":{"ha":888,"x_min":32,"x_max":821,"o":"m 821 0 l 821 408 l 821 408 q 713 686 821 599 q 410 774 606 774 l 410 774 q 228 751 321 774 q 68 688 135 729 l 168 481 l 168 481 q 258 524 206 508 q 363 540 311 540 l 363 540 q 473 511 439 540 q 507 426 507 482 l 507 171 l 529 135 l 529 0 l 821 0 m 314 -14 q 471 28 413 -14 q 547 154 529 69 l 507 247 l 507 247 q 467 192 494 210 q 408 175 440 175 l 408 175 q 353 192 374 175 q 333 236 333 210 l 333 236 q 356 284 333 268 q 429 300 379 300 l 538 300 l 538 451 l 379 451 l 379 451 q 184 425 261 451 q 69 347 107 399 q 32 222 32 296 l 32 222 q 64 103 32 157 q 158 18 96 50 q 314 -14 221 -14 l 314 -14 m 446 829 q 651 892 571 829 q 736 1065 731 956 l 549 1065 l 549 1065 q 517 1003 546 1026 q 446 981 489 981 l 446 981 q 374 1003 403 981 q 343 1065 346 1026 l 156 1065 l 156 1065 q 241 892 161 956 q 446 829 321 829 l 446 829 "}}}
